<svg width="251" height="251" viewBox="0 0 251 251" fill="none" xmlns="http://www.w3.org/2000/svg">
<g filter="url(#filter0_d_528_3057)">
<rect x="30" y="30" width="191" height="191" rx="30" fill="#090B3B"/>
<mask id="mask0_528_3057" style="mask-type:alpha" maskUnits="userSpaceOnUse" x="30" y="30" width="191" height="191">
<rect x="30" y="30" width="191" height="191" rx="30" fill="#090B3B"/>
</mask>
<g mask="url(#mask0_528_3057)">
<path d="M278.138 181.393C271.122 203.998 198.372 197.914 115.646 167.804C32.9203 137.695 -28.454 94.9609 -21.4375 72.3559C-14.4209 49.7508 58.3294 55.8345 141.055 85.9441C223.781 116.054 285.155 158.788 278.138 181.393ZM8.52011 83.2596C2.90688 101.344 52.0063 135.531 118.187 159.618C184.367 183.706 242.568 188.573 248.181 170.489C253.794 152.405 204.695 118.218 138.514 94.1302C72.3337 70.0424 14.1333 65.1755 8.52011 83.2596Z" fill="#A5B1E5"/>
<path d="M194.185 151.538C195.09 149.052 194.199 145.939 191.562 142.377C188.925 138.816 184.593 134.875 178.816 130.781C173.038 126.687 165.926 122.519 157.887 118.515C149.848 114.512 141.039 110.751 131.963 107.447C122.887 104.144 113.721 101.363 104.99 99.2622C96.2581 97.1618 88.1313 95.7835 81.0735 95.2059C74.0157 94.6283 68.1651 94.8628 63.8556 95.8959C59.5462 96.9291 56.8623 98.7407 55.9572 101.227L69.78 106.258C70.5041 104.269 72.6512 102.82 76.0987 101.993C79.5463 101.167 84.2268 100.979 89.8731 101.441C95.5193 101.903 102.021 103.006 109.006 104.686C115.991 106.367 123.324 108.592 130.585 111.234C137.846 113.877 144.893 116.886 151.324 120.089C157.755 123.292 163.444 126.626 168.067 129.901C172.689 133.177 176.154 136.329 178.264 139.178C180.373 142.027 181.086 144.518 180.362 146.507L194.185 151.538Z" fill="#A5B1E5"/>
<path d="M237.858 166.701C239.306 162.723 237.875 157.74 233.646 152.038C229.417 146.336 222.473 140.027 213.211 133.47C203.949 126.913 192.549 120.236 179.664 113.822C166.779 107.408 152.66 101.382 138.113 96.0871C123.566 90.7926 108.877 86.3335 94.8832 82.9645C80.8895 79.5954 67.8659 77.3825 56.5559 76.4519C45.2458 75.5214 35.8708 75.8915 28.9661 77.5411C22.0615 79.1907 17.7624 82.0875 16.3143 86.0661L49.5458 98.1614C50.5595 95.3763 53.5688 93.3486 58.4021 92.1939C63.2354 91.0392 69.7979 90.7801 77.7149 91.4315C85.6319 92.0828 94.7485 93.6319 104.544 95.9902C114.34 98.3485 124.622 101.47 134.805 105.176C144.988 108.882 154.871 113.101 163.891 117.591C172.91 122.081 180.89 126.754 187.373 131.344C193.857 135.934 198.717 140.351 201.678 144.342C204.638 148.333 205.64 151.821 204.626 154.606L237.858 166.701Z" fill="#A5B1E5" fill-opacity="0.3"/>
<path d="M127.861 75.0551C130.471 77.6136 132.591 80.987 133.807 85.9802C135.023 90.9735 134.549 101.419 134.549 101.419C134.549 101.419 141.964 92.7413 145.192 90.124C148.42 87.5067 152.823 85.747 156.466 85.4644C160.11 85.1818 163.727 85.6704 167.111 86.9021C170.495 88.1338 173.58 90.0847 176.19 92.6432C178.799 95.2017 180.882 98.3179 182.32 101.814C183.758 105.31 184.522 109.117 184.569 113.017C184.615 116.918 183.944 120.837 182.593 124.549C181.242 128.261 179.237 131.694 176.694 134.652C156.626 157.993 108.391 172.892 108.391 172.892C108.391 172.892 81.0631 125.94 80.7486 99.7329C80.7017 95.832 81.373 91.9136 82.7241 88.2015C84.0752 84.4895 86.0796 81.0563 88.623 78.0982C91.1663 75.14 94.1987 72.7148 97.547 70.9609C100.895 69.207 104.494 68.1589 108.138 67.8763C111.781 67.5937 115.398 68.0822 118.783 69.314C122.167 70.5457 125.252 72.4965 127.861 75.0551Z" fill="url(#paint0_radial_528_3057)"/>
<path d="M278.138 181.393C276.126 187.875 268.509 192.214 255.912 194.052C243.316 195.89 226.102 195.175 205.686 191.965C185.271 188.756 162.238 183.144 138.485 175.591C114.731 168.039 90.9361 158.761 69.0585 148.524C47.181 138.286 27.8466 127.38 12.6472 116.704C-2.55222 106.028 -13.182 95.8872 -18.367 87.1166C-23.5519 78.346 -23.1438 71.1963 -17.1762 66.2562C-11.2087 61.3161 0.147731 58.7269 15.958 58.7017L38.4365 72.3362C25.7883 72.3564 16.7032 74.4277 11.9291 78.3798C7.15503 82.3319 6.82855 88.0516 10.9765 95.0681C15.1245 102.085 23.6283 110.197 35.7879 118.738C47.9474 127.279 63.4149 136.003 80.9169 144.194C98.4189 152.384 117.455 159.806 136.458 165.848C155.461 171.89 173.887 176.379 190.219 178.947C206.551 181.515 220.323 182.087 230.4 180.616C240.477 179.146 246.571 175.675 248.181 170.489L278.138 181.393Z" fill="#A5B1E5"/>
<path d="M194.185 151.538C193.28 154.025 190.596 155.836 186.287 156.87C181.977 157.903 176.127 158.137 169.069 157.56C162.011 156.982 153.884 155.604 145.153 153.503C136.421 151.403 127.256 148.622 118.179 145.318C109.103 142.015 100.294 138.254 92.2551 134.25C84.2162 130.247 77.1048 126.079 71.3269 121.985C65.5491 117.89 61.2179 113.95 58.5808 110.388C55.9437 106.827 55.0522 103.714 55.9572 101.227L69.78 106.258C69.056 108.248 69.7692 110.738 71.8789 113.587C73.9886 116.437 77.4535 119.589 82.0758 122.864C86.6981 126.14 92.3872 129.474 98.8184 132.677C105.25 135.88 112.297 138.888 119.558 141.531C126.819 144.174 134.151 146.399 141.136 148.079C148.122 149.76 154.623 150.862 160.269 151.324C165.916 151.786 170.596 151.599 174.044 150.772C177.491 149.946 179.638 148.496 180.362 146.507L194.185 151.538Z" fill="#A5B1E5"/>
<path d="M237.858 166.701C236.41 170.68 232.111 173.577 225.206 175.226C218.301 176.876 208.926 177.246 197.616 176.315C186.306 175.385 173.282 173.172 159.289 169.803C145.295 166.434 130.606 161.975 116.059 156.68C101.512 151.386 87.3931 145.359 74.5078 138.945C61.6225 132.531 50.2234 125.855 40.9613 119.298C31.6991 112.741 24.7553 106.431 20.5264 100.729C16.2975 95.0272 14.8662 90.0447 16.3143 86.0661L49.5458 98.1614C48.5321 100.946 49.534 104.434 52.4943 108.425C55.4545 112.417 60.3152 116.834 66.7987 121.424C73.2822 126.014 81.2616 130.687 90.2813 135.177C99.301 139.667 109.184 143.885 119.367 147.591C129.55 151.297 139.832 154.419 149.628 156.777C159.424 159.135 168.54 160.685 176.457 161.336C184.374 161.987 190.937 161.728 195.77 160.574C200.603 159.419 203.613 157.391 204.626 154.606L237.858 166.701Z" fill="#A5B1E5" fill-opacity="0.3"/>
</g>
</g>
<defs>
<filter id="filter0_d_528_3057" x="0" y="0" width="251" height="251" filterUnits="userSpaceOnUse" color-interpolation-filters="sRGB">
<feFlood flood-opacity="0" result="BackgroundImageFix"/>
<feColorMatrix in="SourceAlpha" type="matrix" values="0 0 0 0 0 0 0 0 0 0 0 0 0 0 0 0 0 0 127 0" result="hardAlpha"/>
<feOffset/>
<feGaussianBlur stdDeviation="15"/>
<feComposite in2="hardAlpha" operator="out"/>
<feColorMatrix type="matrix" values="0 0 0 0 0.647059 0 0 0 0 0.694118 0 0 0 0 0.898039 0 0 0 1 0"/>
<feBlend mode="normal" in2="BackgroundImageFix" result="effect1_dropShadow_528_3057"/>
<feBlend mode="normal" in="SourceGraphic" in2="effect1_dropShadow_528_3057" result="shape"/>
</filter>
<radialGradient id="paint0_radial_528_3057" cx="0" cy="0" r="1" gradientUnits="userSpaceOnUse" gradientTransform="translate(92.0037 66.3468) rotate(62.7158) scale(152.362 160.501)">
<stop stop-color="#FF8194"/>
<stop offset="0.376638" stop-color="#FF5C75"/>
<stop offset="1" stop-color="#993746"/>
</radialGradient>
</defs>
</svg>
