<svg width="787" height="230" viewBox="0 0 787 230" fill="none" xmlns="http://www.w3.org/2000/svg">
<path d="M743.266 66.136C744.721 67.4969 745.098 70.0321 744.046 73.8404C743.001 77.6241 740.611 82.3901 737.012 87.8064C733.419 93.2159 728.726 99.114 723.265 105.083C717.804 111.05 711.712 116.938 705.419 122.328C699.127 127.718 692.792 132.475 686.863 136.265C680.931 140.057 675.564 142.779 671.139 144.252C666.687 145.733 663.402 145.877 661.417 144.856C660.446 144.357 659.79 143.582 659.433 142.54C659.07 141.484 659.002 140.117 659.279 138.428" stroke="#F5FDA1" stroke-linecap="round"/>
<path d="M64.5895 88.4745C57.8272 85.8702 52.154 83.0014 48.2322 80.2163C46.2707 78.8232 44.8067 77.4932 43.8503 76.2683C42.8891 75.0373 42.4791 73.9631 42.5222 73.0666C42.5641 72.197 43.038 71.4071 44.0405 70.721C45.0543 70.0271 46.5772 69.4655 48.6137 69.0857C52.6829 68.3268 58.4779 68.3527 65.3253 69.1818C72.165 70.01 79.7369 71.6012 87.1402 73.7673C94.544 75.9337 101.457 78.5811 107.06 81.392C112.679 84.2107 116.689 87.0489 118.681 89.5485C119.676 90.7971 120.1 91.8778 120.078 92.7734C120.057 93.6406 119.613 94.4362 118.627 95.1329" stroke="#F5FDA1" stroke-linecap="round"/>
<path d="M70.3836 132.915C63.313 134.502 57.0015 135.264 52.1934 135.124C49.7886 135.054 47.8326 134.76 46.3573 134.272C44.8745 133.781 43.9371 133.115 43.4755 132.345C43.0277 131.599 42.9835 130.679 43.4366 129.552C43.8948 128.412 44.8499 127.099 46.3332 125.653C49.2969 122.763 54.1318 119.569 60.2879 116.458C66.4371 113.351 73.6188 110.472 80.9794 108.165C88.3406 105.858 95.5608 104.223 101.782 103.451C108.02 102.678 112.931 102.813 115.975 103.787C117.495 104.273 118.449 104.936 118.927 105.694C119.391 106.427 119.463 107.335 119.029 108.462" stroke="#F5FDA1" stroke-linecap="round"/>
<path d="M170.699 230C155.178 230 140.675 227.178 127.192 221.534C113.709 215.733 101.793 207.815 91.4455 197.781C81.2546 187.747 73.2587 176.067 67.4578 162.74C61.6568 149.414 58.7563 135.147 58.7563 119.939C58.7563 104.731 61.6568 90.4635 67.4578 77.137C73.2587 63.8105 81.2546 52.1302 91.4455 42.0961C101.793 32.062 113.709 24.2229 127.192 18.5787C140.675 12.7778 155.178 9.87731 170.699 9.87731C186.221 9.87731 200.723 12.7778 214.206 18.5787C227.69 24.2229 239.527 32.062 249.718 42.0961C260.065 52.1302 268.139 63.8105 273.94 77.137C279.741 90.4635 282.642 104.731 282.642 119.939C282.642 135.147 279.741 149.414 273.94 162.74C268.139 176.067 260.065 187.747 249.718 197.781C239.527 207.815 227.69 215.733 214.206 221.534C200.723 227.178 186.221 230 170.699 230ZM170.699 189.08C183.398 189.08 194.844 186.022 205.034 179.908C215.225 173.637 223.3 165.249 229.257 154.744C235.372 144.24 238.429 132.638 238.429 119.939C238.429 107.082 235.372 95.4806 229.257 85.1329C223.3 74.6285 215.225 66.319 205.034 60.2045C194.844 53.9332 183.398 50.7976 170.699 50.7976C158 50.7976 146.476 53.9332 136.129 60.2045C125.938 66.319 117.863 74.6285 111.906 85.1329C105.948 95.4806 102.969 107.082 102.969 119.939C102.969 132.638 105.948 144.24 111.906 154.744C117.863 165.249 125.938 173.637 136.129 179.908C146.476 186.022 158 189.08 170.699 189.08Z" fill="#FF5C75"/>
<path d="M310.936 225.767V84.6626H347.623V108.885C352.484 100.733 358.598 94.4615 365.967 90.0716C373.492 85.5249 382.272 83.2515 392.306 83.2515L401.243 119.468C398.264 118.528 394.893 118.057 391.13 118.057C379.372 118.057 369.886 121.898 362.674 129.581C355.462 137.106 351.856 147.924 351.856 162.035V225.767H310.936Z" fill="#924E8F"/>
<path d="M498.333 229.53C489.396 229.53 481.165 227.962 473.64 224.826C466.271 221.691 459.843 217.379 454.355 211.892V225.767H419.079V0H460V93.5992C465.173 89.5228 470.974 86.3872 477.402 84.1922C483.831 81.9973 490.807 80.8998 498.333 80.8998C511.503 80.8998 523.418 84.2706 534.079 91.0123C544.741 97.5971 553.207 106.534 559.478 117.822C565.906 129.11 569.12 141.575 569.12 155.215C569.12 168.855 565.906 181.319 559.478 192.607C553.207 203.739 544.741 212.676 534.079 219.417C523.418 226.159 511.503 229.53 498.333 229.53ZM493.629 193.548C500.528 193.548 506.799 191.823 512.443 188.374C518.088 184.925 522.556 180.3 525.848 174.499C529.298 168.698 531.022 162.27 531.022 155.215C531.022 148.16 529.298 141.731 525.848 135.93C522.556 130.13 518.088 125.504 512.443 122.055C506.799 118.606 500.528 116.881 493.629 116.881C486.731 116.881 480.46 118.606 474.816 122.055C469.171 125.504 464.625 130.13 461.176 135.93C457.883 141.731 456.237 148.16 456.237 155.215C456.237 162.27 457.883 168.698 461.176 174.499C464.625 180.3 469.171 184.925 474.816 188.374C480.46 191.823 486.731 193.548 493.629 193.548Z" fill="#924E8F"/>
<path d="M593.505 225.767V84.6626H634.425V225.767H593.505ZM613.965 64.2024C607.851 64.2024 602.677 62.0859 598.444 57.8528C594.21 53.6196 592.094 48.4458 592.094 42.3313C592.094 36.06 594.21 30.8862 598.444 26.8098C602.677 22.5767 607.851 20.4601 613.965 20.4601C620.236 20.4601 625.41 22.5767 629.486 26.8098C633.72 30.8862 635.836 36.06 635.836 42.3313C635.836 48.4458 633.72 53.6196 629.486 57.8528C625.41 62.0859 620.236 64.2024 613.965 64.2024Z" fill="#924E8F"/>
<path d="M682.254 225.767V117.117H655.914V84.6626H682.959V37.6278H722.468V84.6626H750.454V117.117H723.174V225.767H682.254Z" fill="#924E8F"/>
<path d="M8.81864 37.2103C8.49454 36.8504 8.82039 36.286 9.29417 36.3867L18.5043 38.3444C18.7162 38.3894 18.933 38.2929 19.0413 38.1053L23.7492 29.9509C23.9914 29.5314 24.6289 29.6669 24.6795 30.1486L25.6637 39.5129C25.6864 39.7284 25.8452 39.9047 26.057 39.9497L35.2672 41.9074C35.741 42.0081 35.8091 42.6563 35.3666 42.8533L26.7647 46.6831C26.5669 46.7712 26.4482 46.9767 26.4709 47.1921L27.4551 56.5564C27.5057 57.0381 26.9104 57.3032 26.5863 56.9433L20.2858 49.9459C20.1408 49.7849 19.9087 49.7356 19.7108 49.8237L11.109 53.6535C10.6665 53.8505 10.2304 53.3662 10.4726 52.9467L15.1806 44.7923C15.2889 44.6047 15.2641 44.3687 15.1191 44.2077L8.81864 37.2103Z" fill="#F5FDA1"/>
<path d="M28.8549 61.5021C28.374 61.4438 28.2487 60.8043 28.672 60.5688L32.608 58.3791C32.7973 58.2738 32.8973 58.0586 32.8556 57.846L31.9894 53.426C31.8962 52.9506 32.4657 52.6338 32.8205 52.9636L36.1193 56.0303C36.278 56.1778 36.5135 56.2064 36.7028 56.1011L40.6389 53.9114C41.0621 53.6759 41.5394 54.1196 41.3354 54.5589L39.4382 58.644C39.3469 58.8404 39.3925 59.0733 39.5512 59.2208L42.85 62.2875C43.2048 62.6173 42.9302 63.2084 42.4494 63.1501L37.978 62.6081C37.763 62.582 37.5556 62.6973 37.4644 62.8938L35.5671 66.9788C35.3631 67.4181 34.7161 67.3397 34.623 66.8644L33.7568 62.4443C33.7151 62.2318 33.5413 62.0702 33.3263 62.0441L28.8549 61.5021Z" fill="#F5FDA1"/>
<path d="M30.1416 123.719C29.6607 123.66 29.5354 123.021 29.9587 122.785L33.0369 121.073C33.2262 120.967 33.3261 120.752 33.2845 120.54L32.607 117.083C32.5139 116.608 33.0834 116.291 33.4382 116.621L36.018 119.019C36.1767 119.166 36.4123 119.195 36.6016 119.09L39.6798 117.377C40.1031 117.142 40.5804 117.585 40.3763 118.025L38.8926 121.22C38.8013 121.416 38.847 121.649 39.0056 121.796L41.5855 124.195C41.9403 124.525 41.6657 125.116 41.1849 125.057L37.688 124.633C37.4729 124.607 37.2656 124.723 37.1743 124.919L35.6906 128.114C35.4865 128.553 34.8396 128.475 34.7464 127.999L34.069 124.543C34.0273 124.33 33.8535 124.169 33.6385 124.142L30.1416 123.719Z" fill="#F5FDA1"/>
<path d="M119.013 105.84C119.639 106.989 119.338 108.598 117.702 110.679C116.083 112.739 113.302 115.061 109.522 117.472C105.749 119.879 101.101 122.299 95.9039 124.558C90.7081 126.817 85.0971 128.857 79.4684 130.535C73.8395 132.213 68.335 133.485 63.3448 134.263C58.3513 135.042 54.0107 135.304 50.6237 135.042C47.2051 134.777 44.9585 133.992 43.88 132.869C43.3592 132.327 43.1125 131.709 43.1176 131.008C43.1229 130.291 43.3922 129.448 43.9824 128.483" stroke="#F5FDA1" stroke-linecap="round"/>
<path d="M120.068 92.9429C119.951 94.2461 118.808 95.4173 116.292 96.2408C113.802 97.0559 110.2 97.4435 105.717 97.3512C101.243 97.2591 96.0334 96.6919 90.4567 95.687C84.8809 94.6822 79.0808 93.2655 73.4676 91.537C67.854 89.8085 62.569 87.8118 57.9861 85.6894C53.4002 83.5657 49.6439 81.3747 46.972 79.2767C44.2752 77.1591 42.8419 75.2597 42.5679 73.727C42.4356 72.9869 42.5735 72.3358 42.9671 71.755C43.3694 71.1616 44.0613 70.6098 45.0877 70.1349" stroke="#F5FDA1" stroke-linecap="round"/>
<path d="M660.1 143.786C658.903 142.267 658.735 139.637 659.897 135.856C661.05 132.105 663.442 127.465 666.942 122.238C670.438 117.016 674.946 111.35 680.171 105.61C685.397 99.8709 691.218 94.1932 697.254 88.9494C703.289 83.7054 709.4 79.0165 715.185 75.189C720.972 71.3603 726.291 68.4866 730.797 66.7476C735.32 65.0017 738.852 64.4662 741.211 65.0691C742.377 65.3671 743.221 65.9337 743.778 66.7258C744.337 67.5193 744.642 68.5891 744.645 69.9634" stroke="#F5FDA1" stroke-linecap="round"/>
<path d="M754.036 30.8988C753.816 30.4673 754.277 30.0064 754.708 30.2263L763.098 34.5011C763.291 34.5994 763.525 34.5623 763.678 34.4091L770.336 27.7511C770.679 27.4086 771.26 27.7044 771.184 28.1828L769.711 37.4828C769.677 37.6968 769.785 37.9082 769.978 38.0065L778.367 42.2813C778.799 42.5012 778.697 43.1448 778.219 43.2206L768.919 44.6936C768.705 44.7275 768.537 44.8953 768.503 45.1092L767.03 54.4092C766.954 54.8876 766.31 54.9895 766.091 54.558L761.816 46.1683C761.718 45.9753 761.506 45.8676 761.292 45.9015L751.992 47.3745C751.514 47.4502 751.218 46.8696 751.56 46.5271L758.218 39.869C758.372 39.7158 758.409 39.4815 758.31 39.2885L754.036 30.8988Z" fill="#F5FDA1"/>
<path d="M745.545 60.5441C745.064 60.4858 744.939 59.8463 745.362 59.6108L749.298 57.4211C749.488 57.3158 749.588 57.1006 749.546 56.888L748.68 52.468C748.587 51.9926 749.156 51.6758 749.511 52.0056L752.81 55.0723C752.968 55.2198 753.204 55.2484 753.393 55.1431L757.329 52.9534C757.753 52.7179 758.23 53.1616 758.026 53.6009L756.129 57.686C756.037 57.8824 756.083 58.1153 756.242 58.2628L759.54 61.3295C759.895 61.6593 759.621 62.2504 759.14 62.1921L754.668 61.65C754.453 61.624 754.246 61.7393 754.155 61.9358L752.258 66.0208C752.054 66.4601 751.407 66.3817 751.313 65.9064L750.447 61.4863C750.406 61.2738 750.232 61.1122 750.017 61.0861L745.545 60.5441Z" fill="#F5FDA1"/>
</svg>
