<svg width="261" height="180" viewBox="0 0 261 180" fill="none" xmlns="http://www.w3.org/2000/svg">
<path d="M105.587 20L108.712 7.5H112.212C112.962 7.5 113.638 7.66667 114.239 8C114.841 8.33333 115.313 8.78241 115.656 9.34722C116.008 9.91204 116.184 10.5509 116.184 11.2639C116.184 11.8843 116.05 12.4769 115.781 13.0417C115.522 13.6065 115.156 14.1111 114.684 14.5556C114.221 15 113.688 15.3519 113.087 15.6111C112.494 15.8611 111.864 15.9861 111.198 15.9861H109.003L108.003 20H105.587ZM109.545 13.8194H111.128C111.61 13.8194 112.04 13.713 112.42 13.5C112.809 13.2778 113.114 12.9861 113.337 12.625C113.568 12.2639 113.684 11.875 113.684 11.4583C113.684 10.9398 113.499 10.5139 113.128 10.1806C112.758 9.83796 112.258 9.66667 111.628 9.66667H110.587L109.545 13.8194ZM115.471 20L118.804 6.66667H121.221L117.888 20H115.471ZM123.865 20.1944C123.208 20.1944 122.611 20.0324 122.074 19.7083C121.546 19.375 121.129 18.9259 120.824 18.3611C120.518 17.787 120.365 17.1481 120.365 16.4444C120.365 15.7778 120.499 15.1481 120.768 14.5556C121.037 13.9537 121.398 13.4213 121.851 12.9583C122.314 12.4954 122.837 12.1343 123.421 11.875C124.004 11.6065 124.611 11.4722 125.24 11.4722C125.777 11.4722 126.277 11.5694 126.74 11.7639C127.212 11.9491 127.615 12.2176 127.949 12.5694L128.171 11.6667H130.254L128.185 20H126.101L126.282 19.2917C125.949 19.5602 125.578 19.7778 125.171 19.9444C124.763 20.1111 124.328 20.1944 123.865 20.1944ZM124.532 18.0694C124.976 18.0694 125.384 17.9537 125.754 17.7222C126.124 17.4815 126.421 17.1713 126.643 16.7917C126.865 16.4028 126.976 15.9907 126.976 15.5556C126.976 15.1852 126.893 14.8565 126.726 14.5694C126.569 14.2731 126.347 14.0417 126.06 13.875C125.773 13.6991 125.439 13.6111 125.06 13.6111C124.615 13.6111 124.208 13.7315 123.837 13.9722C123.467 14.2037 123.171 14.5093 122.949 14.8889C122.726 15.2685 122.615 15.6759 122.615 16.1111C122.615 16.4722 122.694 16.8009 122.851 17.0972C123.018 17.3935 123.245 17.6296 123.532 17.8056C123.828 17.9815 124.162 18.0694 124.532 18.0694ZM130.014 20L132.097 11.6667H134.264L134.055 12.5556C134.416 12.1574 134.819 11.8657 135.264 11.6806C135.717 11.4861 136.18 11.3889 136.653 11.3889C137.403 11.3889 137.995 11.5787 138.43 11.9583C138.875 12.3287 139.166 12.8102 139.305 13.4028C139.444 13.9861 139.43 14.6019 139.264 15.25L138.069 20H135.653L136.847 15.2778C136.977 14.7778 136.935 14.338 136.722 13.9583C136.518 13.5787 136.148 13.3889 135.611 13.3889C135.194 13.3889 134.805 13.5324 134.444 13.8194C134.083 14.0972 133.824 14.537 133.666 15.1389L132.43 20H130.014ZM144.587 20.2778C143.782 20.2778 143.06 20.1065 142.421 19.7639C141.782 19.412 141.277 18.9398 140.907 18.3472C140.546 17.7546 140.365 17.0833 140.365 16.3333C140.365 15.6667 140.499 15.037 140.768 14.4444C141.046 13.8426 141.425 13.3148 141.907 12.8611C142.388 12.3981 142.944 12.037 143.574 11.7778C144.203 11.5185 144.87 11.3889 145.574 11.3889C146.444 11.3889 147.171 11.5833 147.754 11.9722C148.347 12.3611 148.759 12.8889 148.99 13.5556C149.231 14.2222 149.245 14.9769 149.032 15.8194L148.851 16.5417H143.768C143.592 16.5417 143.416 16.5324 143.24 16.5139C143.064 16.4954 142.879 16.4676 142.685 16.4306C142.768 17.0139 142.999 17.4676 143.379 17.7917C143.768 18.1157 144.249 18.2778 144.824 18.2778C145.305 18.2778 145.791 18.1528 146.282 17.9028C146.773 17.6528 147.129 17.3519 147.351 17V19.3889C147.009 19.6574 146.592 19.8704 146.101 20.0278C145.62 20.1944 145.115 20.2778 144.587 20.2778ZM142.685 14.9722C143.249 14.8519 143.754 14.7917 144.199 14.7917H145.671C145.921 14.7917 146.152 14.8009 146.365 14.8194C146.587 14.838 146.8 14.8704 147.004 14.9167C146.967 14.4167 146.787 14.0278 146.462 13.75C146.148 13.463 145.717 13.3194 145.171 13.3194C144.606 13.3194 144.101 13.4722 143.657 13.7778C143.212 14.0833 142.888 14.4815 142.685 14.9722ZM150.302 20L151.913 13.5833H150.358L150.83 11.6667H152.427L153.122 8.88889H155.455L154.775 11.6667H156.413L155.941 13.5833H154.33L152.719 20H150.302Z" fill="#AEB1E7"/>
<path d="M249.883 146.929C244.268 165.018 186.054 160.15 119.858 136.056C53.6624 111.963 4.55144 77.7678 10.166 59.6795C15.7805 41.5912 73.9945 46.4593 140.19 70.5526C206.387 94.646 255.497 128.841 249.883 146.929ZM34.1377 68.4045C29.646 82.8751 68.9348 110.231 121.892 129.506C174.848 148.781 221.42 152.675 225.911 138.204C230.403 123.734 191.114 96.3777 138.157 77.103C85.2005 57.8283 38.6293 53.9338 34.1377 68.4045Z" fill="#A5B1E5"/>
<path d="M182.704 123.041C183.429 121.051 182.715 118.56 180.605 115.71C178.495 112.86 175.029 109.707 170.406 106.431C165.782 103.155 160.092 99.82 153.659 96.6164C147.227 93.4127 140.178 90.4033 132.915 87.7599C125.652 85.1165 118.318 82.891 111.331 81.2102C104.344 79.5295 97.8414 78.4266 92.1938 77.9644C86.5462 77.5022 81.8646 77.6898 78.4162 78.5166C74.9678 79.3433 72.8202 80.7929 72.096 82.7827L83.1569 86.8085C83.7362 85.2167 85.4543 84.057 88.213 83.3956C90.9717 82.7342 94.717 82.5841 99.2351 82.9539C103.753 83.3236 108.955 84.206 114.545 85.5505C120.135 86.8951 126.002 88.6756 131.812 90.7903C137.622 92.905 143.261 95.3125 148.407 97.8754C153.554 100.438 158.106 103.106 161.805 105.727C165.503 108.348 168.276 110.871 169.964 113.151C171.652 115.43 172.223 117.423 171.644 119.015L182.704 123.041Z" fill="#A5B1E5"/>
<path d="M217.65 135.173C218.809 131.99 217.663 128.003 214.279 123.44C210.895 118.878 205.339 113.829 197.928 108.582C190.516 103.335 181.395 97.9927 171.084 92.8603C160.773 87.7278 149.476 82.9055 137.835 78.6689C126.195 74.4322 114.441 70.8641 103.243 68.1683C92.0459 65.4724 81.6245 63.7016 72.5744 62.957C63.5242 62.2124 56.0224 62.5086 50.4974 63.8286C44.9724 65.1485 41.5323 67.4665 40.3736 70.6501L66.965 80.3286C67.7761 78.1001 70.1842 76.4775 74.0517 75.5535C77.9192 74.6295 83.1705 74.4222 89.5056 74.9435C95.8407 75.4647 103.136 76.7042 110.974 78.5913C118.812 80.4784 127.04 82.9761 135.188 85.9418C143.336 88.9074 151.245 92.283 158.462 95.8757C165.68 99.4685 172.065 103.208 177.253 106.881C182.441 110.554 186.33 114.088 188.699 117.282C191.068 120.476 191.87 123.266 191.058 125.495L217.65 135.173Z" fill="#A5B1E5" fill-opacity="0.3"/>
<circle cx="126.949" cy="102.148" r="41.66" fill="#F5FDA1"/>
<path d="M249.883 146.929C248.273 152.116 242.177 155.588 232.098 157.059C222.019 158.53 208.244 157.958 191.908 155.389C175.571 152.821 157.141 148.331 138.134 142.287C119.126 136.244 100.086 128.82 82.5798 120.628C65.0736 112.436 49.6025 103.709 37.4401 95.1662C25.2777 86.6234 16.7719 78.5089 12.623 71.4908C8.47403 64.4727 8.80059 58.7516 13.5758 54.7986C18.351 50.8456 27.4382 48.7737 40.0894 48.7536L58.0764 59.6637C47.9555 59.6799 40.6857 61.3374 36.8655 64.4998C33.0454 67.6622 32.7841 72.239 36.1033 77.8535C39.4224 83.468 46.2271 89.9596 55.957 96.7938C65.6869 103.628 78.0638 110.609 92.0687 117.163C106.074 123.717 121.306 129.656 136.512 134.491C151.718 139.325 166.462 142.918 179.531 144.972C192.6 147.027 203.62 147.485 211.683 146.308C219.747 145.131 224.623 142.354 225.911 138.204L249.883 146.929Z" fill="#A5B1E5"/>
<path d="M182.704 123.041C181.98 125.031 179.833 126.48 176.384 127.307C172.936 128.134 168.254 128.321 162.607 127.859C156.959 127.397 150.456 126.294 143.469 124.613C136.482 122.933 129.148 120.707 121.885 118.064C114.623 115.42 107.574 112.411 101.141 109.207C94.7085 106.004 89.018 102.668 84.3947 99.3923C79.7713 96.1162 76.3056 92.9632 74.1954 90.1133C72.0852 87.2634 71.3718 84.7724 72.096 82.7827L83.1569 86.8085C82.5775 88.4003 83.1482 90.3931 84.8363 92.673C86.5245 94.9529 89.2971 97.4753 92.9958 100.096C96.6945 102.717 101.247 105.385 106.393 107.948C111.539 110.511 117.178 112.918 122.988 115.033C128.798 117.148 134.666 118.928 140.255 120.273C145.845 121.618 151.047 122.5 155.565 122.87C160.083 123.239 163.829 123.089 166.587 122.428C169.346 121.767 171.064 120.607 171.644 119.015L182.704 123.041Z" fill="#A5B1E5"/>
<path d="M217.65 135.173C216.491 138.357 213.051 140.675 207.526 141.995C202.001 143.315 194.499 143.611 185.449 142.867C176.399 142.122 165.978 140.351 154.78 137.655C143.583 134.959 131.828 131.391 120.188 127.155C108.548 122.918 97.25 118.096 86.9393 112.963C76.6287 107.831 67.5072 102.489 60.0958 97.2417C52.6843 91.9948 47.128 86.9459 43.7441 82.3833C40.3601 77.8207 39.2148 73.8338 40.3736 70.6501L66.965 80.3286C66.1539 82.5572 66.9556 85.348 69.3244 88.5418C71.6931 91.7356 75.5825 95.2699 80.7706 98.9427C85.9586 102.616 92.3436 106.355 99.5611 109.948C106.779 113.541 114.687 116.916 122.835 119.882C130.983 122.848 139.211 125.345 147.05 127.232C154.888 129.119 162.183 130.359 168.518 130.88C174.853 131.401 180.104 131.194 183.972 130.27C187.839 129.346 190.247 127.723 191.058 125.495L217.65 135.173Z" fill="#A5B1E5" fill-opacity="0.3"/>
<circle cx="185.997" cy="119.37" r="1.34561" transform="rotate(-7.1737 185.997 119.37)" fill="#A6FFD6"/>
<circle cx="211.35" cy="130.655" r="1.34561" transform="rotate(-51.1621 211.35 130.655)" fill="#A6FFD6"/>
<circle cx="40.0805" cy="65.8514" r="1.34561" transform="rotate(-51.1621 40.0805 65.8514)" fill="#A6FFD6"/>
<path d="M66.5048 95.278L67.4773 95.3774L67.8725 94.4832L68.0784 95.4389L69.051 95.5383L68.2057 96.0295L68.4117 96.9852L67.6833 96.3331L66.838 96.8243L67.2331 95.9301L66.5048 95.278Z" fill="#FF5C75"/>
<path d="M208.844 123.051L209.816 123.151L210.211 122.257L210.417 123.212L211.39 123.312L210.545 123.803L210.751 124.759L210.022 124.107L209.177 124.598L209.572 123.704L208.844 123.051Z" fill="#FF5C75"/>
<path d="M36.4174 68.6618L37.3899 68.7612L37.785 67.867L37.991 68.8227L38.9636 68.9221L38.1183 69.4133L38.3243 70.369L37.5959 69.7169L36.7506 70.2081L37.1457 69.3139L36.4174 68.6618Z" fill="#FF5C75"/>
<path d="M94.5669 89.0927L99.1212 91.4133L102.735 87.799L101.936 92.8474L106.49 95.1679L101.442 95.9675L100.642 101.016L98.3216 96.4617L93.2731 97.2613L96.8874 93.647L94.5669 89.0927Z" fill="#FF5C75"/>
<circle cx="71.3256" cy="99.411" r="1.34561" transform="rotate(-51.1621 71.3256 99.411)" fill="#A6FFD6"/>
<path d="M182.959 113.911L183.59 114.658L184.495 114.289L183.979 115.12L184.61 115.867L183.661 115.633L183.145 116.464L183.074 115.489L182.125 115.255L183.03 114.886L182.959 113.911Z" fill="#FF5C75"/>
<path d="M151.596 86.879L155.439 85.6303V81.5897L157.814 84.8586L161.657 83.61L159.282 86.879L161.657 90.1479L157.814 88.8993L155.439 92.1682V88.1276L151.596 86.879Z" fill="#FF5C75"/>
<path d="M206.53 133.465L207.502 133.565L207.897 132.671L208.103 133.626L209.076 133.726L208.231 134.217L208.437 135.173L207.708 134.521L206.863 135.012L207.258 134.118L206.53 133.465Z" fill="#FF5C75"/>
</svg>
