<svg width="260" height="83" viewBox="0 0 260 83" fill="none" xmlns="http://www.w3.org/2000/svg">
<path d="M0 30.248C0 13.5425 13.5425 0 30.248 0H229.752C246.457 0 260 13.5425 260 30.248C260 46.9536 246.457 60.4961 229.752 60.4961H82.125L68.9375 82.4961L55.75 60.4961H30.248C13.5425 60.4961 0 46.9536 0 30.248Z" fill="#FF5C75"/>
<path d="M39.4684 39.9167C38.3018 39.9167 37.1629 39.6528 36.0518 39.125C34.9406 38.5833 34.1004 37.8889 33.5309 37.0417L35.5518 33.0625C35.7323 33.7014 36.0448 34.2847 36.4893 34.8125C36.9337 35.3403 37.4406 35.7639 38.0101 36.0833C38.5934 36.3889 39.1837 36.5417 39.7809 36.5417C40.267 36.5417 40.7045 36.4375 41.0934 36.2292C41.4962 36.0208 41.8156 35.7431 42.0518 35.3958C42.2879 35.0486 42.4059 34.6597 42.4059 34.2292C42.4059 33.8264 42.2948 33.4583 42.0726 33.125C41.8504 32.7778 41.4962 32.4097 41.0101 32.0208L39.0934 30.5C38.1073 29.7083 37.4129 28.9931 37.0101 28.3542C36.6212 27.7014 36.4268 26.9653 36.4268 26.1458C36.4268 25.0486 36.7045 24.0625 37.2601 23.1875C37.8156 22.3125 38.5656 21.6181 39.5101 21.1042C40.4545 20.5903 41.5101 20.3333 42.6768 20.3333C43.7184 20.3333 44.7393 20.5417 45.7393 20.9583C46.7531 21.375 47.5934 21.9375 48.2601 22.6458L46.3226 26.5417C45.892 25.6806 45.3087 24.9861 44.5726 24.4583C43.8504 23.9306 43.1004 23.6667 42.3226 23.6667C41.6837 23.6667 41.149 23.8542 40.7184 24.2292C40.2879 24.6042 40.0726 25.0764 40.0726 25.6458C40.0726 25.9792 40.1698 26.2917 40.3643 26.5833C40.5726 26.8611 40.9268 27.1875 41.4268 27.5625L43.3643 29.0208C44.3087 29.7153 44.9893 30.4306 45.4059 31.1667C45.8365 31.8889 46.0518 32.7014 46.0518 33.6042C46.0518 34.7569 45.7531 35.8125 45.1559 36.7708C44.5587 37.7292 43.7601 38.4931 42.7601 39.0625C41.774 39.6319 40.6768 39.9167 39.4684 39.9167ZM53.8337 39.9167C52.7503 39.9167 51.7503 39.6667 50.8337 39.1667C49.9309 38.6528 49.2087 37.9514 48.667 37.0625C48.1253 36.1597 47.8545 35.1389 47.8545 34C47.8545 33.0278 48.0559 32.0972 48.4587 31.2083C48.8614 30.3194 49.417 29.5278 50.1253 28.8333C50.8337 28.1389 51.6392 27.5903 52.542 27.1875C53.4448 26.7847 54.3962 26.5833 55.3962 26.5833C56.535 26.5833 57.5489 26.8472 58.4378 27.375C59.3406 27.8889 60.0489 28.5903 60.5628 29.4792C61.0906 30.3681 61.3545 31.3611 61.3545 32.4583C61.3545 33.4306 61.1462 34.3681 60.7295 35.2708C60.3267 36.1597 59.7712 36.9583 59.0628 37.6667C58.3684 38.3611 57.5698 38.9097 56.667 39.3125C55.7642 39.7153 54.8198 39.9167 53.8337 39.9167ZM54.2087 36.6667C54.8892 36.6667 55.5073 36.4861 56.0628 36.125C56.6184 35.7639 57.0628 35.2917 57.3962 34.7083C57.7434 34.1111 57.917 33.4861 57.917 32.8333C57.917 32 57.6462 31.2917 57.1045 30.7083C56.5628 30.125 55.8614 29.8333 55.0003 29.8333C54.3337 29.8333 53.7156 30.0139 53.1462 30.375C52.5906 30.7361 52.1392 31.2083 51.792 31.7917C51.4587 32.375 51.292 33 51.292 33.6667C51.292 34.5139 51.5628 35.2292 52.1045 35.8125C52.66 36.3819 53.3614 36.6667 54.2087 36.6667ZM68.9587 39.875C67.8337 39.875 66.8059 39.625 65.8753 39.125C64.9587 38.625 64.2225 37.9306 63.667 37.0417C63.1253 36.1528 62.8545 35.1389 62.8545 34C62.8545 33.0278 63.0559 32.0972 63.4587 31.2083C63.8753 30.3194 64.4378 29.5347 65.1462 28.8542C65.8545 28.1597 66.667 27.6181 67.5837 27.2292C68.5142 26.8264 69.4934 26.625 70.5212 26.625C71.3823 26.625 72.16 26.7569 72.8545 27.0208C73.5628 27.2847 74.1809 27.6528 74.7087 28.125L72.9378 31.7292C72.7434 31.1736 72.4031 30.7222 71.917 30.375C71.4309 30.0278 70.8337 29.8542 70.1253 29.8542C69.417 29.8542 68.7712 30.0347 68.1878 30.3958C67.6045 30.7569 67.1392 31.2292 66.792 31.8125C66.4587 32.3819 66.292 33 66.292 33.6667C66.292 34.5139 66.5698 35.2222 67.1253 35.7917C67.6809 36.3472 68.417 36.625 69.3337 36.625C70.2642 36.625 71.0559 36.3819 71.7087 35.8958C72.3614 35.4097 72.8198 34.9306 73.0837 34.4583V38.5833C72.5559 39.0139 71.9309 39.3333 71.2087 39.5417C70.5003 39.7639 69.7503 39.875 68.9587 39.875ZM74.4684 39.5L77.5934 27H81.2184L78.0934 39.5H74.4684ZM80.1143 25.1875C79.642 25.1875 79.2393 25.0278 78.9059 24.7083C78.5726 24.3889 78.4059 23.9792 78.4059 23.4792C78.4059 22.9097 78.6212 22.4097 79.0518 21.9792C79.4962 21.5347 80.0031 21.3125 80.5726 21.3125C81.0587 21.3125 81.4615 21.4792 81.7809 21.8125C82.1143 22.1319 82.2809 22.5347 82.2809 23.0208C82.2809 23.5903 82.0587 24.0972 81.6143 24.5417C81.1837 24.9722 80.6837 25.1875 80.1143 25.1875ZM87.0596 39.7917C86.0735 39.7917 85.1776 39.5486 84.3721 39.0625C83.5804 38.5625 82.9554 37.8889 82.4971 37.0417C82.0387 36.1806 81.8096 35.2222 81.8096 34.1667C81.8096 33.1667 82.011 32.2222 82.4137 31.3333C82.8165 30.4306 83.3582 29.6319 84.0387 28.9375C84.7332 28.2431 85.5179 27.7014 86.3929 27.3125C87.2679 26.9097 88.1776 26.7083 89.1221 26.7083C89.9276 26.7083 90.6776 26.8542 91.3721 27.1458C92.0804 27.4236 92.6846 27.8264 93.1846 28.3542L93.5179 27H96.6429L93.5387 39.5H90.4137L90.6846 38.4375C90.1846 38.8403 89.629 39.1667 89.0179 39.4167C88.4068 39.6667 87.754 39.7917 87.0596 39.7917ZM88.0596 36.6042C88.7262 36.6042 89.3373 36.4306 89.8929 36.0833C90.4485 35.7222 90.8929 35.2569 91.2262 34.6875C91.5596 34.1042 91.7262 33.4861 91.7262 32.8333C91.7262 32.2778 91.6012 31.7847 91.3512 31.3542C91.1151 30.9097 90.7818 30.5625 90.3512 30.3125C89.9207 30.0486 89.4207 29.9167 88.8512 29.9167C88.1846 29.9167 87.5735 30.0972 87.0179 30.4583C86.4623 30.8056 86.0179 31.2639 85.6846 31.8333C85.3512 32.4028 85.1846 33.0139 85.1846 33.6667C85.1846 34.2083 85.3026 34.7014 85.5387 35.1458C85.7887 35.5903 86.129 35.9444 86.5596 36.2083C87.004 36.4722 87.504 36.6042 88.0596 36.6042ZM96.3239 39.5L101.324 19.5H104.949L99.9489 39.5H96.3239ZM115.28 40.1667L112.405 20.75H116.114L117.28 28.75C117.336 29.125 117.391 29.5208 117.447 29.9375C117.502 30.3403 117.544 30.8333 117.572 31.4167C117.891 30.8333 118.183 30.3403 118.447 29.9375C118.725 29.5208 118.989 29.125 119.239 28.75L124.968 20.125L126.447 28.75C126.516 29.125 126.593 29.5208 126.676 29.9375C126.759 30.3403 126.815 30.8333 126.843 31.4167C127.162 30.8333 127.447 30.3403 127.697 29.9375C127.947 29.5208 128.19 29.125 128.426 28.75L133.551 20.75H137.572L125.03 40.1667L123.468 30.9167C123.412 30.5417 123.35 30.1458 123.28 29.7292C123.211 29.3125 123.162 28.8125 123.134 28.2292C122.815 28.8125 122.516 29.3125 122.239 29.7292C121.975 30.1319 121.718 30.5208 121.468 30.8958L115.28 40.1667ZM140.203 39.9167C138.995 39.9167 137.912 39.6597 136.953 39.1458C135.995 38.6181 135.238 37.9097 134.683 37.0208C134.141 36.1319 133.87 35.125 133.87 34C133.87 33 134.072 32.0556 134.474 31.1667C134.891 30.2639 135.46 29.4722 136.183 28.7917C136.905 28.0972 137.738 27.5556 138.683 27.1667C139.627 26.7778 140.627 26.5833 141.683 26.5833C142.988 26.5833 144.078 26.875 144.953 27.4583C145.842 28.0417 146.46 28.8333 146.808 29.8333C147.169 30.8333 147.19 31.9653 146.87 33.2292L146.599 34.3125H138.974C138.71 34.3125 138.447 34.2986 138.183 34.2708C137.919 34.2431 137.641 34.2014 137.349 34.1458C137.474 35.0208 137.822 35.7014 138.391 36.1875C138.974 36.6736 139.697 36.9167 140.558 36.9167C141.28 36.9167 142.009 36.7292 142.745 36.3542C143.481 35.9792 144.016 35.5278 144.349 35V38.5833C143.835 38.9861 143.21 39.3056 142.474 39.5417C141.752 39.7917 140.995 39.9167 140.203 39.9167ZM137.349 31.9583C138.197 31.7778 138.953 31.6875 139.62 31.6875H141.828C142.203 31.6875 142.551 31.7014 142.87 31.7292C143.203 31.7569 143.523 31.8056 143.828 31.875C143.773 31.125 143.502 30.5417 143.016 30.125C142.544 29.6944 141.898 29.4792 141.078 29.4792C140.231 29.4792 139.474 29.7083 138.808 30.1667C138.141 30.625 137.655 31.2222 137.349 31.9583ZM147.359 39.5L152.359 19.5H155.984L150.984 39.5H147.359ZM153.804 39.5L158.804 19.5H162.429L157.429 39.5H153.804ZM167.75 39.7917C166.944 39.7917 166.187 39.6458 165.479 39.3542C164.784 39.0625 164.187 38.6597 163.687 38.1458L163.333 39.5H160.208L165.208 19.5H168.833L166.812 27.6042C167.257 27.3264 167.729 27.1111 168.229 26.9583C168.729 26.7917 169.257 26.7083 169.812 26.7083C170.812 26.7083 171.708 26.9583 172.5 27.4583C173.291 27.9444 173.916 28.6111 174.375 29.4583C174.833 30.3056 175.062 31.2639 175.062 32.3333C175.062 33.3333 174.861 34.2847 174.458 35.1875C174.055 36.0764 173.507 36.8681 172.812 37.5625C172.132 38.2569 171.354 38.8056 170.479 39.2083C169.604 39.5972 168.694 39.7917 167.75 39.7917ZM168.021 36.5833C168.687 36.5833 169.298 36.4097 169.854 36.0625C170.409 35.7014 170.854 35.2361 171.187 34.6667C171.521 34.0972 171.687 33.4861 171.687 32.8333C171.687 32.2778 171.562 31.7847 171.312 31.3542C171.076 30.9097 170.743 30.5556 170.312 30.2917C169.882 30.0278 169.382 29.8958 168.812 29.8958C168.146 29.8958 167.534 30.0764 166.979 30.4375C166.423 30.7847 165.979 31.2431 165.646 31.8125C165.312 32.3819 165.146 33 165.146 33.6667C165.146 34.2222 165.264 34.7222 165.5 35.1667C165.75 35.5972 166.09 35.9444 166.521 36.2083C166.965 36.4583 167.465 36.5833 168.021 36.5833ZM182.889 39.9167C181.681 39.9167 180.597 39.6597 179.639 39.1458C178.681 38.6181 177.924 37.9097 177.368 37.0208C176.826 36.1319 176.556 35.125 176.556 34C176.556 33 176.757 32.0556 177.16 31.1667C177.576 30.2639 178.146 29.4722 178.868 28.7917C179.59 28.0972 180.424 27.5556 181.368 27.1667C182.313 26.7778 183.313 26.5833 184.368 26.5833C185.674 26.5833 186.764 26.875 187.639 27.4583C188.528 28.0417 189.146 28.8333 189.493 29.8333C189.854 30.8333 189.875 31.9653 189.556 33.2292L189.285 34.3125H181.66C181.396 34.3125 181.132 34.2986 180.868 34.2708C180.604 34.2431 180.326 34.2014 180.035 34.1458C180.16 35.0208 180.507 35.7014 181.076 36.1875C181.66 36.6736 182.382 36.9167 183.243 36.9167C183.965 36.9167 184.695 36.7292 185.431 36.3542C186.167 35.9792 186.701 35.5278 187.035 35V38.5833C186.521 38.9861 185.896 39.3056 185.16 39.5417C184.438 39.7917 183.681 39.9167 182.889 39.9167ZM180.035 31.9583C180.882 31.7778 181.639 31.6875 182.306 31.6875H184.514C184.889 31.6875 185.236 31.7014 185.556 31.7292C185.889 31.7569 186.208 31.8056 186.514 31.875C186.458 31.125 186.188 30.5417 185.701 30.125C185.229 29.6944 184.583 29.4792 183.764 29.4792C182.917 29.4792 182.16 29.7083 181.493 30.1667C180.826 30.625 180.34 31.2222 180.035 31.9583ZM190.045 39.5L193.17 27H196.795L193.67 39.5H190.045ZM195.69 25.1875C195.218 25.1875 194.815 25.0278 194.482 24.7083C194.149 24.3889 193.982 23.9792 193.982 23.4792C193.982 22.9097 194.197 22.4097 194.628 21.9792C195.072 21.5347 195.579 21.3125 196.149 21.3125C196.635 21.3125 197.038 21.4792 197.357 21.8125C197.69 22.1319 197.857 22.5347 197.857 23.0208C197.857 23.5903 197.635 24.0972 197.19 24.5417C196.76 24.9722 196.26 25.1875 195.69 25.1875ZM196.448 39.5L199.573 27H202.823L202.511 28.3333C203.052 27.7361 203.657 27.2986 204.323 27.0208C205.004 26.7292 205.698 26.5833 206.407 26.5833C207.532 26.5833 208.42 26.8681 209.073 27.4375C209.74 27.9931 210.177 28.7153 210.386 29.6042C210.594 30.4792 210.573 31.4028 210.323 32.375L208.532 39.5H204.907L206.698 32.4167C206.893 31.6667 206.83 31.0069 206.511 30.4375C206.205 29.8681 205.65 29.5833 204.844 29.5833C204.219 29.5833 203.636 29.7986 203.094 30.2292C202.552 30.6458 202.164 31.3056 201.927 32.2083L200.073 39.5H196.448ZM215.913 46.0833C215.344 46.0833 214.712 46.0139 214.017 45.875C213.323 45.75 212.635 45.5208 211.955 45.1875C211.288 44.8681 210.691 44.4236 210.163 43.8542L211.892 40.4375C212.295 41.2569 212.885 41.8889 213.663 42.3333C214.441 42.7778 215.281 43 216.184 43C217.281 43 218.205 42.6875 218.955 42.0625C219.719 41.4375 220.233 40.6181 220.496 39.6042L220.788 38.4792C220.302 38.8681 219.76 39.1875 219.163 39.4375C218.566 39.6736 217.92 39.7917 217.226 39.7917C216.239 39.7917 215.344 39.5486 214.538 39.0625C213.746 38.5625 213.121 37.8889 212.663 37.0417C212.205 36.1806 211.976 35.2222 211.976 34.1667C211.976 33.1667 212.177 32.2222 212.58 31.3333C212.983 30.4306 213.524 29.6319 214.205 28.9375C214.899 28.2431 215.684 27.7014 216.559 27.3125C217.434 26.9097 218.344 26.7083 219.288 26.7083C220.094 26.7083 220.844 26.8542 221.538 27.1458C222.246 27.4236 222.851 27.8264 223.351 28.3542L223.684 27H226.809L223.455 40.5C223.163 41.7083 222.628 42.7292 221.851 43.5625C221.087 44.3958 220.184 45.0208 219.142 45.4375C218.114 45.8681 217.038 46.0833 215.913 46.0833ZM218.226 36.6042C218.892 36.6042 219.503 36.4306 220.059 36.0833C220.614 35.7222 221.059 35.2569 221.392 34.6875C221.726 34.1042 221.892 33.4861 221.892 32.8333C221.892 32.2778 221.767 31.7847 221.517 31.3542C221.281 30.9097 220.948 30.5625 220.517 30.3125C220.087 30.0486 219.587 29.9167 219.017 29.9167C218.351 29.9167 217.739 30.0972 217.184 30.4583C216.628 30.8056 216.184 31.2639 215.851 31.8333C215.517 32.4028 215.351 33.0139 215.351 33.6667C215.351 34.2083 215.469 34.7014 215.705 35.1458C215.955 35.5903 216.295 35.9444 216.726 36.2083C217.17 36.4722 217.67 36.6042 218.226 36.6042Z" fill="#090B3B"/>
</svg>
