<svg width="360" height="347" viewBox="0 0 360 347" fill="none" xmlns="http://www.w3.org/2000/svg">
<path d="M359.561 336.061C360.146 335.475 360.146 334.525 359.561 333.939L350.015 324.393C349.429 323.808 348.479 323.808 347.893 324.393C347.308 324.979 347.308 325.929 347.893 326.515L356.379 335L347.893 343.485C347.308 344.071 347.308 345.021 347.893 345.607C348.479 346.192 349.429 346.192 350.015 345.607L359.561 336.061ZM1.5 0H0C0 92.2106 32.5046 176.356 93.6271 237.452C154.756 298.555 244.405 336.5 358.5 336.5V335V333.5C245.095 333.5 156.244 295.8 95.7479 235.33C35.2453 174.854 3 91.499 3 0H1.5Z" fill="#AEB1E7"/>
</svg>
