<svg width="314" height="196" viewBox="0 0 314 196" fill="none" xmlns="http://www.w3.org/2000/svg">
<path d="M310.304 191.736V176.449H3.5V191.736H310.304Z" fill="#AEB1E7" stroke="#090B3B" stroke-width="7"/>
<circle cx="158.685" cy="32.0935" r="28.5935" fill="#AEB1E7" stroke="#090B3B" stroke-width="7"/>
<path d="M115.854 30.9646C117.863 30.1832 120.508 30.3045 122.944 30.6179C125.581 30.9571 128.749 31.6421 132.243 32.5574C139.245 34.3916 147.896 37.2425 156.878 40.4597C174.86 46.901 194.457 54.9137 205.428 59.4978C212.095 62.2841 214.848 70.1108 211.602 76.4783C208.925 81.7269 202.928 84.3718 197.248 82.8083L148.558 69.406C140.649 67.2293 132.343 71.1926 129.059 78.7087L111.448 119.012L160.451 83.9119C171.464 76.0229 186.849 79.0545 194.046 90.532L231.486 150.243C238.633 161.641 230.44 176.448 216.986 176.448C211.659 176.448 206.636 173.967 203.397 169.737L168.56 124.227L107.751 171.502C103.627 174.708 98.5512 176.449 93.3271 176.449H68.7627C59.6733 176.449 50.2949 170.876 49.3975 160.601C47.7721 141.991 52.7764 114.25 63.7842 88.9968C74.7665 63.8022 92.1175 40.1981 115.854 30.9646Z" fill="#AEB1E7" stroke="#0A0C3C" stroke-width="7"/>
</svg>
