<svg width="303" height="314" viewBox="0 0 303 314" fill="none" xmlns="http://www.w3.org/2000/svg">
<rect x="141.216" y="3.5" width="143.266" height="227.621" fill="#AEB1E7" stroke="#090B3B" stroke-width="7"/>
<rect x="160.184" y="24.9634" width="105.331" height="161.734" fill="#090B3B" stroke="#090B3B" stroke-width="7"/>
<path d="M74.5 214.5C83.2474 214.5 89 223.168 89 232C89 240.832 83.2474 249.5 74.5 249.5C65.7526 249.5 60 240.832 60 232C60 223.168 65.7526 214.5 74.5 214.5Z" fill="#AEB1E7" stroke="#090B3B" stroke-width="7"/>
<path d="M215.5 234.5C224.247 234.5 230 243.168 230 252C230 260.832 224.247 269.5 215.5 269.5C206.753 269.5 201 260.832 201 252C201 243.168 206.753 234.5 215.5 234.5Z" fill="#AEB1E7" stroke="#090B3B" stroke-width="7"/>
<path d="M76.0147 255.694C79.1971 253.09 83.6816 252.587 87.7569 253.254C91.8639 253.926 96.0406 255.824 99.4931 258.648C102.946 261.472 105.265 264.889 106.086 268.249C106.901 271.583 106.287 275.252 103.105 277.855C99.9222 280.459 95.4377 280.961 91.3624 280.295C87.2555 279.623 83.0794 277.725 79.627 274.9C76.1745 272.076 73.8543 268.659 73.0329 265.3C72.2178 261.966 72.8325 258.297 76.0147 255.694Z" fill="#AEB1E7" stroke="#090B3B" stroke-width="7"/>
<path d="M106.208 282.409C108.535 279.112 112.738 277.758 116.618 277.553C120.582 277.344 124.948 278.243 128.922 280.12C132.896 281.997 136.031 284.641 137.791 287.553C139.515 290.405 140.182 294.06 137.855 297.357C135.528 300.654 131.325 302.009 127.445 302.213C123.481 302.423 119.115 301.524 115.141 299.647C111.167 297.77 108.032 295.126 106.272 292.213C104.548 289.361 103.881 285.706 106.208 282.409Z" fill="#AEB1E7" stroke="#090B3B" stroke-width="7"/>
<path d="M207.105 271.694C203.923 269.09 199.439 268.587 195.363 269.254C191.256 269.926 187.079 271.824 183.627 274.648C180.175 277.472 177.855 280.889 177.034 284.249C176.219 287.583 176.833 291.252 180.016 293.855C183.198 296.459 187.682 296.961 191.758 296.295C195.865 295.623 200.041 293.725 203.493 290.9C206.946 288.076 209.266 284.659 210.087 281.3C210.902 277.966 210.288 274.297 207.105 271.694Z" fill="#AEB1E7" stroke="#090B3B" stroke-width="7"/>
<path d="M175 299C175 294.993 172.189 292.049 169.136 290.305C165.983 288.503 161.862 287.5 157.5 287.5C153.138 287.5 149.017 288.503 145.864 290.305C142.811 292.049 140 294.993 140 299C140 303.007 142.811 305.951 145.864 307.695C149.017 309.497 153.138 310.5 157.5 310.5C161.862 310.5 165.983 309.497 169.136 307.695C172.189 305.951 175 303.007 175 299Z" fill="#AEB1E7" stroke="#090B3B" stroke-width="7"/>
<path d="M179.364 65.8931C184.767 65.8931 190.114 67.8237 193.856 71.2612C197.691 74.7827 199.862 79.9635 198.339 85.8716C196.838 91.6949 193.978 96.8812 190.395 100.667C186.856 104.405 182.296 107.084 177.405 107.084H141.473V203.169H3.5V100.084H83.6279L121.979 70.7319C126.08 67.5938 131.1 65.8931 136.263 65.8931H179.364Z" fill="#AEB1E7" stroke="#090B3B" stroke-width="7"/>
<rect x="219.082" y="65.8931" width="79.8748" height="33.4545" rx="16.7273" fill="#AEB1E7" stroke="#090B3B" stroke-width="7"/>
<rect x="207.602" y="97.8379" width="91.3551" height="33.4545" rx="16.7273" fill="#AEB1E7" stroke="#090B3B" stroke-width="7"/>
<rect x="222.077" y="129.783" width="76.8799" height="33.4545" rx="16.7273" fill="#AEB1E7" stroke="#090B3B" stroke-width="7"/>
<rect x="234.056" y="161.728" width="64.9005" height="33.4545" rx="16.7273" fill="#AEB1E7" stroke="#090B3B" stroke-width="7"/>
<rect x="43.8838" y="79.8687" width="59.4099" height="131.286" fill="#AEB1E7" stroke="#090B3B" stroke-width="7"/>
<circle cx="215.094" cy="207.655" r="10.482" fill="#090B3B"/>
</svg>
