<svg width="101" height="133" viewBox="0 0 101 133" fill="none" xmlns="http://www.w3.org/2000/svg">
<path d="M32.1602 20.25C31.0583 20.25 30.0629 19.9954 29.174 19.4861C28.2944 18.9769 27.5953 18.287 27.0768 17.4167C26.5676 16.5463 26.3129 15.5741 26.3129 14.5C26.3129 13.5463 26.512 12.6389 26.9102 11.7778C27.3083 10.9074 27.85 10.1343 28.5352 9.45833C29.2203 8.77315 30.0027 8.23611 30.8824 7.84722C31.762 7.44907 32.6879 7.25 33.6602 7.25C34.4842 7.25 35.2481 7.39352 35.9518 7.68056C36.6555 7.96759 37.2666 8.36574 37.7852 8.875L36.4935 11.5556C36.2065 10.9815 35.7898 10.5231 35.2435 10.1806C34.7065 9.83796 34.0907 9.66667 33.3963 9.66667C32.8129 9.66667 32.2527 9.79167 31.7157 10.0417C31.1787 10.2917 30.7018 10.6343 30.2852 11.0694C29.8777 11.4954 29.5537 11.9861 29.3129 12.5417C29.0722 13.088 28.9518 13.662 28.9518 14.2639C28.9518 14.9306 29.1046 15.537 29.4102 16.0833C29.7157 16.6204 30.1324 17.0463 30.6602 17.3611C31.1879 17.6759 31.7805 17.8333 32.4379 17.8333C33.225 17.8333 33.9565 17.6111 34.6324 17.1667C35.3176 16.713 35.8592 16.1435 36.2574 15.4583V18.9167C35.6648 19.3333 35.0166 19.662 34.3129 19.9028C33.6185 20.1343 32.9009 20.25 32.1602 20.25ZM41.6111 20.2778C40.8889 20.2778 40.2222 20.1111 39.6111 19.7778C39.0093 19.4352 38.5278 18.9676 38.1667 18.375C37.8056 17.7731 37.625 17.0926 37.625 16.3333C37.625 15.6852 37.7593 15.0648 38.0278 14.4722C38.2963 13.8796 38.6667 13.3519 39.1389 12.8889C39.6111 12.4259 40.1481 12.0602 40.75 11.7917C41.3519 11.5231 41.9861 11.3889 42.6528 11.3889C43.412 11.3889 44.088 11.5648 44.6806 11.9167C45.2824 12.2593 45.7546 12.7269 46.0972 13.3194C46.4491 13.912 46.625 14.5741 46.625 15.3056C46.625 15.9537 46.4861 16.5787 46.2083 17.1806C45.9398 17.7731 45.5694 18.3056 45.0972 18.7778C44.6343 19.2407 44.1019 19.6065 43.5 19.875C42.8981 20.1435 42.2685 20.2778 41.6111 20.2778ZM41.8611 18.1111C42.3148 18.1111 42.7269 17.9907 43.0972 17.75C43.4676 17.5093 43.7639 17.1944 43.9861 16.8056C44.2176 16.4074 44.3333 15.9907 44.3333 15.5556C44.3333 15 44.1528 14.5278 43.7917 14.1389C43.4306 13.75 42.963 13.5556 42.3889 13.5556C41.9444 13.5556 41.5324 13.6759 41.1528 13.9167C40.7824 14.1574 40.4815 14.4722 40.25 14.8611C40.0278 15.25 39.9167 15.6667 39.9167 16.1111C39.9167 16.6759 40.0972 17.1528 40.4583 17.5417C40.8287 17.9213 41.2963 18.1111 41.8611 18.1111ZM47 20L49.0833 11.6667H51.25L51.0556 12.4861C51.4074 12.1157 51.7963 11.8426 52.2222 11.6667C52.6574 11.4815 53.1019 11.3889 53.5556 11.3889C54.1574 11.3889 54.6528 11.5185 55.0417 11.7778C55.4398 12.0278 55.7315 12.3565 55.9167 12.7639C56.3148 12.3009 56.7685 11.9583 57.2778 11.7361C57.7963 11.5046 58.3241 11.3889 58.8611 11.3889C59.6481 11.3889 60.2639 11.5741 60.7083 11.9444C61.162 12.3056 61.4583 12.7731 61.5972 13.3472C61.7361 13.9213 61.7222 14.5278 61.5556 15.1667L60.3333 20H57.9167L59.1389 15.1944C59.2685 14.713 59.2315 14.2917 59.0278 13.9306C58.8333 13.5694 58.4815 13.3889 57.9722 13.3889C57.5741 13.3889 57.1991 13.5231 56.8472 13.7917C56.5046 14.0602 56.2593 14.4815 56.1111 15.0556L54.875 20H52.4583L53.6806 15.1944C53.8102 14.713 53.7731 14.2917 53.5694 13.9306C53.375 13.5694 53.0231 13.3889 52.5139 13.3889C52.1157 13.3889 51.7407 13.5231 51.3889 13.7917C51.037 14.0602 50.7917 14.4815 50.6528 15.0556L49.4167 20H47ZM66.8472 20.2778C66.0417 20.2778 65.3194 20.1065 64.6806 19.7639C64.0417 19.412 63.537 18.9398 63.1667 18.3472C62.8056 17.7546 62.625 17.0833 62.625 16.3333C62.625 15.6667 62.7593 15.037 63.0278 14.4444C63.3056 13.8426 63.6852 13.3148 64.1667 12.8611C64.6481 12.3981 65.2037 12.037 65.8333 11.7778C66.463 11.5185 67.1296 11.3889 67.8333 11.3889C68.7037 11.3889 69.4306 11.5833 70.0139 11.9722C70.6065 12.3611 71.0185 12.8889 71.25 13.5556C71.4907 14.2222 71.5046 14.9769 71.2917 15.8194L71.1111 16.5417H66.0278C65.8519 16.5417 65.6759 16.5324 65.5 16.5139C65.3241 16.4954 65.1389 16.4676 64.9444 16.4306C65.0278 17.0139 65.2593 17.4676 65.6389 17.7917C66.0278 18.1157 66.5093 18.2778 67.0833 18.2778C67.5648 18.2778 68.0509 18.1528 68.5417 17.9028C69.0324 17.6528 69.3889 17.3519 69.6111 17V19.3889C69.2685 19.6574 68.8519 19.8704 68.3611 20.0278C67.8796 20.1944 67.375 20.2778 66.8472 20.2778ZM64.9444 14.9722C65.5093 14.8519 66.0139 14.7917 66.4583 14.7917H67.9306C68.1806 14.7917 68.412 14.8009 68.625 14.8194C68.8472 14.838 69.0602 14.8704 69.2639 14.9167C69.2269 14.4167 69.0463 14.0278 68.7222 13.75C68.4074 13.463 67.9769 13.3194 67.4306 13.3194C66.8657 13.3194 66.3611 13.4722 65.9167 13.7778C65.4722 14.0833 65.1481 14.4815 64.9444 14.9722ZM72.5621 20L74.1732 13.5833H72.6176L73.0898 11.6667H74.6871L75.3815 8.88889H77.7148L77.0343 11.6667H78.6732L78.201 13.5833H76.5898L74.9787 20H72.5621Z" fill="#AEB1E7"/>
<path d="M53.3391 123.437C41.1371 135.639 21.3536 135.639 9.15155 123.437C-3.05052 111.235 -3.05052 91.4514 9.15155 79.2493C11.349 77.0519 13.4063 75.4684 16.1873 73.1094C31.2798 60.3077 71.9019 39.0137 71.9019 39.0137L62.3329 55.7415L100.988 32.3203L73.9917 76.0176L89.4522 70.6951C89.4522 70.6951 61.7425 113.782 59.5449 116.57C57.3474 119.358 54.8697 121.906 53.3391 123.437Z" fill="#AEB1E7"/>
<path d="M46.7944 116.745C38.5791 124.96 25.2595 124.96 17.0443 116.745C8.829 108.529 8.829 95.2097 17.0443 86.9944C18.5237 85.5149 19.9088 84.4488 21.7812 82.8606C31.9425 74.2416 49.4074 62.8379 49.4074 62.8379L45.8591 76.2709L74.2457 59.0361L59.2921 86.9944L74.2457 83.114C74.2457 83.114 50.5841 112.357 49.6609 113.528C48.7377 114.699 47.8249 115.714 46.7944 116.745Z" fill="#924E8F"/>
<circle cx="31.4119" cy="101.869" r="12.926" fill="#FF5C75"/>
<circle cx="31.1581" cy="101.617" r="6.58974" fill="#F5FDA1"/>
</svg>
