<svg width="121" height="160" viewBox="0 0 121 160" fill="none" xmlns="http://www.w3.org/2000/svg">
<path d="M38.7018 20L41.8407 7.41667L45.799 14.4861L53.7852 6.75L50.4796 20H48.0629L49.049 16.0833C49.1509 15.7037 49.262 15.287 49.3824 14.8333C49.512 14.3704 49.6694 13.838 49.8546 13.2361C49.5213 13.662 49.2065 14.0278 48.9102 14.3333C48.6139 14.6296 48.3315 14.912 48.0629 15.1806L44.9379 18.2639L43.7157 15.8472C43.5583 15.5231 43.3639 15.1343 43.1324 14.6806C42.9009 14.2269 42.7065 13.7454 42.549 13.2361C42.4657 13.9954 42.3592 14.6574 42.2296 15.2222C42.1 15.7778 41.975 16.287 41.8546 16.75L41.0352 20H38.7018ZM57.3494 20.2778C56.6272 20.2778 55.9605 20.1111 55.3494 19.7778C54.7475 19.4352 54.2661 18.9676 53.9049 18.375C53.5438 17.7731 53.3633 17.0926 53.3633 16.3333C53.3633 15.6852 53.4975 15.0648 53.7661 14.4722C54.0346 13.8796 54.4049 13.3519 54.8772 12.8889C55.3494 12.4259 55.8864 12.0602 56.4883 11.7917C57.0901 11.5231 57.7244 11.3889 58.3911 11.3889C59.1503 11.3889 59.8262 11.5648 60.4188 11.9167C61.0207 12.2593 61.4929 12.7269 61.8355 13.3194C62.1874 13.912 62.3633 14.5741 62.3633 15.3056C62.3633 15.9537 62.2244 16.5787 61.9466 17.1806C61.6781 17.7731 61.3077 18.3056 60.8355 18.7778C60.3725 19.2407 59.8401 19.6065 59.2383 19.875C58.6364 20.1435 58.0068 20.2778 57.3494 20.2778ZM57.5994 18.1111C58.0531 18.1111 58.4651 17.9907 58.8355 17.75C59.2059 17.5093 59.5022 17.1944 59.7244 16.8056C59.9559 16.4074 60.0716 15.9907 60.0716 15.5556C60.0716 15 59.8911 14.5278 59.5299 14.1389C59.1688 13.75 58.7012 13.5556 58.1272 13.5556C57.6827 13.5556 57.2707 13.6759 56.8911 13.9167C56.5207 14.1574 56.2198 14.4722 55.9883 14.8611C55.7661 15.25 55.6549 15.6667 55.6549 16.1111C55.6549 16.6759 55.8355 17.1528 56.1966 17.5417C56.567 17.9213 57.0346 18.1111 57.5994 18.1111ZM67.3494 20.2778C66.6272 20.2778 65.9605 20.1111 65.3494 19.7778C64.7475 19.4352 64.2661 18.9676 63.9049 18.375C63.5438 17.7731 63.3633 17.0926 63.3633 16.3333C63.3633 15.6852 63.4975 15.0648 63.7661 14.4722C64.0346 13.8796 64.4049 13.3519 64.8772 12.8889C65.3494 12.4259 65.8864 12.0602 66.4883 11.7917C67.0901 11.5231 67.7244 11.3889 68.3911 11.3889C69.1503 11.3889 69.8262 11.5648 70.4188 11.9167C71.0207 12.2593 71.4929 12.7269 71.8355 13.3194C72.1874 13.912 72.3633 14.5741 72.3633 15.3056C72.3633 15.9537 72.2244 16.5787 71.9466 17.1806C71.6781 17.7731 71.3077 18.3056 70.8355 18.7778C70.3725 19.2407 69.8401 19.6065 69.2383 19.875C68.6364 20.1435 68.0068 20.2778 67.3494 20.2778ZM67.5994 18.1111C68.0531 18.1111 68.4651 17.9907 68.8355 17.75C69.2059 17.5093 69.5022 17.1944 69.7244 16.8056C69.9559 16.4074 70.0716 15.9907 70.0716 15.5556C70.0716 15 69.8911 14.5278 69.5299 14.1389C69.1688 13.75 68.7012 13.5556 68.1272 13.5556C67.6827 13.5556 67.2707 13.6759 66.8911 13.9167C66.5207 14.1574 66.2198 14.4722 65.9883 14.8611C65.7661 15.25 65.6549 15.6667 65.6549 16.1111C65.6549 16.6759 65.8355 17.1528 66.1966 17.5417C66.567 17.9213 67.0346 18.1111 67.5994 18.1111ZM72.7383 20L74.8216 11.6667H76.9883L76.7799 12.5556C77.1411 12.1574 77.5438 11.8657 77.9883 11.6806C78.442 11.4861 78.9049 11.3889 79.3772 11.3889C80.1272 11.3889 80.7198 11.5787 81.1549 11.9583C81.5994 12.3287 81.8911 12.8102 82.0299 13.4028C82.1688 13.9861 82.1549 14.6019 81.9883 15.25L80.7938 20H78.3772L79.5716 15.2778C79.7012 14.7778 79.6596 14.338 79.4466 13.9583C79.2429 13.5787 78.8725 13.3889 78.3355 13.3889C77.9188 13.3889 77.5299 13.5324 77.1688 13.8194C76.8077 14.0972 76.5485 14.537 76.3911 15.1389L75.1549 20H72.7383Z" fill="#AEB1E7"/>
<path d="M85.6323 88.6983C86.4434 86.1897 86.219 84.1092 84.9719 82.5758C83.7248 81.0424 81.4794 80.086 78.3639 79.7612C75.2484 79.4364 71.3238 79.7496 66.8142 80.6829C62.3046 81.6162 57.2983 83.1513 52.0812 85.2006C46.8641 87.2499 41.5383 89.7732 36.4079 92.6265C31.2775 95.4798 26.443 98.6072 22.1804 101.83C17.9178 105.053 14.3105 108.308 11.5646 111.41C8.81876 114.512 6.98798 117.4 6.17685 119.908L10.1496 118.348C10.8796 116.09 12.5273 113.491 14.9986 110.7C17.4699 107.908 20.7165 104.978 24.5528 102.077C28.3892 99.1768 32.7402 96.3622 37.3576 93.7942C41.9749 91.2262 46.7682 88.9552 51.4636 87.1109C56.159 85.2665 60.6646 83.8849 64.7232 83.0449C68.7819 82.205 72.314 81.9231 75.1179 82.2154C77.9219 82.5077 79.9427 83.3685 81.0652 84.7486C82.1876 86.1287 82.3895 88.001 81.6595 90.2588L85.6323 88.6983Z" fill="#924E8F"/>
<path d="M49.58 39.1304C53.267 37.0017 57.1024 35.3615 61.0101 34.1877C48.1112 50.8953 45.8064 74.4005 57.0138 93.8128C69.6976 115.782 95.5744 125.384 118.859 118.39C114.71 123.764 109.466 128.435 103.222 132.04C77.5652 146.853 44.7585 138.062 29.9458 112.406C15.1334 86.7499 23.9239 53.9431 49.58 39.1304Z" fill="#F5FDA1"/>
<path d="M85.6323 88.6983C84.8211 91.2069 82.9904 94.0946 80.2445 97.1964C77.4986 100.298 73.8913 103.554 69.6287 106.777C65.3661 110 60.5316 113.127 55.4012 115.98C50.2708 118.834 44.945 121.357 39.7279 123.406C34.5108 125.455 29.5045 126.991 24.9949 127.924C20.4853 128.857 16.5608 129.17 13.4453 128.846C10.3298 128.521 8.08435 127.564 6.83723 126.031C5.59012 124.497 5.36572 122.417 6.17685 119.908L10.1496 118.348C9.4196 120.606 9.62156 122.478 10.744 123.858C11.8664 125.238 13.8872 126.099 16.6912 126.391C19.4951 126.684 23.0273 126.402 27.0859 125.562C31.1445 124.722 35.6502 123.34 40.3456 121.496C45.041 119.651 49.8342 117.38 54.4515 114.813C59.0689 112.245 63.42 109.43 67.2563 106.529C71.0927 103.629 74.3392 100.699 76.8105 97.9071C79.2818 95.1154 80.9295 92.5165 81.6595 90.2588L85.6323 88.6983Z" fill="#924E8F"/>
<circle cx="87.4928" cy="142.507" r="2.08317" fill="#FF5C75"/>
<circle cx="95.8258" cy="147.715" r="2.08317" fill="#FF5C75"/>
<circle cx="107.283" cy="138.341" r="2.08317" fill="#FF5C75"/>
<path d="M103.157 144.119L104.026 145.458L105.569 145.045L104.564 146.286L105.433 147.625L103.943 147.052L102.938 148.293L103.021 146.699L101.531 146.127L103.073 145.713L103.157 144.119Z" fill="#AEB1E7"/>
<path d="M92.7411 154.533L93.6107 155.872L95.1531 155.459L94.1482 156.7L95.0179 158.039L93.5272 157.467L92.5223 158.707L92.6058 157.113L91.1151 156.541L92.6575 156.127L92.7411 154.533Z" fill="#AEB1E7"/>
<circle cx="56.6872" cy="63.0824" r="2.08317" transform="rotate(-4.52166 56.6872 63.0824)" fill="#FF5C75"/>
<circle cx="58.8171" cy="50.3763" r="2.08317" transform="rotate(-4.52166 58.8171 50.3763)" fill="#FF5C75"/>
<circle cx="46.2751" cy="50.3236" r="2.08317" transform="rotate(-4.52166 46.2751 50.3236)" fill="#FF5C75"/>
<path d="M47.4635 48.9052L48.4361 50.1717L49.9411 49.6381L49.0371 50.9544L50.0097 52.2208L48.4785 51.7679L47.5745 53.0842L47.5321 51.488L46.0009 51.035L47.5059 50.5015L47.4635 48.9052Z" fill="#AEB1E7"/>
<path d="M55.1559 62.5537L56.1285 63.8201L57.6335 63.2865L56.7295 64.6028L57.7021 65.8693L56.1709 65.4163L55.2669 66.7326L55.2245 65.1364L53.6933 64.6835L55.1983 64.1499L55.1559 62.5537Z" fill="#AEB1E7"/>
</svg>
