<svg width="124" height="210" viewBox="0 0 124 210" fill="none" xmlns="http://www.w3.org/2000/svg">
<path d="M15.2394 20.2778C14.4616 20.2778 13.7023 20.1019 12.9616 19.75C12.2208 19.3889 11.6607 18.9259 11.281 18.3611L12.6283 15.7083C12.7486 16.1343 12.957 16.5231 13.2533 16.875C13.5496 17.2269 13.8875 17.5093 14.2671 17.7222C14.656 17.9259 15.0496 18.0278 15.4477 18.0278C15.7718 18.0278 16.0634 17.9583 16.3227 17.8194C16.5912 17.6806 16.8042 17.4954 16.9616 17.2639C17.119 17.0324 17.1977 16.7731 17.1977 16.4861C17.1977 16.2176 17.1236 15.9722 16.9755 15.75C16.8273 15.5185 16.5912 15.2731 16.2671 15.0139L14.9894 14C14.332 13.4722 13.869 12.9954 13.6005 12.5694C13.3412 12.1343 13.2116 11.6435 13.2116 11.0972C13.2116 10.3657 13.3968 9.70833 13.7671 9.125C14.1375 8.54167 14.6375 8.0787 15.2671 7.73611C15.8968 7.39352 16.6005 7.22222 17.3783 7.22222C18.0727 7.22222 18.7533 7.36111 19.4199 7.63889C20.0958 7.91667 20.656 8.29167 21.1005 8.76389L19.8088 11.3611C19.5218 10.787 19.1329 10.3241 18.6421 9.97222C18.1607 9.62037 17.6607 9.44444 17.1421 9.44444C16.7162 9.44444 16.3597 9.56944 16.0727 9.81944C15.7857 10.0694 15.6421 10.3843 15.6421 10.7639C15.6421 10.9861 15.707 11.1944 15.8366 11.3889C15.9755 11.5741 16.2116 11.7917 16.5449 12.0417L17.8366 13.0139C18.4662 13.4769 18.9199 13.9537 19.1977 14.4444C19.4847 14.9259 19.6283 15.4676 19.6283 16.0694C19.6283 16.838 19.4292 17.5417 19.031 18.1806C18.6329 18.8194 18.1005 19.3287 17.4338 19.7083C16.7764 20.088 16.0449 20.2778 15.2394 20.2778ZM21.1773 20L22.7884 13.5833H21.2329L21.7051 11.6667H23.3023L23.9967 8.88889H26.3301L25.6495 11.6667H27.2884L26.8162 13.5833H25.2051L23.594 20H21.1773ZM30.4434 20.1944C29.786 20.1944 29.1887 20.0324 28.6517 19.7083C28.1239 19.375 27.7072 18.9259 27.4017 18.3611C27.0961 17.787 26.9434 17.1481 26.9434 16.4444C26.9434 15.7778 27.0776 15.1481 27.3461 14.5556C27.6147 13.9537 27.9758 13.4213 28.4295 12.9583C28.8924 12.4954 29.4156 12.1343 29.9989 11.875C30.5822 11.6065 31.1887 11.4722 31.8184 11.4722C32.3554 11.4722 32.8554 11.5694 33.3184 11.7639C33.7906 11.9491 34.1934 12.2176 34.5267 12.5694L34.7489 11.6667H36.8322L34.7628 20H32.6795L32.86 19.2917C32.5267 19.5602 32.1563 19.7778 31.7489 19.9444C31.3415 20.1111 30.9063 20.1944 30.4434 20.1944ZM31.11 18.0694C31.5545 18.0694 31.9619 17.9537 32.3322 17.7222C32.7026 17.4815 32.9989 17.1713 33.2211 16.7917C33.4434 16.4028 33.5545 15.9907 33.5545 15.5556C33.5545 15.1852 33.4711 14.8565 33.3045 14.5694C33.1471 14.2731 32.9248 14.0417 32.6378 13.875C32.3508 13.6991 32.0174 13.6111 31.6378 13.6111C31.1934 13.6111 30.786 13.7315 30.4156 13.9722C30.0452 14.2037 29.7489 14.5093 29.5267 14.8889C29.3045 15.2685 29.1934 15.6759 29.1934 16.1111C29.1934 16.4722 29.2721 16.8009 29.4295 17.0972C29.5961 17.3935 29.823 17.6296 30.11 17.8056C30.4063 17.9815 30.7397 18.0694 31.11 18.0694ZM36.5918 20L38.6751 11.6667H40.8418L40.5224 12.9583C40.9298 12.5139 41.3835 12.1759 41.8835 11.9444C42.3835 11.7037 42.9159 11.5833 43.4807 11.5833V13.7222C43.314 13.6667 43.1196 13.6389 42.8974 13.6389C42.2214 13.6389 41.6149 13.875 41.0779 14.3472C40.5409 14.8102 40.152 15.5231 39.9112 16.4861L39.0085 20H36.5918ZM54.3887 20.25C53.2868 20.25 52.2914 19.9954 51.4026 19.4861C50.5229 18.9769 49.8239 18.287 49.3053 17.4167C48.7961 16.5463 48.5414 15.5741 48.5414 14.5C48.5414 13.5463 48.7405 12.6389 49.1387 11.7778C49.5368 10.9074 50.0785 10.1343 50.7637 9.45833C51.4489 8.77315 52.2313 8.23611 53.1109 7.84722C53.9905 7.44907 54.9164 7.25 55.8887 7.25C56.7127 7.25 57.4766 7.39352 58.1803 7.68056C58.884 7.96759 59.4952 8.36574 60.0137 8.875L58.722 11.5556C58.435 10.9815 58.0183 10.5231 57.472 10.1806C56.935 9.83796 56.3192 9.66667 55.6248 9.66667C55.0414 9.66667 54.4813 9.79167 53.9442 10.0417C53.4072 10.2917 52.9303 10.6343 52.5137 11.0694C52.1063 11.4954 51.7822 11.9861 51.5414 12.5417C51.3007 13.088 51.1803 13.662 51.1803 14.2639C51.1803 14.9306 51.3331 15.537 51.6387 16.0833C51.9442 16.6204 52.3609 17.0463 52.8887 17.3611C53.4164 17.6759 54.009 17.8333 54.6664 17.8333C55.4535 17.8333 56.185 17.6111 56.8609 17.1667C57.5461 16.713 58.0877 16.1435 58.4859 15.4583V18.9167C57.8933 19.3333 57.2452 19.662 56.5415 19.9028C55.847 20.1343 55.1294 20.25 54.3887 20.25ZM59.2563 20L62.5896 6.66667H65.0063L61.673 20H59.2563ZM66.8587 20.2778C66.1087 20.2778 65.5115 20.0926 65.0671 19.7222C64.6319 19.3426 64.3448 18.8611 64.2059 18.2778C64.0763 17.6852 64.0902 17.0648 64.2476 16.4167L65.4421 11.6667H67.8587L66.6643 16.3889C66.5439 16.8889 66.5856 17.3287 66.7893 17.7083C66.993 18.088 67.3634 18.2778 67.9004 18.2778C68.3171 18.2778 68.7059 18.1389 69.0671 17.8611C69.4374 17.5741 69.6967 17.1296 69.8448 16.5278L71.0809 11.6667H73.4976L71.4143 20H69.2476L69.4559 19.1111C69.0948 19.5093 68.6874 19.8056 68.2337 20C67.7893 20.1852 67.3309 20.2778 66.8587 20.2778ZM76.3908 20.2778C75.7427 20.2778 75.1223 20.1389 74.5297 19.8611C73.9464 19.5833 73.5066 19.2361 73.2103 18.8194L74.3631 16.6389C74.576 17.1204 74.9094 17.5278 75.3631 17.8611C75.826 18.1944 76.2844 18.3611 76.7381 18.3611C77.0158 18.3611 77.2334 18.3009 77.3908 18.1806C77.5575 18.0509 77.6408 17.8843 77.6408 17.6806C77.6408 17.5231 77.5992 17.3935 77.5158 17.2917C77.4325 17.1806 77.289 17.0694 77.0853 16.9583L76.0297 16.375C75.5575 16.1065 75.1964 15.8102 74.9464 15.4861C74.6964 15.1528 74.5714 14.7593 74.5714 14.3056C74.5714 13.7963 74.7195 13.3241 75.0158 12.8889C75.3214 12.4444 75.7288 12.0833 76.2381 11.8056C76.7473 11.5278 77.3075 11.3889 77.9186 11.3889C78.5205 11.3889 79.0807 11.5231 79.5992 11.7917C80.127 12.0509 80.5205 12.3796 80.7797 12.7778L79.6964 14.875C79.4649 14.412 79.1455 14.037 78.7381 13.75C78.3307 13.4537 77.9279 13.3056 77.5297 13.3056C77.2705 13.3056 77.0621 13.3657 76.9047 13.4861C76.7566 13.6065 76.6825 13.7593 76.6825 13.9444C76.6825 14.0833 76.7195 14.2037 76.7936 14.3056C76.877 14.4074 77.002 14.5046 77.1686 14.5972L78.127 15.125C78.7566 15.4676 79.201 15.8056 79.4603 16.1389C79.7195 16.4722 79.8492 16.8611 79.8492 17.3056C79.8492 17.8241 79.6918 18.3102 79.377 18.7639C79.0714 19.2176 78.6547 19.5833 78.127 19.8611C77.6084 20.1389 77.0297 20.2778 76.3908 20.2778ZM81.5875 20L83.1986 13.5833H81.643L82.1152 11.6667H83.7125L84.4069 8.88889H86.7402L86.0597 11.6667H87.6986L87.2263 13.5833H85.6152L84.0041 20H81.5875ZM91.5757 20.2778C90.7702 20.2778 90.048 20.1065 89.4091 19.7639C88.7702 19.412 88.2656 18.9398 87.8952 18.3472C87.5341 17.7546 87.3535 17.0833 87.3535 16.3333C87.3535 15.6667 87.4878 15.037 87.7563 14.4444C88.0341 13.8426 88.4137 13.3148 88.8952 12.8611C89.3767 12.3981 89.9322 12.037 90.5618 11.7778C91.1915 11.5185 91.8581 11.3889 92.5618 11.3889C93.4322 11.3889 94.1591 11.5833 94.7424 11.9722C95.335 12.3611 95.747 12.8889 95.9785 13.5556C96.2193 14.2222 96.2331 14.9769 96.0202 15.8194L95.8396 16.5417H90.7563C90.5804 16.5417 90.4044 16.5324 90.2285 16.5139C90.0526 16.4954 89.8674 16.4676 89.673 16.4306C89.7563 17.0139 89.9878 17.4676 90.3674 17.7917C90.7563 18.1157 91.2378 18.2778 91.8118 18.2778C92.2933 18.2778 92.7794 18.1528 93.2702 17.9028C93.7609 17.6528 94.1174 17.3519 94.3396 17V19.3889C93.997 19.6574 93.5804 19.8704 93.0896 20.0278C92.6081 20.1944 92.1035 20.2778 91.5757 20.2778ZM89.673 14.9722C90.2378 14.8519 90.7424 14.7917 91.1868 14.7917H92.6591C92.9091 14.7917 93.1406 14.8009 93.3535 14.8194C93.5757 14.838 93.7887 14.8704 93.9924 14.9167C93.9554 14.4167 93.7748 14.0278 93.4507 13.75C93.1359 13.463 92.7054 13.3194 92.1591 13.3194C91.5943 13.3194 91.0896 13.4722 90.6452 13.7778C90.2007 14.0833 89.8767 14.4815 89.673 14.9722ZM96.3184 20L98.4017 11.6667H100.568L100.249 12.9583C100.656 12.5139 101.11 12.1759 101.61 11.9444C102.11 11.7037 102.642 11.5833 103.207 11.5833V13.7222C103.041 13.6667 102.846 13.6389 102.624 13.6389C101.948 13.6389 101.342 13.875 100.804 14.3472C100.267 14.8102 99.8785 15.5231 99.6378 16.4861L98.735 20H96.3184Z" fill="#AEB1E7"/>
<path d="M91.4877 78.8234C90.0734 77.4618 87.7904 77.1425 84.7689 77.8836C81.7474 78.6248 78.0466 80.4118 73.8778 83.1428C69.709 85.8738 65.1539 89.4952 60.4725 93.8003C55.7911 98.1054 51.0751 103.01 46.5938 108.234C42.1125 113.457 37.9536 118.898 34.3547 124.245C30.7557 129.592 27.7871 134.741 25.6183 139.398C23.4496 144.054 22.1232 148.127 21.7149 151.384C21.3065 154.641 21.8243 157.018 23.2385 158.38L26.651 154.402C25.3782 153.177 24.9122 151.037 25.2797 148.106C25.6472 145.175 26.841 141.509 28.7928 137.318C30.7447 133.127 33.4164 128.493 36.6555 123.681C39.8946 118.868 43.6376 113.972 47.6707 109.27C51.7039 104.569 55.9483 100.155 60.1616 96.2804C64.3748 92.4059 68.4744 89.1466 72.2263 86.6887C75.9782 84.2308 79.3089 82.6224 82.0283 81.9554C84.7477 81.2884 86.8024 81.5758 88.0752 82.8012L91.4877 78.8234Z" fill="#FF5C75"/>
<path d="M0.691895 121.708C31.9495 120.686 56.1402 95.1359 57.4992 33.8164C58.5865 95.1359 82.7771 120.175 114.307 121.197C82.7771 122.73 58.5865 147.257 57.4992 209.088C56.1402 147.257 31.9495 123.241 0.691895 121.708Z" fill="#F5FDA1"/>
<path d="M0 61.2708C11.0545 60.9113 19.6098 51.9234 20.0904 30.3525C20.4749 51.9234 29.0301 60.7315 40.1808 61.091C29.0301 61.6303 20.4749 70.2587 20.0904 92.0093C19.6098 70.2587 11.0545 61.8101 0 61.2708Z" fill="#F5FDA1"/>
<path d="M80.3613 168.659C92.3688 168.268 101.662 158.472 102.184 134.962C102.601 158.472 111.894 168.072 124.006 168.463C111.894 169.051 102.601 178.455 102.184 202.161C101.662 178.455 92.3688 169.247 80.3613 168.659Z" fill="#F5FDA1"/>
<path d="M91.4877 78.8234C92.9019 80.1849 93.4197 82.562 93.0113 85.819C92.603 89.0759 91.2766 93.1489 89.1078 97.8054C86.9391 102.462 83.9705 107.611 80.3715 112.958C76.7725 118.305 72.6137 123.746 68.1324 128.97C63.6511 134.193 58.9351 139.098 54.2537 143.403C49.5723 147.708 45.0172 151.329 40.8484 154.06C36.6796 156.791 32.9788 158.578 29.9573 159.32C26.9358 160.061 24.6527 159.741 23.2385 158.38L26.651 154.402C27.9238 155.627 29.9785 155.915 32.6979 155.248C35.4172 154.581 38.748 152.972 42.4999 150.514C46.2518 148.057 50.3514 144.797 54.5646 140.923C58.7779 137.048 63.0223 132.634 67.0554 127.933C71.0886 123.231 74.8316 118.335 78.0707 113.522C81.3098 108.71 83.9815 104.076 85.9334 99.8851C87.8852 95.6942 89.079 92.0285 89.4465 89.0972C89.814 86.166 89.348 84.0266 88.0752 82.8012L91.4877 78.8234Z" fill="#FF5C75"/>
<ellipse cx="84.5188" cy="81.617" rx="1.38555" ry="1.38555" fill="#A6FFD6"/>
<ellipse cx="92.1399" cy="96.1648" rx="1.38555" ry="1.38555" fill="#A6FFD6"/>
<ellipse cx="86.597" cy="101.708" rx="1.38555" ry="1.38555" fill="#A6FFD6"/>
<ellipse cx="120.543" cy="186.226" rx="1.38555" ry="1.38555" fill="#A6FFD6"/>
<ellipse cx="85.9046" cy="95.4725" rx="1.38555" ry="1.38555" fill="#A6FFD6"/>
<ellipse cx="112.229" cy="184.84" rx="1.38555" ry="1.38555" fill="#A6FFD6"/>
<ellipse cx="9.05514" cy="50.6164" rx="1.38555" ry="1.38555" transform="rotate(50.2196 9.05514 50.6164)" fill="#A6FFD6"/>
<ellipse cx="4.80172" cy="43.34" rx="1.38555" ry="1.38555" transform="rotate(50.2196 4.80172 43.34)" fill="#A6FFD6"/>
<ellipse cx="90.0613" cy="160.594" rx="1.38555" ry="1.38555" fill="#A6FFD6"/>
<ellipse cx="40.8733" cy="157.13" rx="1.38555" ry="1.38555" fill="#A6FFD6"/>
<ellipse cx="22.8621" cy="159.207" rx="1.38555" ry="1.38555" fill="#A6FFD6"/>
<ellipse cx="21.4764" cy="152.281" rx="1.38555" ry="1.38555" fill="#A6FFD6"/>
<ellipse cx="22.8621" cy="142.582" rx="1.38555" ry="1.38555" fill="#A6FFD6"/>
<ellipse cx="89.368" cy="75.3826" rx="1.38555" ry="1.38555" fill="#A6FFD6"/>
<ellipse cx="89.368" cy="89.2381" rx="1.38555" ry="1.38555" fill="#A6FFD6"/>
<ellipse cx="93.5242" cy="83.6961" rx="1.38555" ry="1.38555" fill="#A6FFD6"/>
<ellipse cx="79.6692" cy="145.398" rx="1.38555" ry="1.38555" fill="#A6FFD6"/>
<ellipse cx="92.1399" cy="152.973" rx="1.38555" ry="1.38555" fill="#A6FFD6"/>
<ellipse cx="84.5188" cy="152.326" rx="1.38555" ry="1.38555" fill="#A6FFD6"/>
<ellipse cx="112.921" cy="178.651" rx="1.38555" ry="1.38555" fill="#A6FFD6"/>
<ellipse cx="45.7229" cy="150.894" rx="1.38555" ry="1.38555" fill="#A6FFD6"/>
<ellipse cx="29.097" cy="150.894" rx="1.38555" ry="1.38555" fill="#A6FFD6"/>
<ellipse cx="32.5608" cy="162.673" rx="1.38555" ry="1.38555" fill="#A6FFD6"/>
<ellipse cx="25.6331" cy="135.653" rx="1.38555" ry="1.38555" fill="#A6FFD6"/>
<path d="M86.5498 92.3221L87.098 93.1663L88.0704 92.9058L87.4369 93.6881L87.9851 94.5323L87.0453 94.1716L86.4118 94.9539L86.4645 93.9486L85.5247 93.5879L86.4971 93.3273L86.5498 92.3221Z" fill="#AEB1E7"/>
<path d="M24.2011 135.274L24.7494 136.118L25.7217 135.858L25.0882 136.64L25.6365 137.484L24.6967 137.124L24.0632 137.906L24.1159 136.901L23.1761 136.54L24.1484 136.279L24.2011 135.274Z" fill="#AEB1E7"/>
<path d="M111.489 176.194L112.037 177.038L113.01 176.778L112.376 177.56L112.925 178.404L111.985 178.044L111.351 178.826L111.404 177.821L110.464 177.46L111.437 177.199L111.489 176.194Z" fill="#AEB1E7"/>
<path d="M85.164 151.254L85.7123 152.098L86.6846 151.837L86.0511 152.62L86.5994 153.464L85.6596 153.103L85.0261 153.886L85.0788 152.88L84.139 152.52L85.1113 152.259L85.164 151.254Z" fill="#AEB1E7"/>
<path d="M80.3154 143.633L80.8636 144.477L81.836 144.216L81.2025 144.999L81.7508 145.843L80.811 145.482L80.1775 146.264L80.2301 145.259L79.2903 144.898L80.2627 144.638L80.3154 143.633Z" fill="#AEB1E7"/>
<path d="M90.7065 76.3875L91.2548 77.2317L92.2271 76.9712L91.5936 77.7535L92.1419 78.5978L91.2021 78.237L90.5686 79.0193L90.6213 78.0141L89.6815 77.6533L90.6538 77.3928L90.7065 76.3875Z" fill="#AEB1E7"/>
<path d="M89.3208 160.213L89.869 161.057L90.8414 160.796L90.2079 161.579L90.7561 162.423L89.8163 162.062L89.1828 162.845L89.2355 161.839L88.2957 161.479L89.2681 161.218L89.3208 160.213Z" fill="#AEB1E7"/>
<ellipse cx="34.639" cy="92.702" rx="1.38555" ry="1.38555" fill="#A6FFD6"/>
<ellipse cx="36.7176" cy="85.0809" rx="1.38555" ry="1.38555" fill="#A6FFD6"/>
<ellipse cx="29.097" cy="84.4344" rx="1.38555" ry="1.38555" fill="#A6FFD6"/>
<path d="M29.7421 83.3621L30.2904 84.2064L31.2628 83.9458L30.6293 84.7281L31.1775 85.5724L30.2377 85.2116L29.6042 85.994L29.6569 84.9887L28.7171 84.6279L29.6895 84.3674L29.7421 83.3621Z" fill="#AEB1E7"/>
<path d="M33.8989 92.3221L34.4471 93.1663L35.4195 92.9058L34.786 93.6881L35.3343 94.5323L34.3945 94.1716L33.761 94.9539L33.8136 93.9486L32.8738 93.5879L33.8462 93.3273L33.8989 92.3221Z" fill="#AEB1E7"/>
<path d="M29.0498 150.514L29.598 151.359L30.5704 151.098L29.9369 151.88L30.4851 152.725L29.5453 152.364L28.9118 153.146L28.9645 152.141L28.0247 151.78L28.9971 151.52L29.0498 150.514Z" fill="#AEB1E7"/>
</svg>
