<svg width="168" height="101" viewBox="0 0 168 101" fill="none" xmlns="http://www.w3.org/2000/svg">
<path d="M0 17.25C0 7.72309 7.72309 0 17.25 0H71.25C80.7769 0 88.5 7.72309 88.5 17.25C88.5 26.7769 80.7769 34.5 71.25 34.5H32.75H17.25C7.72309 34.5 0 26.7769 0 17.25Z" fill="#AEB1E7"/>
<path d="M13.1966 23L16.3216 10.5H19.0299C19.7799 10.5 20.4466 10.6528 21.0299 10.9583C21.6133 11.2546 22.0716 11.6713 22.4049 12.2083C22.7383 12.7361 22.9049 13.3519 22.9049 14.0556C22.9049 14.6759 22.7753 15.2593 22.5161 15.8056C22.2568 16.3519 21.9003 16.838 21.4466 17.2639C21.0022 17.6806 20.4883 18.0093 19.9049 18.25C19.3216 18.4907 18.7012 18.6111 18.0438 18.6111H15.8772L14.7799 23H13.1966ZM16.2383 17.1944H18.0716C18.6827 17.1944 19.2337 17.0602 19.7244 16.7917C20.2151 16.5139 20.604 16.1481 20.8911 15.6944C21.1781 15.2315 21.3216 14.7315 21.3216 14.1944C21.3216 13.5185 21.0855 12.9722 20.6133 12.5556C20.1503 12.1296 19.5253 11.9167 18.7383 11.9167H17.5577L16.2383 17.1944ZM26.1549 23.1667C25.4049 23.1667 24.8077 22.9861 24.3633 22.625C23.9188 22.2546 23.6272 21.7731 23.4883 21.1806C23.3587 20.5787 23.3818 19.9259 23.5577 19.2222L24.6966 14.6667H26.1966L25.0716 19.1944C24.8957 19.9259 24.9327 20.5648 25.1827 21.1111C25.4327 21.6481 25.9281 21.9167 26.6688 21.9167C27.2522 21.9167 27.8124 21.7083 28.3494 21.2917C28.8957 20.8657 29.2707 20.2546 29.4744 19.4583L30.6966 14.6667H32.1966L30.1133 23H28.7244L29.0161 21.8194C28.6179 22.2731 28.1688 22.6111 27.6688 22.8333C27.1688 23.0556 26.6642 23.1667 26.1549 23.1667ZM32.7799 23L34.8633 14.6667H36.2522L35.8772 16.1944C36.2938 15.7037 36.7799 15.3148 37.3355 15.0278C37.9003 14.7315 38.5161 14.5833 39.1827 14.5833V16.0833C39.0161 16.0278 38.817 16 38.5855 16C37.8262 16 37.1503 16.2593 36.5577 16.7778C35.9744 17.287 35.5485 18.0648 35.2799 19.1111L34.2799 23H32.7799ZM37.9883 27.1667L41.1133 14.6667H42.5022L42.2105 15.7778C42.5809 15.4074 43.0022 15.1111 43.4744 14.8889C43.9466 14.6667 44.4466 14.5556 44.9744 14.5556C45.6133 14.5556 46.2012 14.7222 46.7383 15.0556C47.2846 15.3796 47.7198 15.8241 48.0438 16.3889C48.3772 16.9537 48.5438 17.5972 48.5438 18.3194C48.5438 18.9491 48.4142 19.5509 48.1549 20.125C47.9049 20.6991 47.5577 21.213 47.1133 21.6667C46.6688 22.1111 46.1596 22.463 45.5855 22.7222C45.0207 22.9815 44.4235 23.1111 43.7938 23.1111C43.2012 23.1111 42.6503 22.9861 42.1411 22.7361C41.6318 22.4861 41.2012 22.1481 40.8494 21.7222L39.4883 27.1667H37.9883ZM43.8077 21.75C44.3633 21.75 44.8818 21.5972 45.3633 21.2917C45.854 20.9769 46.2522 20.5694 46.5577 20.0694C46.8633 19.5694 47.0161 19.037 47.0161 18.4722C47.0161 18.0093 46.9096 17.588 46.6966 17.2083C46.4929 16.8194 46.2059 16.5093 45.8355 16.2778C45.4744 16.037 45.0485 15.9167 44.5577 15.9167C44.0022 15.9167 43.479 16.0741 42.9883 16.3889C42.5068 16.6944 42.1133 17.0972 41.8077 17.5972C41.5022 18.088 41.3494 18.6204 41.3494 19.1944C41.3494 19.6481 41.4512 20.0694 41.6549 20.4583C41.8679 20.8472 42.1596 21.162 42.5299 21.4028C42.9003 21.6343 43.3262 21.75 43.8077 21.75ZM53.9102 23.1667C53.1879 23.1667 52.5352 23 51.9518 22.6667C51.3685 22.3333 50.9009 21.8796 50.549 21.3056C50.2065 20.7222 50.0352 20.0694 50.0352 19.3472C50.0352 18.7083 50.1648 18.0972 50.424 17.5139C50.6926 16.9306 51.0537 16.4167 51.5074 15.9722C51.9703 15.5185 52.4935 15.162 53.0768 14.9028C53.6694 14.6343 54.2898 14.5 54.9379 14.5C55.6602 14.5 56.3129 14.6667 56.8963 15C57.4796 15.3333 57.9426 15.787 58.2852 16.3611C58.637 16.9352 58.8129 17.588 58.8129 18.3194C58.8129 18.9583 58.6787 19.5694 58.4102 20.1528C58.1509 20.7361 57.7898 21.2546 57.3268 21.7083C56.8731 22.1528 56.35 22.5093 55.7574 22.7778C55.174 23.037 54.5583 23.1667 53.9102 23.1667ZM54.0629 21.75C54.6277 21.75 55.1509 21.5972 55.6324 21.2917C56.1231 20.9861 56.5213 20.5833 56.8268 20.0833C57.1324 19.5833 57.2852 19.0463 57.2852 18.4722C57.2852 17.7685 57.0537 17.1667 56.5907 16.6667C56.1277 16.1667 55.5259 15.9167 54.7852 15.9167C54.2296 15.9167 53.7065 16.0694 53.2157 16.375C52.725 16.6806 52.3268 17.0833 52.0213 17.5833C51.7157 18.0833 51.5629 18.6204 51.5629 19.1944C51.5629 19.8981 51.7944 20.5 52.2574 21C52.7296 21.5 53.3315 21.75 54.0629 21.75ZM62.378 23.1111C61.8317 23.1111 61.3086 22.9861 60.8086 22.7361C60.3179 22.4769 59.9475 22.1435 59.6975 21.7361L60.503 20.1667C60.6604 20.6667 60.929 21.0741 61.3086 21.3889C61.6975 21.7037 62.1234 21.8611 62.5864 21.8611C62.9753 21.8611 63.304 21.7454 63.5725 21.5139C63.841 21.2731 63.9753 20.9815 63.9753 20.6389C63.9753 20.4259 63.9151 20.2454 63.7947 20.0972C63.6743 19.9398 63.4938 19.787 63.253 19.6389L62.3364 19.0972C61.9104 18.8472 61.5864 18.5648 61.3641 18.25C61.1512 17.9352 61.0447 17.5741 61.0447 17.1667C61.0447 16.6944 61.1697 16.2593 61.4197 15.8611C61.679 15.463 62.0216 15.1435 62.4475 14.9028C62.8827 14.662 63.3641 14.5417 63.8919 14.5417C64.4104 14.5417 64.8966 14.662 65.3503 14.9028C65.8132 15.1343 66.1558 15.4398 66.378 15.8194L65.5725 17.3889C65.4429 16.9074 65.2067 16.5231 64.8641 16.2361C64.5216 15.9491 64.1419 15.8056 63.7253 15.8056C63.3549 15.8056 63.0447 15.9167 62.7947 16.1389C62.5447 16.3519 62.4197 16.6111 62.4197 16.9167C62.4197 17.1204 62.4753 17.3009 62.5864 17.4583C62.6975 17.6065 62.8364 17.7315 63.003 17.8333L63.9891 18.4028C64.4336 18.662 64.7716 18.9491 65.003 19.2639C65.2345 19.5787 65.3503 19.9537 65.3503 20.3889C65.3503 20.8704 65.216 21.3194 64.9475 21.7361C64.679 22.1528 64.3179 22.4861 63.8641 22.7361C63.4197 22.9861 62.9243 23.1111 62.378 23.1111ZM71.3845 23.1667C70.6253 23.1667 69.9447 23 69.3429 22.6667C68.741 22.3333 68.2642 21.8796 67.9123 21.3056C67.5697 20.7222 67.3984 20.0694 67.3984 19.3472C67.3984 18.7083 67.5327 18.0972 67.8012 17.5139C68.0697 16.9306 68.4355 16.4167 68.8984 15.9722C69.3707 15.5185 69.9123 15.162 70.5234 14.9028C71.1345 14.6343 71.7827 14.5 72.4679 14.5C73.3197 14.5 74.0327 14.6991 74.6068 15.0972C75.1808 15.4861 75.5836 15.9954 75.8151 16.625C76.0466 17.2546 76.0744 17.9259 75.8984 18.6389L75.7457 19.25H70.3012C70.0697 19.25 69.8383 19.2407 69.6068 19.2222C69.3845 19.2037 69.1577 19.1806 68.9262 19.1528C68.9355 19.8843 69.1762 20.5 69.6484 21C70.1207 21.5 70.741 21.75 71.5095 21.75C72.0929 21.75 72.6299 21.6019 73.1207 21.3056C73.6207 21.0093 74.0142 20.6296 74.3012 20.1667V22.1806C73.8938 22.4861 73.4401 22.7269 72.9401 22.9028C72.4494 23.0787 71.9308 23.1667 71.3845 23.1667ZM69.0095 18.125C69.5558 18.0417 70.0883 18 70.6068 18H73.3707C73.5744 18 73.7734 18.0093 73.9679 18.0278C74.1623 18.037 74.3568 18.0509 74.5512 18.0694C74.579 17.4398 74.3753 16.912 73.9401 16.4861C73.5142 16.0509 72.9355 15.8333 72.204 15.8333C71.4633 15.8333 70.8012 16.0556 70.2179 16.5C69.6345 16.9352 69.2318 17.4769 69.0095 18.125Z" fill="#090B3B"/>
<path d="M0 61.25C0 51.7231 7.72309 44 17.25 44H150.25C159.777 44 167.5 51.7231 167.5 61.25C167.5 70.7769 159.777 78.5 150.25 78.5H105.5H72.3125H59.125L45.9375 100.5L32.75 78.5H17.25C7.72309 78.5 0 70.7769 0 61.25Z" fill="#AEB1E7"/>
<path d="M20.0677 68L23.1927 55.4167L26.8872 63.0972L34.8594 54.75L31.5816 67.9444H29.9983L31.5122 61.8889C31.5955 61.5463 31.6881 61.1759 31.7899 60.7778C31.901 60.3796 32.0353 59.9352 32.1927 59.4444C31.8316 59.8704 31.4936 60.25 31.1788 60.5833C30.864 60.9167 30.5723 61.2269 30.3038 61.5139L26.3455 65.6667L24.6649 62.1806C24.4983 61.8287 24.3177 61.4352 24.1233 61C23.9381 60.5556 23.7483 60.037 23.5538 59.4444C23.4612 60.1019 23.3594 60.6852 23.2483 61.1944C23.1372 61.6944 23.0307 62.1481 22.9288 62.5556L21.5677 68H20.0677ZM39.0955 68.1667C38.3362 68.1667 37.6557 68 37.0538 67.6667C36.452 67.3333 35.9751 66.8796 35.6233 66.3056C35.2807 65.7222 35.1094 65.0694 35.1094 64.3472C35.1094 63.7083 35.2436 63.0972 35.5122 62.5139C35.7807 61.9306 36.1464 61.4167 36.6094 60.9722C37.0816 60.5185 37.6233 60.162 38.2344 59.9028C38.8455 59.6343 39.4936 59.5 40.1788 59.5C41.0307 59.5 41.7436 59.6991 42.3177 60.0972C42.8918 60.4861 43.2946 60.9954 43.526 61.625C43.7575 62.2546 43.7853 62.9259 43.6094 63.6389L43.4566 64.25H38.0122C37.7807 64.25 37.5492 64.2407 37.3177 64.2222C37.0955 64.2037 36.8686 64.1806 36.6372 64.1528C36.6464 64.8843 36.8872 65.5 37.3594 66C37.8316 66.5 38.452 66.75 39.2205 66.75C39.8038 66.75 40.3409 66.6019 40.8316 66.3056C41.3316 66.0093 41.7251 65.6296 42.0122 65.1667V67.1806C41.6047 67.4861 41.151 67.7269 40.651 67.9028C40.1603 68.0787 39.6418 68.1667 39.0955 68.1667ZM36.7205 63.125C37.2668 63.0417 37.7992 63 38.3177 63H41.0816C41.2853 63 41.4844 63.0093 41.6788 63.0278C41.8733 63.037 42.0677 63.0509 42.2622 63.0694C42.2899 62.4398 42.0862 61.912 41.651 61.4861C41.2251 61.0509 40.6464 60.8333 39.9149 60.8333C39.1742 60.8333 38.5122 61.0556 37.9288 61.5C37.3455 61.9352 36.9427 62.4769 36.7205 63.125ZM44.5143 68L46.5977 59.6667H47.9865L47.6949 60.8472C48.093 60.3935 48.5421 60.0556 49.0421 59.8333C49.5421 59.6111 50.0467 59.5 50.556 59.5C51.306 59.5 51.9032 59.6852 52.3477 60.0556C52.7921 60.4167 53.0791 60.8981 53.2088 61.5C53.3477 62.0926 53.3291 62.7407 53.1532 63.4444L52.0143 68H50.5143L51.6393 63.4722C51.8245 62.7315 51.7875 62.0926 51.5282 61.5556C51.2782 61.0185 50.7828 60.75 50.0421 60.75C49.4588 60.75 48.894 60.963 48.3477 61.3889C47.8106 61.8056 47.4402 62.412 47.2365 63.2083L46.0143 68H44.5143ZM55.2131 68L56.977 60.9167H55.0881L55.4076 59.6667H57.3242L58.0048 56.8889H59.4214L58.7409 59.6667H60.8242L60.5048 60.9167H58.477L56.7131 68H55.2131ZM64.3819 68.1111C63.7431 68.1111 63.1505 67.9491 62.6042 67.625C62.0671 67.2917 61.6319 66.8426 61.2986 66.2778C60.9745 65.7037 60.8125 65.0602 60.8125 64.3472C60.8125 63.7176 60.9421 63.1157 61.2014 62.5417C61.4606 61.9676 61.8125 61.4583 62.2569 61.0139C62.7014 60.5602 63.206 60.2037 63.7708 59.9444C64.3449 59.6852 64.9421 59.5556 65.5625 59.5556C66.1921 59.5556 66.7662 59.6898 67.2847 59.9583C67.8125 60.2269 68.2477 60.5926 68.5903 61.0556L68.9375 59.6667H70.3264L68.2431 68H66.8542L67.1458 66.8889C66.7755 67.2593 66.3542 67.5556 65.8819 67.7778C65.4097 68 64.9097 68.1111 64.3819 68.1111ZM64.7986 66.75C65.3542 66.75 65.8727 66.5972 66.3542 66.2917C66.8449 65.9769 67.2431 65.5694 67.5486 65.0694C67.8542 64.5694 68.0069 64.037 68.0069 63.4722C68.0069 63.0093 67.9005 62.588 67.6875 62.2083C67.4838 61.8194 67.1968 61.5093 66.8264 61.2778C66.4653 61.037 66.0394 60.9167 65.5486 60.9167C64.9931 60.9167 64.4699 61.0741 63.9792 61.3889C63.4977 61.6944 63.1042 62.0972 62.7986 62.5972C62.4931 63.088 62.3403 63.6204 62.3403 64.1944C62.3403 64.6481 62.4421 65.0694 62.6458 65.4583C62.8588 65.8472 63.1505 66.162 63.5208 66.4028C63.8912 66.6343 64.3171 66.75 64.7986 66.75ZM70.901 68L74.2344 54.6667H75.7344L72.401 68H70.901ZM82.7769 68.4167L81.1797 55.5H82.6797L83.638 63C83.6751 63.2593 83.6982 63.5093 83.7075 63.75C83.7167 63.9815 83.7214 64.2593 83.7214 64.5833C83.8695 64.2593 84.0038 63.9815 84.1241 63.75C84.2538 63.5093 84.3973 63.2593 84.5547 63L89.388 55.0833L90.263 63C90.2908 63.2315 90.3139 63.4676 90.3325 63.7083C90.3602 63.9398 90.3649 64.2315 90.3464 64.5833C90.5038 64.2315 90.6473 63.9398 90.7769 63.7083C90.9065 63.4676 91.0454 63.2315 91.1936 63L95.9019 55.5H97.513L89.4852 68.4167L88.638 60.3056C88.6102 60.0648 88.5871 59.8333 88.5686 59.6111C88.5501 59.3796 88.5454 59.088 88.5547 58.7361C88.3973 59.088 88.2538 59.3796 88.1241 59.6111C88.0038 59.8333 87.8695 60.0648 87.7214 60.3056L82.7769 68.4167ZM99.076 68.1667C98.3167 68.1667 97.6361 68 97.0343 67.6667C96.4324 67.3333 95.9556 66.8796 95.6037 66.3056C95.2611 65.7222 95.0898 65.0694 95.0898 64.3472C95.0898 63.7083 95.2241 63.0972 95.4926 62.5139C95.7611 61.9306 96.1269 61.4167 96.5898 60.9722C97.0621 60.5185 97.6037 60.162 98.2148 59.9028C98.826 59.6343 99.4741 59.5 100.159 59.5C101.011 59.5 101.724 59.6991 102.298 60.0972C102.872 60.4861 103.275 60.9954 103.507 61.625C103.738 62.2546 103.766 62.9259 103.59 63.6389L103.437 64.25H97.9926C97.7611 64.25 97.5297 64.2407 97.2982 64.2222C97.076 64.2037 96.8491 64.1806 96.6176 64.1528C96.6269 64.8843 96.8676 65.5 97.3398 66C97.8121 66.5 98.4324 66.75 99.201 66.75C99.7843 66.75 100.321 66.6019 100.812 66.3056C101.312 66.0093 101.706 65.6296 101.993 65.1667V67.1806C101.585 67.4861 101.132 67.7269 100.632 67.9028C100.141 68.0787 99.6223 68.1667 99.076 68.1667ZM96.701 63.125C97.2473 63.0417 97.7797 63 98.2982 63H101.062C101.266 63 101.465 63.0093 101.659 63.0278C101.854 63.037 102.048 63.0509 102.243 63.0694C102.27 62.4398 102.067 61.912 101.632 61.4861C101.206 61.0509 100.627 60.8333 99.8954 60.8333C99.1547 60.8333 98.4926 61.0556 97.9093 61.5C97.326 61.9352 96.9232 62.4769 96.701 63.125ZM104.495 68L107.828 54.6667H109.328L105.995 68H104.495ZM108.655 68L111.988 54.6667H113.488L110.155 68H108.655ZM117.579 68.1111C116.959 68.1111 116.385 67.9769 115.857 67.7083C115.329 67.4398 114.894 67.0741 114.551 66.6111L114.204 68H112.815L116.148 54.6667H117.648L116.135 60.6389C116.486 60.3148 116.885 60.0556 117.329 59.8611C117.783 59.6574 118.26 59.5556 118.76 59.5556C119.398 59.5556 119.986 59.7222 120.523 60.0556C121.07 60.3796 121.505 60.8241 121.829 61.3889C122.162 61.9537 122.329 62.5972 122.329 63.3194C122.329 63.9491 122.199 64.5509 121.94 65.125C121.69 65.6991 121.343 66.213 120.898 66.6667C120.454 67.1111 119.945 67.463 119.371 67.7222C118.806 67.9815 118.209 68.1111 117.579 68.1111ZM117.593 66.75C118.148 66.75 118.667 66.5972 119.148 66.2917C119.639 65.9769 120.037 65.5694 120.343 65.0694C120.648 64.5694 120.801 64.037 120.801 63.4722C120.801 63.0093 120.695 62.588 120.482 62.2083C120.278 61.8194 119.991 61.5093 119.621 61.2778C119.26 61.037 118.834 60.9167 118.343 60.9167C117.787 60.9167 117.264 61.0741 116.773 61.3889C116.292 61.6944 115.898 62.0972 115.593 62.5972C115.287 63.088 115.135 63.6204 115.135 64.1944C115.135 64.6481 115.236 65.0694 115.44 65.4583C115.653 65.8472 115.945 66.162 116.315 66.4028C116.685 66.6343 117.111 66.75 117.593 66.75ZM127.806 68.1667C127.047 68.1667 126.367 68 125.765 67.6667C125.163 67.3333 124.686 66.8796 124.334 66.3056C123.992 65.7222 123.82 65.0694 123.82 64.3472C123.82 63.7083 123.955 63.0972 124.223 62.5139C124.492 61.9306 124.857 61.4167 125.32 60.9722C125.793 60.5185 126.334 60.162 126.945 59.9028C127.556 59.6343 128.205 59.5 128.89 59.5C129.742 59.5 130.455 59.6991 131.029 60.0972C131.603 60.4861 132.005 60.9954 132.237 61.625C132.468 62.2546 132.496 62.9259 132.32 63.6389L132.168 64.25H126.723C126.492 64.25 126.26 64.2407 126.029 64.2222C125.806 64.2037 125.58 64.1806 125.348 64.1528C125.357 64.8843 125.598 65.5 126.07 66C126.543 66.5 127.163 66.75 127.931 66.75C128.515 66.75 129.052 66.6019 129.543 66.3056C130.043 66.0093 130.436 65.6296 130.723 65.1667V67.1806C130.316 67.4861 129.862 67.7269 129.362 67.9028C128.871 68.0787 128.353 68.1667 127.806 68.1667ZM125.431 63.125C125.978 63.0417 126.51 63 127.029 63H129.793C129.996 63 130.195 63.0093 130.39 63.0278C130.584 63.037 130.779 63.0509 130.973 63.0694C131.001 62.4398 130.797 61.912 130.362 61.4861C129.936 61.0509 129.357 60.8333 128.626 60.8333C127.885 60.8333 127.223 61.0556 126.64 61.5C126.056 61.9352 125.654 62.4769 125.431 63.125ZM133.225 68L135.309 59.6667H136.809L134.725 68H133.225ZM136.572 58.1667C136.322 58.1667 136.11 58.0833 135.934 57.9167C135.767 57.75 135.684 57.5417 135.684 57.2917C135.684 56.9954 135.795 56.7361 136.017 56.5139C136.248 56.2824 136.508 56.1667 136.795 56.1667C137.045 56.1667 137.253 56.25 137.42 56.4167C137.596 56.5833 137.684 56.7917 137.684 57.0417C137.684 57.338 137.572 57.6019 137.35 57.8333C137.128 58.0556 136.869 58.1667 136.572 58.1667ZM137.385 68L139.469 59.6667H140.858L140.566 60.8472C140.964 60.3935 141.413 60.0556 141.913 59.8333C142.413 59.6111 142.918 59.5 143.427 59.5C144.177 59.5 144.774 59.6852 145.219 60.0556C145.663 60.4167 145.95 60.8981 146.08 61.5C146.219 62.0926 146.2 62.7407 146.024 63.4444L144.885 68H143.385L144.51 63.4722C144.696 62.7315 144.659 62.0926 144.399 61.5556C144.149 61.0185 143.654 60.75 142.913 60.75C142.33 60.75 141.765 60.963 141.219 61.3889C140.682 61.8056 140.311 62.412 140.108 63.2083L138.885 68H137.385ZM150.274 72.3333C149.848 72.3333 149.422 72.2778 148.997 72.1667C148.58 72.0556 148.182 71.8889 147.802 71.6667C147.422 71.4444 147.089 71.1667 146.802 70.8333L147.622 69.2222C147.862 69.787 148.237 70.213 148.747 70.5C149.265 70.7963 149.83 70.9444 150.441 70.9444C151.247 70.9444 151.959 70.6898 152.58 70.1806C153.2 69.6713 153.622 68.9907 153.844 68.1389L154.177 66.8889C153.807 67.2593 153.385 67.5556 152.913 67.7778C152.441 68 151.941 68.1111 151.413 68.1111C150.774 68.1111 150.182 67.9491 149.635 67.625C149.098 67.2917 148.663 66.8426 148.33 66.2778C148.006 65.7037 147.844 65.0602 147.844 64.3472C147.844 63.7176 147.973 63.1157 148.233 62.5417C148.492 61.9676 148.844 61.4583 149.288 61.0139C149.733 60.5602 150.237 60.2037 150.802 59.9444C151.376 59.6852 151.973 59.5556 152.594 59.5556C153.223 59.5556 153.797 59.6898 154.316 59.9583C154.844 60.2269 155.279 60.5926 155.622 61.0556L155.969 59.6667H157.358L155.177 68.3889C154.973 69.2222 154.622 69.9306 154.122 70.5139C153.622 71.1065 153.038 71.5556 152.372 71.8611C151.705 72.1759 151.006 72.3333 150.274 72.3333ZM151.83 66.75C152.385 66.75 152.904 66.5972 153.385 66.2917C153.876 65.9769 154.274 65.5694 154.58 65.0694C154.885 64.5694 155.038 64.037 155.038 63.4722C155.038 63.0093 154.932 62.588 154.719 62.2083C154.515 61.8194 154.228 61.5093 153.858 61.2778C153.497 61.037 153.071 60.9167 152.58 60.9167C152.024 60.9167 151.501 61.0741 151.01 61.3889C150.529 61.6944 150.135 62.0972 149.83 62.5972C149.524 63.088 149.372 63.6204 149.372 64.1944C149.372 64.6481 149.473 65.0694 149.677 65.4583C149.89 65.8472 150.182 66.162 150.552 66.4028C150.922 66.6343 151.348 66.75 151.83 66.75Z" fill="#090B3B"/>
</svg>
