<svg width="1070" height="42" viewBox="0 0 1070 42" fill="none" xmlns="http://www.w3.org/2000/svg">
<line x1="3.5" y1="3.5" x2="1066.5" y2="3.50009" stroke="#AEB1E7" stroke-width="7" stroke-linecap="round"/>
<path d="M28.7331 34.6152L31.8581 22.1152H34.4414L31.872 32.3652H35.622L35.0664 34.6152H28.7331ZM39.059 35.0319L36.6563 26.2819H39.1701L39.809 28.9625C39.8646 29.1939 39.9155 29.4254 39.9618 29.6569C40.0174 29.8791 40.059 30.1338 40.0868 30.4208C40.2627 30.1338 40.4294 29.8791 40.5868 29.6569C40.7442 29.4254 40.9109 29.1939 41.0868 28.9625L43.059 26.2819H45.7951L39.059 35.0319ZM45.1549 34.893C44.7938 34.893 44.4837 34.768 44.2244 34.518C43.9651 34.268 43.8355 33.9486 43.8355 33.5597C43.8355 33.1245 44.0022 32.7402 44.3355 32.4069C44.6781 32.0643 45.0716 31.893 45.5161 31.893C45.8957 31.893 46.2105 32.018 46.4605 32.268C46.7105 32.518 46.8355 32.8328 46.8355 33.2125C46.8355 33.6569 46.6642 34.0504 46.3216 34.393C45.9883 34.7263 45.5994 34.893 45.1549 34.893ZM49.1901 34.6152L49.6901 32.6152H52.329L54.1484 25.3652L51.1623 26.6986L51.8012 24.1708L57.4262 21.6708L54.6901 32.6152H56.7734L56.2734 34.6152H49.1901Z" fill="#AEB1E7"/>
<path d="M141.733 34.6152L144.858 22.1152H147.441L144.872 32.3652H148.622L148.066 34.6152H141.733ZM152.059 35.0319L149.656 26.2819H152.17L152.809 28.9625C152.865 29.1939 152.916 29.4254 152.962 29.6569C153.017 29.8791 153.059 30.1338 153.087 30.4208C153.263 30.1338 153.429 29.8791 153.587 29.6569C153.744 29.4254 153.911 29.1939 154.087 28.9625L156.059 26.2819H158.795L152.059 35.0319ZM158.155 34.893C157.794 34.893 157.484 34.768 157.224 34.518C156.965 34.268 156.836 33.9486 156.836 33.5597C156.836 33.1245 157.002 32.7402 157.336 32.4069C157.678 32.0643 158.072 31.893 158.516 31.893C158.896 31.893 159.211 32.018 159.461 32.268C159.711 32.518 159.836 32.8328 159.836 33.2125C159.836 33.6569 159.664 34.0504 159.322 34.393C158.988 34.7263 158.599 34.893 158.155 34.893ZM161.162 34.6152L168.037 27.3097C168.306 27.0319 168.523 26.7634 168.69 26.5041C168.866 26.2356 168.954 25.9347 168.954 25.6013C168.954 25.1939 168.81 24.8467 168.523 24.5597C168.246 24.2726 167.885 24.1291 167.44 24.1291C167.107 24.1291 166.797 24.2171 166.51 24.393C166.223 24.5689 165.991 24.805 165.815 25.1013C165.639 25.3976 165.551 25.7217 165.551 26.0736C165.551 26.5088 165.718 26.9578 166.051 27.4208H163.468C163.301 26.9856 163.218 26.555 163.218 26.1291C163.218 25.6013 163.334 25.0875 163.565 24.5875C163.806 24.0782 164.135 23.6245 164.551 23.2263C164.968 22.8189 165.445 22.4995 165.982 22.268C166.528 22.0273 167.102 21.9069 167.704 21.9069C168.398 21.9069 169.023 22.0643 169.579 22.3791C170.135 22.6847 170.574 23.106 170.898 23.643C171.232 24.1708 171.398 24.768 171.398 25.4347C171.398 26.0828 171.246 26.6569 170.94 27.1569C170.644 27.6569 170.213 28.1939 169.648 28.768L166.121 32.3652H169.912L169.357 34.6152H161.162Z" fill="#AEB1E7"/>
<path d="M267.733 34.6152L270.858 22.1152H273.441L270.872 32.3652H274.622L274.066 34.6152H267.733ZM278.059 35.0319L275.656 26.2819H278.17L278.809 28.9625C278.865 29.1939 278.916 29.4254 278.962 29.6569C279.017 29.8791 279.059 30.1338 279.087 30.4208C279.263 30.1338 279.429 29.8791 279.587 29.6569C279.744 29.4254 279.911 29.1939 280.087 28.9625L282.059 26.2819H284.795L278.059 35.0319ZM284.155 34.893C283.794 34.893 283.484 34.768 283.224 34.518C282.965 34.268 282.836 33.9486 282.836 33.5597C282.836 33.1245 283.002 32.7402 283.336 32.4069C283.678 32.0643 284.072 31.893 284.516 31.893C284.896 31.893 285.211 32.018 285.461 32.268C285.711 32.518 285.836 32.8328 285.836 33.2125C285.836 33.6569 285.664 34.0504 285.322 34.393C284.988 34.7263 284.599 34.893 284.155 34.893ZM291.093 34.893C290.297 34.893 289.547 34.6893 288.843 34.2819C288.139 33.8745 287.621 33.2819 287.287 32.5041L289.121 30.1986C289.121 30.6245 289.209 31.0273 289.385 31.4069C289.57 31.7773 289.824 32.0782 290.148 32.3097C290.482 32.5319 290.871 32.643 291.315 32.643C291.778 32.643 292.199 32.5273 292.579 32.2958C292.959 32.0643 293.26 31.7588 293.482 31.3791C293.713 30.9995 293.829 30.5875 293.829 30.143C293.829 29.6152 293.658 29.1708 293.315 28.8097C292.973 28.4393 292.463 28.2541 291.787 28.2541C291.584 28.2541 291.375 28.2726 291.162 28.3097C290.949 28.3467 290.727 28.4069 290.496 28.4902L293.773 24.2819H290.19L290.718 22.1152H297.968L294.26 26.8097C294.852 27.1245 295.324 27.5689 295.676 28.143C296.028 28.7078 296.204 29.3467 296.204 30.0597C296.204 30.7078 296.06 31.3236 295.773 31.9069C295.496 32.481 295.116 32.9949 294.635 33.4486C294.153 33.893 293.607 34.2449 292.996 34.5041C292.385 34.7634 291.75 34.893 291.093 34.893Z" fill="#AEB1E7"/>
<path d="M457.733 34.6152L460.858 22.1152H463.441L460.872 32.3652H464.622L464.066 34.6152H457.733ZM468.059 35.0319L465.656 26.2819H468.17L468.809 28.9625C468.865 29.1939 468.916 29.4254 468.962 29.6569C469.017 29.8791 469.059 30.1338 469.087 30.4208C469.263 30.1338 469.429 29.8791 469.587 29.6569C469.744 29.4254 469.911 29.1939 470.087 28.9625L472.059 26.2819H474.795L468.059 35.0319ZM474.155 34.893C473.794 34.893 473.484 34.768 473.224 34.518C472.965 34.268 472.836 33.9486 472.836 33.5597C472.836 33.1245 473.002 32.7402 473.336 32.4069C473.678 32.0643 474.072 31.893 474.516 31.893C474.896 31.893 475.211 32.018 475.461 32.268C475.711 32.518 475.836 32.8328 475.836 33.2125C475.836 33.6569 475.664 34.0504 475.322 34.393C474.988 34.7263 474.599 34.893 474.155 34.893ZM482.204 34.6152L482.926 31.6708H476.871L484.162 22.1152H486.801L480.968 29.6708H483.482L484.037 27.4486L486.551 26.2541L485.704 29.6708H487.176L486.676 31.6708H485.26L484.537 34.6152H482.204Z" fill="#AEB1E7"/>
<path d="M667.733 34.6152L670.858 22.1152H673.441L670.872 32.3652H674.622L674.066 34.6152H667.733ZM678.059 35.0319L675.656 26.2819H678.17L678.809 28.9625C678.865 29.1939 678.916 29.4254 678.962 29.6569C679.017 29.8791 679.059 30.1338 679.087 30.4208C679.263 30.1338 679.429 29.8791 679.587 29.6569C679.744 29.4254 679.911 29.1939 680.087 28.9625L682.059 26.2819H684.795L678.059 35.0319ZM684.155 34.893C683.794 34.893 683.484 34.768 683.224 34.518C682.965 34.268 682.836 33.9486 682.836 33.5597C682.836 33.1245 683.002 32.7402 683.336 32.4069C683.678 32.0643 684.072 31.893 684.516 31.893C684.896 31.893 685.211 32.018 685.461 32.268C685.711 32.518 685.836 32.8328 685.836 33.2125C685.836 33.6569 685.664 34.0504 685.322 34.393C684.988 34.7263 684.599 34.893 684.155 34.893ZM691.093 34.893C690.297 34.893 689.547 34.6893 688.843 34.2819C688.139 33.8745 687.621 33.2819 687.287 32.5041L689.121 30.1986C689.121 30.6245 689.209 31.0273 689.385 31.4069C689.57 31.7773 689.824 32.0782 690.148 32.3097C690.482 32.5319 690.871 32.643 691.315 32.643C691.769 32.643 692.185 32.5226 692.565 32.2819C692.954 32.0412 693.264 31.7263 693.496 31.3375C693.736 30.9393 693.857 30.5226 693.857 30.0875C693.857 29.7171 693.76 29.393 693.565 29.1152C693.38 28.8282 693.121 28.606 692.787 28.4486C692.463 28.2819 692.093 28.1986 691.676 28.1986C691.324 28.1986 690.977 28.2588 690.635 28.3791C690.301 28.4995 689.986 28.6662 689.69 28.8791L691.357 22.1152H697.44L696.912 24.2819H692.857L692.385 26.2125C692.431 26.2032 692.468 26.1986 692.496 26.1986C692.533 26.1986 692.56 26.1986 692.579 26.1986C693.19 26.1986 693.773 26.3467 694.329 26.643C694.894 26.9393 695.352 27.3652 695.704 27.9208C696.065 28.4671 696.246 29.1245 696.246 29.893C696.246 30.5504 696.107 31.18 695.829 31.7819C695.551 32.3838 695.172 32.9208 694.69 33.393C694.209 33.856 693.658 34.2217 693.037 34.4902C692.426 34.7588 691.778 34.893 691.093 34.893Z" fill="#AEB1E7"/>
<path d="M901.733 34.6152L904.858 22.1152H907.441L904.872 32.3652H908.622L908.066 34.6152H901.733ZM912.059 35.0319L909.656 26.2819H912.17L912.809 28.9625C912.865 29.1939 912.916 29.4254 912.962 29.6569C913.017 29.8791 913.059 30.1338 913.087 30.4208C913.263 30.1338 913.429 29.8791 913.587 29.6569C913.744 29.4254 913.911 29.1939 914.087 28.9625L916.059 26.2819H918.795L912.059 35.0319ZM918.155 34.893C917.794 34.893 917.484 34.768 917.224 34.518C916.965 34.268 916.836 33.9486 916.836 33.5597C916.836 33.1245 917.002 32.7402 917.336 32.4069C917.678 32.0643 918.072 31.893 918.516 31.893C918.896 31.893 919.211 32.018 919.461 32.268C919.711 32.518 919.836 32.8328 919.836 33.2125C919.836 33.6569 919.664 34.0504 919.322 34.393C918.988 34.7263 918.599 34.893 918.155 34.893ZM926.093 34.893C925.306 34.893 924.602 34.7263 923.982 34.393C923.361 34.0504 922.871 33.5875 922.51 33.0041C922.148 32.4115 921.968 31.7449 921.968 31.0041C921.968 29.9023 922.38 28.856 923.204 27.8652L927.94 22.1152H930.746L927.246 26.2263C927.283 26.2171 927.32 26.2125 927.357 26.2125C927.403 26.2032 927.445 26.1986 927.482 26.1986C928.121 26.1986 928.723 26.3606 929.287 26.6847C929.852 26.9995 930.306 27.4439 930.648 28.018C931 28.5828 931.176 29.2402 931.176 29.9902C931.176 30.6291 931.042 31.2402 930.773 31.8236C930.514 32.4069 930.148 32.93 929.676 33.393C929.213 33.856 928.672 34.2217 928.051 34.4902C927.44 34.7588 926.787 34.893 926.093 34.893ZM926.315 32.643C926.769 32.643 927.181 32.5273 927.551 32.2958C927.931 32.055 928.232 31.7495 928.454 31.3791C928.685 30.9995 928.801 30.6013 928.801 30.1847C928.801 29.6662 928.621 29.2217 928.26 28.8513C927.908 28.4717 927.435 28.2819 926.843 28.2819C926.389 28.2819 925.973 28.3976 925.593 28.6291C925.223 28.8606 924.922 29.1615 924.69 29.5319C924.468 29.9023 924.357 30.2958 924.357 30.7125C924.357 31.055 924.435 31.3745 924.593 31.6708C924.76 31.9578 924.991 32.1939 925.287 32.3791C925.584 32.555 925.926 32.643 926.315 32.643Z" fill="#AEB1E7"/>
</svg>
