<svg width="1287" height="45" viewBox="0 0 1287 45" fill="none" xmlns="http://www.w3.org/2000/svg">
<line x1="3.5" y1="3.5" x2="1283.5" y2="3.5" stroke="#AEB1E7" stroke-width="7" stroke-linecap="round"/>
<path d="M105.284 37.6628C104.516 37.6628 103.784 37.4452 103.09 37.01C102.395 36.5655 101.914 35.922 101.645 35.0794L102.979 33.3989C102.96 33.9266 103.044 34.4081 103.229 34.8433C103.423 35.2692 103.706 35.6118 104.076 35.8711C104.456 36.1211 104.909 36.2461 105.437 36.2461C106.02 36.2461 106.557 36.0979 107.048 35.8016C107.539 35.5054 107.932 35.1165 108.229 34.635C108.534 34.1535 108.687 33.635 108.687 33.0794C108.687 32.6257 108.576 32.2137 108.354 31.8433C108.141 31.4637 107.84 31.1628 107.451 30.9405C107.071 30.7091 106.627 30.5933 106.118 30.5933C105.719 30.5933 105.326 30.672 104.937 30.8294C104.557 30.9868 104.219 31.1998 103.923 31.4683L105.548 24.9961H111.187L110.84 26.4128H106.562L105.826 29.3711C105.956 29.3248 106.085 29.297 106.215 29.2878C106.354 29.2692 106.483 29.26 106.604 29.26C107.224 29.26 107.807 29.4128 108.354 29.7183C108.9 30.0146 109.344 30.4359 109.687 30.9822C110.039 31.5285 110.215 32.1674 110.215 32.8989C110.215 33.5378 110.081 34.1442 109.812 34.7183C109.553 35.2924 109.192 35.8016 108.729 36.2461C108.275 36.6813 107.752 37.0285 107.159 37.2878C106.567 37.5378 105.942 37.6628 105.284 37.6628ZM116.083 37.6628C115.398 37.6628 114.796 37.4776 114.278 37.1072C113.769 36.7276 113.37 36.1998 113.083 35.5239C112.806 34.8387 112.667 34.0424 112.667 33.135C112.667 32.0702 112.824 31.0424 113.139 30.0516C113.454 29.0609 113.88 28.172 114.417 27.385C114.954 26.5979 115.56 25.9776 116.236 25.5239C116.921 25.0609 117.63 24.8294 118.361 24.8294C119.398 24.8294 120.227 25.2415 120.847 26.0655C121.468 26.8804 121.778 27.9683 121.778 29.3294C121.778 30.4128 121.62 31.4544 121.306 32.4544C120.991 33.4452 120.565 34.3341 120.028 35.1211C119.5 35.8989 118.894 36.5192 118.208 36.9822C117.532 37.4359 116.824 37.6628 116.083 37.6628ZM116.222 36.2461C116.713 36.2461 117.194 36.0516 117.667 35.6628C118.139 35.2646 118.565 34.7322 118.944 34.0655C119.324 33.3989 119.625 32.6535 119.847 31.8294C120.079 31.0054 120.194 30.1628 120.194 29.3016C120.194 28.3387 120.023 27.5887 119.681 27.0516C119.338 26.5146 118.852 26.2461 118.222 26.2461C117.741 26.2461 117.264 26.4452 116.792 26.8433C116.319 27.2415 115.889 27.7739 115.5 28.4405C115.12 29.1072 114.815 29.8526 114.583 30.6766C114.361 31.4915 114.25 32.3248 114.25 33.1766C114.25 34.1118 114.431 34.8572 114.792 35.4128C115.153 35.9683 115.63 36.2461 116.222 36.2461Z" fill="#FF5C75"/>
<path d="M582.048 37.6628C581.344 37.6628 580.692 37.5054 580.09 37.1905C579.497 36.8665 579.02 36.422 578.659 35.8572C578.307 35.2924 578.132 34.6396 578.132 33.8989C578.132 32.8341 578.507 31.8433 579.257 30.9266L584.145 24.9961H586.02L582.201 29.51C582.405 29.4081 582.604 29.3387 582.798 29.3016C582.993 29.2646 583.187 29.2461 583.382 29.2461C583.956 29.2461 584.511 29.3942 585.048 29.6905C585.585 29.9868 586.025 30.4081 586.368 30.9544C586.71 31.4915 586.882 32.1304 586.882 32.8711C586.882 33.51 586.752 34.1165 586.493 34.6905C586.233 35.2646 585.877 35.7739 585.423 36.2183C584.979 36.6628 584.465 37.0146 583.882 37.2739C583.307 37.5331 582.696 37.6628 582.048 37.6628ZM582.201 36.2461C582.747 36.2461 583.257 36.0979 583.729 35.8016C584.21 35.4961 584.599 35.0979 584.895 34.6072C585.192 34.1165 585.34 33.5887 585.34 33.0239C585.34 32.3479 585.108 31.7692 584.645 31.2878C584.192 30.797 583.599 30.5516 582.868 30.5516C582.321 30.5516 581.803 30.6998 581.312 30.9961C580.831 31.2831 580.437 31.6674 580.132 32.1489C579.835 32.6304 579.687 33.1581 579.687 33.7322C579.687 34.1859 579.794 34.6026 580.007 34.9822C580.219 35.3618 580.516 35.6674 580.895 35.8989C581.275 36.1304 581.71 36.2461 582.201 36.2461ZM592.083 37.6628C591.398 37.6628 590.796 37.4776 590.278 37.1072C589.769 36.7276 589.37 36.1998 589.083 35.5239C588.806 34.8387 588.667 34.0424 588.667 33.135C588.667 32.0702 588.824 31.0424 589.139 30.0516C589.454 29.0609 589.88 28.172 590.417 27.385C590.954 26.5979 591.56 25.9776 592.236 25.5239C592.921 25.0609 593.63 24.8294 594.361 24.8294C595.398 24.8294 596.227 25.2415 596.847 26.0655C597.468 26.8804 597.778 27.9683 597.778 29.3294C597.778 30.4128 597.62 31.4544 597.306 32.4544C596.991 33.4452 596.565 34.3341 596.028 35.1211C595.5 35.8989 594.894 36.5192 594.208 36.9822C593.532 37.4359 592.824 37.6628 592.083 37.6628ZM592.222 36.2461C592.713 36.2461 593.194 36.0516 593.667 35.6628C594.139 35.2646 594.565 34.7322 594.944 34.0655C595.324 33.3989 595.625 32.6535 595.847 31.8294C596.079 31.0054 596.194 30.1628 596.194 29.3016C596.194 28.3387 596.023 27.5887 595.681 27.0516C595.338 26.5146 594.852 26.2461 594.222 26.2461C593.741 26.2461 593.264 26.4452 592.792 26.8433C592.319 27.2415 591.889 27.7739 591.5 28.4405C591.12 29.1072 590.815 29.8526 590.583 30.6766C590.361 31.4915 590.25 32.3248 590.25 33.1766C590.25 34.1118 590.431 34.8572 590.792 35.4128C591.153 35.9683 591.63 36.2461 592.222 36.2461Z" fill="#AEB1E7"/>
<path d="M693.048 37.6628C692.344 37.6628 691.692 37.5054 691.09 37.1905C690.497 36.8665 690.02 36.422 689.659 35.8572C689.307 35.2924 689.132 34.6396 689.132 33.8989C689.132 32.8341 689.507 31.8433 690.257 30.9266L695.145 24.9961H697.02L693.201 29.51C693.405 29.4081 693.604 29.3387 693.798 29.3016C693.993 29.2646 694.187 29.2461 694.382 29.2461C694.956 29.2461 695.511 29.3942 696.048 29.6905C696.585 29.9868 697.025 30.4081 697.368 30.9544C697.71 31.4915 697.882 32.1304 697.882 32.8711C697.882 33.51 697.752 34.1165 697.493 34.6905C697.233 35.2646 696.877 35.7739 696.423 36.2183C695.979 36.6628 695.465 37.0146 694.882 37.2739C694.307 37.5331 693.696 37.6628 693.048 37.6628ZM693.201 36.2461C693.747 36.2461 694.257 36.0979 694.729 35.8016C695.21 35.4961 695.599 35.0979 695.895 34.6072C696.192 34.1165 696.34 33.5887 696.34 33.0239C696.34 32.3479 696.108 31.7692 695.645 31.2878C695.192 30.797 694.599 30.5516 693.868 30.5516C693.321 30.5516 692.803 30.6998 692.312 30.9961C691.831 31.2831 691.437 31.6674 691.132 32.1489C690.835 32.6304 690.687 33.1581 690.687 33.7322C690.687 34.1859 690.794 34.6026 691.007 34.9822C691.219 35.3618 691.516 35.6674 691.895 35.8989C692.275 36.1304 692.71 36.2461 693.201 36.2461ZM699.708 37.4961L700.014 36.2461H702.917L705.208 27.0516L701.958 28.5239L702.347 26.9405L707.306 24.7183L704.431 36.2461H706.764L706.458 37.4961H699.708Z" fill="#AEB1E7"/>
<path d="M874.048 37.6628C873.344 37.6628 872.692 37.5054 872.09 37.1905C871.497 36.8665 871.02 36.422 870.659 35.8572C870.307 35.2924 870.132 34.6396 870.132 33.8989C870.132 32.8341 870.507 31.8433 871.257 30.9266L876.145 24.9961H878.02L874.201 29.51C874.405 29.4081 874.604 29.3387 874.798 29.3016C874.993 29.2646 875.187 29.2461 875.382 29.2461C875.956 29.2461 876.511 29.3942 877.048 29.6905C877.585 29.9868 878.025 30.4081 878.368 30.9544C878.71 31.4915 878.882 32.1304 878.882 32.8711C878.882 33.51 878.752 34.1165 878.493 34.6905C878.233 35.2646 877.877 35.7739 877.423 36.2183C876.979 36.6628 876.465 37.0146 875.882 37.2739C875.307 37.5331 874.696 37.6628 874.048 37.6628ZM874.201 36.2461C874.747 36.2461 875.257 36.0979 875.729 35.8016C876.21 35.4961 876.599 35.0979 876.895 34.6072C877.192 34.1165 877.34 33.5887 877.34 33.0239C877.34 32.3479 877.108 31.7692 876.645 31.2878C876.192 30.797 875.599 30.5516 874.868 30.5516C874.321 30.5516 873.803 30.6998 873.312 30.9961C872.831 31.2831 872.437 31.6674 872.132 32.1489C871.835 32.6304 871.687 33.1581 871.687 33.7322C871.687 34.1859 871.794 34.6026 872.007 34.9822C872.219 35.3618 872.516 35.6674 872.895 35.8989C873.275 36.1304 873.71 36.2461 874.201 36.2461ZM883.694 37.6628C882.926 37.6628 882.194 37.4452 881.5 37.01C880.806 36.5655 880.324 35.922 880.056 35.0794L881.389 33.3989C881.37 33.9266 881.454 34.4081 881.639 34.8433C881.833 35.2692 882.116 35.6118 882.486 35.8711C882.866 36.1211 883.319 36.2461 883.847 36.2461C884.431 36.2461 884.963 36.0979 885.444 35.8016C885.935 35.4961 886.324 35.1026 886.611 34.6211C886.907 34.1304 887.056 33.6118 887.056 33.0655C887.056 32.3804 886.819 31.797 886.347 31.3155C885.884 30.8248 885.282 30.5794 884.542 30.5794C884.356 30.5794 884.171 30.5979 883.986 30.635C883.81 30.672 883.644 30.7183 883.486 30.7739L886.972 26.3294H883.181L883.5 24.9961H889.667L886.097 29.5239C886.838 29.7646 887.435 30.1905 887.889 30.8016C888.343 31.4128 888.569 32.1211 888.569 32.9266C888.569 33.5378 888.44 34.1304 888.181 34.7044C887.921 35.2692 887.565 35.7739 887.111 36.2183C886.667 36.6628 886.148 37.0146 885.556 37.2739C884.972 37.5331 884.352 37.6628 883.694 37.6628Z" fill="#AEB1E7"/>
<path d="M1237.59 37.4961L1237.9 36.2461H1240.8L1243.09 27.0516L1239.84 28.5239L1240.23 26.9405L1245.19 24.7183L1242.32 36.2461H1244.65L1244.34 37.4961H1237.59ZM1251.38 37.6628C1250.69 37.6628 1250.09 37.4776 1249.57 37.1072C1249.06 36.7276 1248.67 36.1998 1248.38 35.5239C1248.1 34.8387 1247.96 34.0424 1247.96 33.135C1247.96 32.0702 1248.12 31.0424 1248.43 30.0516C1248.75 29.0609 1249.17 28.172 1249.71 27.385C1250.25 26.5979 1250.86 25.9776 1251.53 25.5239C1252.22 25.0609 1252.92 24.8294 1253.66 24.8294C1254.69 24.8294 1255.52 25.2415 1256.14 26.0655C1256.76 26.8804 1257.07 27.9683 1257.07 29.3294C1257.07 30.4128 1256.92 31.4544 1256.6 32.4544C1256.29 33.4452 1255.86 34.3341 1255.32 35.1211C1254.79 35.8989 1254.19 36.5192 1253.5 36.9822C1252.83 37.4359 1252.12 37.6628 1251.38 37.6628ZM1251.52 36.2461C1252.01 36.2461 1252.49 36.0516 1252.96 35.6628C1253.43 35.2646 1253.86 34.7322 1254.24 34.0655C1254.62 33.3989 1254.92 32.6535 1255.14 31.8294C1255.37 31.0054 1255.49 30.1628 1255.49 29.3016C1255.49 28.3387 1255.32 27.5887 1254.98 27.0516C1254.63 26.5146 1254.15 26.2461 1253.52 26.2461C1253.04 26.2461 1252.56 26.4452 1252.09 26.8433C1251.61 27.2415 1251.18 27.7739 1250.79 28.4405C1250.42 29.1072 1250.11 29.8526 1249.88 30.6766C1249.66 31.4915 1249.54 32.3248 1249.54 33.1766C1249.54 34.1118 1249.73 34.8572 1250.09 35.4128C1250.45 35.9683 1250.92 36.2461 1251.52 36.2461ZM1261.79 37.6628C1261.1 37.6628 1260.5 37.4776 1259.98 37.1072C1259.47 36.7276 1259.08 36.1998 1258.79 35.5239C1258.51 34.8387 1258.37 34.0424 1258.37 33.135C1258.37 32.0702 1258.53 31.0424 1258.84 30.0516C1259.16 29.0609 1259.58 28.172 1260.12 27.385C1260.66 26.5979 1261.27 25.9776 1261.94 25.5239C1262.63 25.0609 1263.33 24.8294 1264.07 24.8294C1265.1 24.8294 1265.93 25.2415 1266.55 26.0655C1267.17 26.8804 1267.48 27.9683 1267.48 29.3294C1267.48 30.4128 1267.33 31.4544 1267.01 32.4544C1266.7 33.4452 1266.27 34.3341 1265.73 35.1211C1265.21 35.8989 1264.6 36.5192 1263.91 36.9822C1263.24 37.4359 1262.53 37.6628 1261.79 37.6628ZM1261.93 36.2461C1262.42 36.2461 1262.9 36.0516 1263.37 35.6628C1263.84 35.2646 1264.27 34.7322 1264.65 34.0655C1265.03 33.3989 1265.33 32.6535 1265.55 31.8294C1265.78 31.0054 1265.9 30.1628 1265.9 29.3016C1265.9 28.3387 1265.73 27.5887 1265.39 27.0516C1265.04 26.5146 1264.56 26.2461 1263.93 26.2461C1263.45 26.2461 1262.97 26.4452 1262.5 26.8433C1262.02 27.2415 1261.59 27.7739 1261.21 28.4405C1260.83 29.1072 1260.52 29.8526 1260.29 30.6766C1260.07 31.4915 1259.96 32.3248 1259.96 33.1766C1259.96 34.1118 1260.14 34.8572 1260.5 35.4128C1260.86 35.9683 1261.33 36.2461 1261.93 36.2461Z" fill="#AEB1E7"/>
</svg>
