<svg width="645" height="101" viewBox="0 0 645 101" fill="none" xmlns="http://www.w3.org/2000/svg">
<path d="M643.328 97.918C643.737 98.2893 644.369 98.2589 644.74 97.8501C645.112 97.4412 645.081 96.8088 644.672 96.4375L644 97.1777L643.328 97.918ZM0.00738633 85.0864C-0.0595693 85.6346 0.330628 86.1332 0.878846 86.2002L9.81256 87.2905C10.3608 87.3574 10.8594 86.9672 10.9263 86.419C10.9932 85.8708 10.6031 85.3721 10.0549 85.3052L2.11377 84.336L3.08295 76.395C3.1499 75.8467 2.75971 75.3481 2.21149 75.2812C1.66327 75.2143 1.16461 75.6044 1.09772 76.1527L0.00738633 85.0864ZM644 97.1777L644.672 96.4375C573.402 31.7075 447.976 0.825949 322.694 0.0164977C197.407 -0.792984 71.8903 28.4693 0.38379 84.42L1 85.2075L1.61621 85.9951C72.6097 30.4458 197.593 1.20826 322.681 2.01646C447.774 2.82468 572.598 33.6783 643.328 97.918L644 97.1777Z" fill="white"/>
<path d="M441.681 99.781C441.997 100.233 442.621 100.343 443.073 100.027C443.526 99.71 443.636 99.0865 443.319 98.6341L442.5 99.2075L441.681 99.781ZM0.007356 85.0859C-0.0595386 85.6341 0.330629 86.1328 0.878846 86.1997L9.81256 87.29C10.3608 87.3569 10.8594 86.9667 10.9263 86.4185C10.9933 85.8703 10.6031 85.3716 10.0549 85.3047L2.11377 84.3355L3.08298 76.3945C3.14987 75.8463 2.75971 75.3476 2.21149 75.2807C1.66327 75.2138 1.16461 75.604 1.09769 76.1522L0.007356 85.0859ZM442.5 99.2075L443.319 98.6341C429.166 78.4154 403.284 60.477 370.316 46.6679C337.327 32.8498 297.146 23.1252 254.274 19.3985C168.552 11.947 71.8958 28.4645 0.38376 84.4195L1 85.207L1.61624 85.9946C72.6042 30.4496 168.698 13.9673 254.101 21.391C296.792 25.102 336.767 34.7838 369.543 48.5126C402.341 62.2505 427.834 79.9997 441.681 99.781L442.5 99.2075Z" fill="white"/>
<path d="M289.539 98.4851C289.693 99.0156 290.247 99.3215 290.778 99.1682C291.308 99.015 291.614 98.4606 291.461 97.93L290.5 98.2075L289.539 98.4851ZM0.00735591 85.0859C-0.0595387 85.6341 0.330629 86.1328 0.878846 86.1997L9.81256 87.29C10.3608 87.3569 10.8594 86.9667 10.9263 86.4185C10.9933 85.8703 10.6031 85.3716 10.0549 85.3047L2.11377 84.3355L3.08298 76.3945C3.14987 75.8463 2.75971 75.3476 2.21149 75.2807C1.66327 75.2138 1.16461 75.604 1.09769 76.1522L0.00735591 85.0859ZM290.5 98.2075L291.461 97.93C291.008 96.364 290.004 94.5386 288.552 92.5409C287.092 90.5312 285.143 88.2961 282.745 85.9073C277.949 81.1291 271.319 75.6951 263.121 70.1748C246.724 59.1335 223.998 47.7096 197.008 40.4912C142.999 26.0468 71.9152 28.4493 0.38376 84.4195L1 85.207L1.61624 85.9946C72.5848 30.4648 143.001 28.1175 196.492 42.4233C223.251 49.5801 245.776 60.9063 262.004 71.8338C270.119 77.2979 276.645 82.653 281.333 87.3241C283.678 89.66 285.552 91.8144 286.934 93.7164C288.325 95.6303 289.179 97.2386 289.539 98.4851L290.5 98.2075Z" fill="white"/>
</svg>
