<svg width="279" height="279" viewBox="0 0 279 279" fill="none" xmlns="http://www.w3.org/2000/svg">
<circle cx="139.5" cy="139.5" r="139.5" fill="url(#paint0_radial_465_1203)"/>
<mask id="path-2-inside-1_465_1203" fill="white">
<path d="M143.444 147.542C179.609 140.245 194.592 175.374 194.593 186.887C194.593 198.4 188.135 218.677 172.119 225.452C180.385 201.74 155.9 211.232 152.743 187.669C151.452 178.029 170.31 160.31 144.219 149.106C147.323 147.195 173.41 154.057 173.927 179.592H174.443C175.218 178.55 173.668 150.67 143.444 147.542ZM171.026 185.496L166.413 187.609L171.377 188.635L171.944 193.714L174.445 189.269L179.409 190.295L175.991 186.522L178.492 182.077L173.879 184.19L170.46 180.417L171.026 185.496Z"/>
</mask>
<path d="M143.444 147.542C179.609 140.245 194.592 175.374 194.593 186.887C194.593 198.4 188.135 218.677 172.119 225.452C180.385 201.74 155.9 211.232 152.743 187.669C151.452 178.029 170.31 160.31 144.219 149.106C147.323 147.195 173.41 154.057 173.927 179.592H174.443C175.218 178.55 173.668 150.67 143.444 147.542ZM171.026 185.496L166.413 187.609L171.377 188.635L171.944 193.714L174.445 189.269L179.409 190.295L175.991 186.522L178.492 182.077L173.879 184.19L170.46 180.417L171.026 185.496Z" fill="white"/>
<path d="M143.444 147.542L142.06 140.68L142.724 154.504L143.444 147.542ZM194.593 186.887H201.593V186.887L194.593 186.887ZM172.119 225.452L165.509 223.148L160.316 238.045L174.846 231.899L172.119 225.452ZM152.743 187.669L145.805 188.599L145.805 188.599L152.743 187.669ZM144.219 149.106L140.549 143.145L129.063 150.216L141.457 155.538L144.219 149.106ZM173.927 179.592L166.928 179.734L167.067 186.592H173.927V179.592ZM174.443 179.592V186.592H177.961L180.061 183.769L174.443 179.592ZM171.026 185.496L173.942 191.86L178.544 189.751L177.983 184.72L171.026 185.496ZM166.413 187.609L163.498 181.245L144.081 190.139L164.996 194.464L166.413 187.609ZM171.377 188.635L178.334 187.858L177.77 182.809L172.794 181.78L171.377 188.635ZM171.944 193.714L164.988 194.491L167.398 216.071L178.045 197.147L171.944 193.714ZM174.445 189.269L175.863 182.414L170.853 181.378L168.345 185.837L174.445 189.269ZM179.409 190.295L177.992 197.15L198.997 201.494L184.597 185.596L179.409 190.295ZM175.991 186.522L169.89 183.09L167.418 187.484L170.803 191.221L175.991 186.522ZM178.492 182.077L184.593 185.509L195.149 166.747L175.577 175.713L178.492 182.077ZM173.879 184.19L168.691 188.89L172.134 192.689L176.794 190.554L173.879 184.19ZM170.46 180.417L175.647 175.716L161.102 159.663L163.503 181.192L170.46 180.417ZM143.444 147.542L144.829 154.403C160.083 151.326 170.455 157.049 177.346 164.809C180.884 168.793 183.495 173.336 185.211 177.515C186.974 181.811 187.593 185.229 187.593 186.887L194.593 186.887L201.593 186.887C201.593 182.789 200.338 177.498 198.162 172.198C195.938 166.781 192.543 160.838 187.814 155.513C178.172 144.654 162.971 136.461 142.06 140.68L143.444 147.542ZM194.593 186.887H187.593C187.593 191.541 186.238 198.435 183.08 204.858C179.931 211.263 175.358 216.481 169.392 219.005L172.119 225.452L174.846 231.899C184.897 227.647 191.561 219.339 195.644 211.035C199.719 202.747 201.593 193.745 201.593 186.887H194.593ZM172.119 225.452L178.729 227.756C181.045 221.111 181.628 215.266 179.476 210.146C177.379 205.158 173.249 202.39 170.509 200.622C167.349 198.584 165.239 197.39 163.38 195.4C161.793 193.701 160.283 191.234 159.681 186.74L152.743 187.669L145.805 188.599C146.781 195.886 149.516 201.068 153.15 204.957C156.511 208.556 160.597 210.889 162.92 212.387C165.662 214.156 166.301 214.933 166.57 215.571C166.782 216.076 167.326 217.937 165.509 223.148L172.119 225.452ZM152.743 187.669L159.681 186.74C159.684 186.758 159.669 186.662 159.692 186.411C159.715 186.159 159.771 185.806 159.885 185.329C160.122 184.335 160.525 183.141 161.102 181.577C162.148 178.745 163.88 174.516 164.666 170.238C165.495 165.719 165.46 160.33 162.465 155.049C159.528 149.871 154.327 145.829 146.981 142.674L144.219 149.106L141.457 155.538C147.156 157.985 149.382 160.359 150.287 161.956C151.135 163.45 151.358 165.194 150.896 167.71C150.39 170.467 149.28 173.175 147.969 176.727C146.91 179.595 145.212 184.173 145.805 188.599L152.743 187.669ZM144.219 149.106L147.888 155.067C146.889 155.682 146.069 155.78 145.988 155.791C145.796 155.817 145.778 155.798 145.988 155.81C146.401 155.832 147.186 155.939 148.288 156.234C150.474 156.819 153.332 157.988 156.149 159.874C161.659 163.562 166.726 169.729 166.928 179.734L173.927 179.592L180.925 179.451C180.611 163.921 172.376 153.889 163.937 148.24C159.78 145.457 155.502 143.672 151.907 142.71C150.119 142.232 148.353 141.917 146.743 141.83C145.942 141.787 145.044 141.792 144.128 141.915C143.324 142.023 141.937 142.291 140.549 143.145L144.219 149.106ZM173.927 179.592V186.592H174.443V179.592V172.592H173.927V179.592ZM174.443 179.592L180.061 183.769C181.016 182.484 181.286 181.184 181.336 180.962C181.446 180.474 181.498 180.036 181.526 179.729C181.584 179.093 181.589 178.436 181.57 177.825C181.531 176.571 181.373 175.039 181.065 173.337C180.449 169.934 179.171 165.522 176.72 161.008C171.666 151.703 161.807 142.405 144.165 140.579L143.444 147.542L142.724 154.504C155.305 155.807 161.333 162.012 164.417 167.69C166.034 170.668 166.888 173.616 167.289 175.832C167.489 176.939 167.562 177.781 167.577 178.264C167.585 178.52 167.574 178.572 167.584 178.461C167.588 178.416 167.608 178.194 167.681 177.873C167.694 177.817 167.919 176.635 168.826 175.416L174.443 179.592ZM171.026 185.496L168.111 179.132L163.498 181.245L166.413 187.609L169.328 193.973L173.942 191.86L171.026 185.496ZM166.413 187.609L164.996 194.464L169.96 195.49L171.377 188.635L172.794 181.78L167.83 180.754L166.413 187.609ZM171.377 188.635L164.42 189.412L164.988 194.491L171.944 193.714L178.901 192.937L178.334 187.858L171.377 188.635ZM171.944 193.714L178.045 197.147L180.546 192.701L174.445 189.269L168.345 185.837L165.844 190.282L171.944 193.714ZM174.445 189.269L173.028 196.124L177.992 197.15L179.409 190.295L180.827 183.44L175.863 182.414L174.445 189.269ZM179.409 190.295L184.597 185.596L181.179 181.823L175.991 186.522L170.803 191.221L174.221 194.995L179.409 190.295ZM175.991 186.522L182.092 189.954L184.593 185.509L178.492 182.077L172.391 178.644L169.89 183.09L175.991 186.522ZM178.492 182.077L175.577 175.713L170.964 177.826L173.879 184.19L176.794 190.554L181.407 188.441L178.492 182.077ZM173.879 184.19L179.066 179.49L175.647 175.716L170.46 180.417L165.273 185.117L168.691 188.89L173.879 184.19ZM170.46 180.417L163.503 181.192L164.069 186.271L171.026 185.496L177.983 184.72L177.417 179.641L170.46 180.417Z" fill="white" mask="url(#path-2-inside-1_465_1203)"/>
<mask id="path-4-inside-2_465_1203" fill="white">
<path d="M142.484 153.276C159.061 186.508 129.462 210.407 118.458 213.465C107.454 216.522 86.3584 215.626 75.6303 201.849C100.489 203.591 84.9155 182.302 106.598 172.976C115.47 169.16 137.412 182.792 141.194 154.446C143.845 156.957 144.213 184.146 119.943 191.429L120.081 191.932C121.285 192.408 147.519 183.497 142.484 153.276ZM113.534 190.179L110.289 186.253L110.627 191.354L105.922 193.254L110.835 194.506L111.173 199.605L113.872 195.279L118.785 196.531L115.54 192.606L118.239 188.279L113.534 190.179Z"/>
</mask>
<path d="M142.484 153.276C159.061 186.508 129.462 210.407 118.458 213.465C107.454 216.522 86.3584 215.626 75.6303 201.849C100.489 203.591 84.9155 182.302 106.598 172.976C115.47 169.16 137.412 182.792 141.194 154.446C143.845 156.957 144.213 184.146 119.943 191.429L120.081 191.932C121.285 192.408 147.519 183.497 142.484 153.276ZM113.534 190.179L110.289 186.253L110.627 191.354L105.922 193.254L110.835 194.506L111.173 199.605L113.872 195.279L118.785 196.531L115.54 192.606L118.239 188.279L113.534 190.179Z" fill="white"/>
<path d="M142.484 153.276L148.74 150.123L135.587 154.456L142.484 153.276ZM118.458 213.465L120.302 220.218L120.302 220.217L118.458 213.465ZM75.6303 201.849L76.1442 194.859L60.4434 193.759L70.1122 206.174L75.6303 201.849ZM106.598 172.976L103.862 166.537L103.862 166.537L106.598 172.976ZM141.194 154.446L146.007 149.344L136.078 139.938L134.263 153.543L141.194 154.446ZM119.943 191.429L117.961 184.716L111.392 186.688L113.199 193.303L119.943 191.429ZM120.081 191.932L113.336 193.806L114.255 197.172L117.493 198.453L120.081 191.932ZM113.534 190.179L108.143 194.662L111.39 198.59L116.126 196.678L113.534 190.179ZM110.289 186.253L115.68 181.77L101.876 165.073L103.312 186.744L110.289 186.253ZM110.627 191.354L113.218 197.853L117.94 195.946L117.603 190.863L110.627 191.354ZM105.922 193.254L103.33 186.755L83.4774 194.772L104.175 200.046L105.922 193.254ZM110.835 194.506L117.812 194.015L117.477 188.961L112.582 187.714L110.835 194.506ZM111.173 199.605L104.196 200.096L105.626 221.695L117.098 203.304L111.173 199.605ZM113.872 195.279L115.619 188.487L110.664 187.224L107.947 191.58L113.872 195.279ZM118.785 196.531L117.038 203.323L137.892 208.637L124.176 192.047L118.785 196.531ZM115.54 192.606L109.615 188.907L106.936 193.203L110.149 197.09L115.54 192.606ZM118.239 188.279L124.164 191.978L135.534 173.749L115.647 181.781L118.239 188.279ZM142.484 153.276L136.228 156.429C143.255 170.516 140.51 182.173 134.927 190.928C132.06 195.423 128.416 199.162 124.887 201.933C121.255 204.784 118.17 206.279 116.614 206.712L118.458 213.465L120.302 220.217C124.247 219.121 128.989 216.483 133.484 212.955C138.081 209.346 142.865 204.46 146.701 198.444C154.524 186.177 158.29 169.268 148.74 150.123L142.484 153.276ZM118.458 213.465L116.614 206.712C112.192 207.94 105.267 208.454 98.3059 207.091C91.3723 205.734 85.1632 202.68 81.1483 197.525L75.6303 201.849L70.1122 206.174C76.8255 214.795 86.5282 219.077 95.5755 220.848C104.595 222.613 113.719 222.046 120.302 220.218L118.458 213.465ZM75.6303 201.849L75.1163 208.84C82.0973 209.329 87.8878 208.344 92.252 204.858C96.4833 201.478 98.0303 196.719 98.9875 193.6C100.096 189.988 100.679 187.612 102.089 185.274C103.289 183.283 105.232 181.179 109.335 179.414L106.598 172.976L103.862 166.537C97.1228 169.436 92.8819 173.49 90.1272 178.059C87.5815 182.281 86.4385 186.868 85.6228 189.526C84.6556 192.677 84.0798 193.497 83.562 193.91C83.1771 194.218 81.5924 195.24 76.1442 194.859L75.6303 201.849ZM106.598 172.976L109.335 179.414C109.317 179.422 109.656 179.284 110.679 179.251C111.683 179.218 112.924 179.291 114.572 179.437C117.548 179.702 122.067 180.265 126.381 179.892C130.948 179.496 136.128 178.019 140.406 173.678C144.587 169.435 147.063 163.306 148.124 155.348L141.194 154.446L134.263 153.543C133.434 159.759 131.749 162.556 130.475 163.848C129.298 165.043 127.729 165.711 125.229 165.928C122.476 166.166 119.609 165.809 115.858 165.476C112.847 165.209 107.98 164.766 103.862 166.537L106.598 172.976ZM141.194 154.446L136.38 159.547C135.541 158.752 135.24 157.999 135.213 157.936C135.142 157.768 135.158 157.755 135.204 157.97C135.296 158.391 135.402 159.194 135.413 160.352C135.434 162.649 135.074 165.75 134.017 168.998C131.947 175.36 127.401 181.884 117.961 184.716L119.943 191.429L121.925 198.142C136.755 193.692 144.16 182.979 147.31 173.298C148.864 168.525 149.431 163.903 149.396 160.168C149.379 158.309 149.211 156.519 148.87 154.944C148.7 154.161 148.459 153.3 148.104 152.454C147.792 151.713 147.177 150.453 146.007 149.344L141.194 154.446ZM119.943 191.429L113.199 193.303L113.336 193.806L120.081 191.932L126.825 190.059L126.688 189.556L119.943 191.429ZM120.081 191.932L117.493 198.453C118.988 199.044 120.318 198.961 120.553 198.95C121.057 198.927 121.496 198.86 121.802 198.805C122.434 198.691 123.07 198.52 123.654 198.337C124.85 197.963 126.28 197.4 127.831 196.645C130.933 195.136 134.824 192.713 138.495 189.122C146.071 181.714 152.309 169.671 149.381 152.097L142.484 153.276L135.587 154.456C137.694 167.102 133.333 174.626 128.749 179.109C126.341 181.464 123.761 183.069 121.763 184.041C120.764 184.527 119.986 184.818 119.537 184.958C119.298 185.033 119.252 185.034 119.369 185.012C119.418 185.003 119.642 184.963 119.977 184.948C120.042 184.945 121.248 184.851 122.668 185.412L120.081 191.932ZM113.534 190.179L118.925 185.696L115.68 181.77L110.289 186.253L104.898 190.737L108.143 194.662L113.534 190.179ZM110.289 186.253L103.312 186.744L103.65 191.845L110.627 191.354L117.603 190.863L117.265 185.763L110.289 186.253ZM110.627 191.354L108.035 184.855L103.33 186.755L105.922 193.254L108.514 199.753L113.218 197.853L110.627 191.354ZM105.922 193.254L104.175 200.046L109.088 201.298L110.835 194.506L112.582 187.714L107.669 186.462L105.922 193.254ZM110.835 194.506L103.859 194.996L104.196 200.096L111.173 199.605L118.15 199.115L117.812 194.015L110.835 194.506ZM111.173 199.605L117.098 203.304L119.797 198.978L113.872 195.279L107.947 191.58L105.248 195.907L111.173 199.605ZM113.872 195.279L112.125 202.071L117.038 203.323L118.785 196.531L120.532 189.739L115.619 188.487L113.872 195.279ZM118.785 196.531L124.176 192.047L120.931 188.122L115.54 192.606L110.149 197.09L113.394 201.014L118.785 196.531ZM115.54 192.606L121.465 196.305L124.164 191.978L118.239 188.279L112.314 184.581L109.615 188.907L115.54 192.606ZM118.239 188.279L115.647 181.781L110.942 183.681L113.534 190.179L116.126 196.678L120.831 194.778L118.239 188.279Z" fill="white" mask="url(#path-4-inside-2_465_1203)"/>
<mask id="path-6-inside-3_465_1203" fill="white">
<path d="M138.44 152.419C113.154 179.501 80.7623 159.623 74.1498 150.24C67.5373 140.856 61.1552 120.555 70.3182 105.674C77.2006 129.831 91.7047 107.786 107.811 125.146C114.402 132.25 109.209 157.712 136.91 151.597C135.477 154.969 110.274 164.62 95.186 144.109L94.7645 144.411C94.7339 145.716 112.011 167.531 138.44 152.419ZM94.1581 137.6L96.7053 133.181L92.0689 135.246L88.6897 131.437L89.2042 136.523L84.5692 138.588L89.5226 139.665L90.037 144.75L92.5834 140.331L97.5374 141.409L94.1581 137.6Z"/>
</mask>
<path d="M138.44 152.419C113.154 179.501 80.7623 159.623 74.1498 150.24C67.5373 140.856 61.1552 120.555 70.3182 105.674C77.2006 129.831 91.7047 107.786 107.811 125.146C114.402 132.25 109.209 157.712 136.91 151.597C135.477 154.969 110.274 164.62 95.186 144.109L94.7645 144.411C94.7339 145.716 112.011 167.531 138.44 152.419ZM94.1581 137.6L96.7053 133.181L92.0689 135.246L88.6897 131.437L89.2042 136.523L84.5692 138.588L89.5226 139.665L90.037 144.75L92.5834 140.331L97.5374 141.409L94.1581 137.6Z" fill="white"/>
<path d="M138.44 152.419L143.513 157.227L135.011 146.31L138.44 152.419ZM74.1498 150.24L68.4609 154.318L68.4609 154.318L74.1498 150.24ZM70.3182 105.674L77.0208 103.718L72.6887 88.5129L64.3959 101.981L70.3182 105.674ZM107.811 125.146L112.911 120.34L112.911 120.34L107.811 125.146ZM136.91 151.597L143.319 154.348L148.644 141.817L135.436 144.733L136.91 151.597ZM95.186 144.109L100.792 139.915L96.728 134.39L91.1537 138.387L95.186 144.109ZM94.7645 144.411L90.7323 138.689L87.8761 140.737L87.7935 144.264L94.7645 144.411ZM94.1581 137.6L88.1308 134.083L85.5871 138.497L88.9544 142.292L94.1581 137.6ZM96.7053 133.181L102.733 136.698L113.493 118.03L93.9009 126.755L96.7053 133.181ZM92.0689 135.246L86.8652 139.937L90.2364 143.737L94.8733 141.672L92.0689 135.246ZM88.6897 131.437L93.8934 126.746L79.5709 110.603L81.7527 132.169L88.6897 131.437ZM89.2042 136.523L92.0095 142.948L96.6558 140.878L96.1412 135.791L89.2042 136.523ZM84.5692 138.588L81.7638 132.162L62.1433 140.904L83.081 145.457L84.5692 138.588ZM89.5226 139.665L96.4596 138.933L95.9473 133.869L91.0107 132.796L89.5226 139.665ZM90.037 144.75L83.1 145.481L85.2758 166.988L96.0646 148.266L90.037 144.75ZM92.5834 140.331L94.0725 133.462L89.1098 132.383L86.5558 136.815L92.5834 140.331ZM97.5374 141.409L96.0483 148.278L117.053 152.848L102.741 136.718L97.5374 141.409ZM138.44 152.419L133.368 147.611C122.683 159.055 110.92 160.448 100.849 158.15C95.6787 156.97 90.9434 154.795 87.1483 152.393C83.2454 149.924 80.785 147.504 79.8387 146.161L74.1498 150.24L68.4609 154.318C70.8208 157.667 74.8891 161.251 79.7096 164.301C84.6379 167.419 90.8207 170.28 97.7353 171.857C111.835 175.074 128.911 172.865 143.513 157.227L138.44 152.419ZM74.1498 150.24L79.8387 146.161C77.1713 142.376 74.319 135.973 73.2051 128.899C72.0947 121.847 72.8217 114.92 76.2405 109.368L70.3182 105.674L64.3959 101.981C58.6518 111.31 57.9883 121.974 59.4313 131.138C60.8708 140.28 64.5158 148.72 68.4609 154.318L74.1498 150.24ZM70.3182 105.674L63.6156 107.63C65.5458 114.405 68.4339 119.526 73.1455 122.452C77.7274 125.297 82.6856 125.138 85.9289 124.977C89.6742 124.792 92.0824 124.532 94.7411 125.068C97.009 125.525 99.6485 126.651 102.712 129.953L107.811 125.146L112.911 120.34C107.921 114.962 102.707 112.334 97.5107 111.286C92.7048 110.318 88.0368 110.804 85.2825 110.941C82.0262 111.102 81.0612 110.839 80.4846 110.481C80.0377 110.204 78.5318 109.022 77.0208 103.718L70.3182 105.674ZM107.811 125.146L102.712 129.953C102.711 129.952 102.961 130.24 103.345 131.204C103.721 132.15 104.078 133.355 104.506 134.967C105.279 137.884 106.298 142.349 108.118 146.3C110.041 150.478 113.174 154.861 118.66 157.421C124.034 159.928 130.593 160.181 138.385 158.461L136.91 151.597L135.436 144.733C129.376 146.071 126.197 145.434 124.547 144.664C123.01 143.948 121.835 142.668 120.771 140.356C119.602 137.819 118.952 134.969 117.98 131.304C117.196 128.352 115.948 123.614 112.911 120.34L107.811 125.146ZM136.91 151.597L130.501 148.846C130.96 147.767 131.567 147.214 131.623 147.161C131.761 147.031 131.783 147.037 131.603 147.152C131.249 147.378 130.545 147.751 129.474 148.155C127.351 148.958 124.346 149.676 120.964 149.786C114.346 150 106.688 147.93 100.792 139.915L95.186 144.109L89.5803 148.303C98.772 160.799 111.26 164.159 121.374 163.832C126.357 163.671 130.865 162.627 134.342 161.312C136.072 160.658 137.689 159.884 139.046 159.017C139.722 158.586 140.447 158.059 141.119 157.427C141.71 156.872 142.682 155.849 143.319 154.348L136.91 151.597ZM95.186 144.109L91.1537 138.387L90.7323 138.689L94.7645 144.411L98.7968 150.133L99.2182 149.831L95.186 144.109ZM94.7645 144.411L87.7935 144.264C87.7559 145.87 88.2832 147.088 88.3715 147.302C88.5631 147.767 88.773 148.156 88.9279 148.424C89.2474 148.978 89.6218 149.519 89.99 150.008C90.7439 151.009 91.7545 152.167 92.9851 153.376C95.446 155.794 99.0264 158.646 103.621 160.894C113.095 165.53 126.462 167.337 141.869 158.528L138.44 152.419L135.011 146.31C123.988 152.612 115.503 151.069 109.739 148.249C106.714 146.769 104.329 144.868 102.733 143.3C101.936 142.516 101.395 141.875 101.107 141.492C100.954 141.289 100.934 141.242 100.991 141.34C101.015 141.381 101.126 141.575 101.253 141.882C101.276 141.938 101.771 143.034 101.736 144.558L94.7645 144.411ZM94.1581 137.6L100.185 141.118L102.733 136.698L96.7053 133.181L90.678 129.664L88.1308 134.083L94.1581 137.6ZM96.7053 133.181L93.9009 126.755L89.2645 128.82L92.0689 135.246L94.8733 141.672L99.5097 139.607L96.7053 133.181ZM92.0689 135.246L97.2727 130.555L93.8934 126.746L88.6897 131.437L83.486 136.129L86.8652 139.937L92.0689 135.246ZM88.6897 131.437L81.7527 132.169L82.2671 137.254L89.2042 136.523L96.1412 135.791L95.6268 130.706L88.6897 131.437ZM89.2042 136.523L86.3988 130.097L81.7638 132.162L84.5692 138.588L87.3745 145.013L92.0095 142.948L89.2042 136.523ZM84.5692 138.588L83.081 145.457L88.0344 146.534L89.5226 139.665L91.0107 132.796L86.0573 131.719L84.5692 138.588ZM89.5226 139.665L82.5855 140.396L83.1 145.481L90.037 144.75L96.9741 144.019L96.4596 138.933L89.5226 139.665ZM90.037 144.75L96.0646 148.266L98.611 143.848L92.5834 140.331L86.5558 136.815L84.0094 141.233L90.037 144.75ZM92.5834 140.331L91.0944 147.2L96.0483 148.278L97.5374 141.409L99.0264 134.54L94.0725 133.462L92.5834 140.331ZM97.5374 141.409L102.741 136.718L99.3619 132.909L94.1581 137.6L88.9544 142.292L92.3337 146.1L97.5374 141.409Z" fill="white" mask="url(#path-6-inside-3_465_1203)"/>
<mask id="path-8-inside-4_465_1203" fill="white">
<path d="M136.407 147.287C103.126 131.255 112.015 94.0771 118.858 84.8633C125.701 75.6495 142.922 63.3279 159.768 67.5916C139.059 81.5699 164.295 88.78 152.817 109.546C148.12 118.043 122.496 120.82 136.718 145.565C133.097 145.217 116.298 123.951 131.063 103.201L130.649 102.889C129.409 103.254 114.077 126.505 136.407 147.287ZM136.888 100.229L141.836 101.328L138.474 97.5042L141.039 93.0965L136.395 95.1412L133.031 91.3184L133.524 96.4054L128.88 98.4506L133.829 99.5488L134.322 104.636L136.888 100.229Z"/>
</mask>
<path d="M136.407 147.287C103.126 131.255 112.015 94.0771 118.858 84.8633C125.701 75.6495 142.922 63.3279 159.768 67.5916C139.059 81.5699 164.295 88.78 152.817 109.546C148.12 118.043 122.496 120.82 136.718 145.565C133.097 145.217 116.298 123.951 131.063 103.201L130.649 102.889C129.409 103.254 114.077 126.505 136.407 147.287ZM136.888 100.229L141.836 101.328L138.474 97.5042L141.039 93.0965L136.395 95.1412L133.031 91.3184L133.524 96.4054L128.88 98.4506L133.829 99.5488L134.322 104.636L136.888 100.229Z" fill="white"/>
<path d="M136.407 147.287L133.413 153.627L141.13 142.129L136.407 147.287ZM118.858 84.8633L113.273 80.6432L118.858 84.8633ZM159.768 67.5916L163.656 73.4338L176.693 64.6338L161.451 60.7757L159.768 67.5916ZM152.817 109.546L158.909 112.978L158.909 112.978L152.817 109.546ZM136.718 145.565L136.072 152.561L149.531 153.855L142.748 142.053L136.718 145.565ZM131.063 103.201L136.731 107.306L140.709 101.717L135.236 97.5818L131.063 103.201ZM130.649 102.889L134.823 97.2692L132.026 95.1557L128.677 96.1434L130.649 102.889ZM136.888 100.229L138.373 93.3658L133.43 92.268L130.872 96.6619L136.888 100.229ZM141.836 101.328L140.351 108.191L161.263 112.835L147.049 96.6728L141.836 101.328ZM138.474 97.5042L132.458 93.9372L129.898 98.3352L133.261 102.159L138.474 97.5042ZM141.039 93.0965L147.055 96.6634L157.926 77.9875L138.236 86.6551L141.039 93.0965ZM136.395 95.1412L131.183 99.7972L134.553 103.627L139.198 101.583L136.395 95.1412ZM133.031 91.3184L138.243 86.6624L124.01 70.4841L126.092 91.9851L133.031 91.3184ZM133.524 96.4054L136.328 102.846L140.954 100.809L140.463 95.7387L133.524 96.4054ZM128.88 98.4506L126.076 92.0097L106.431 100.662L127.396 105.314L128.88 98.4506ZM133.829 99.5488L140.768 98.8812L140.274 93.7865L135.313 92.6856L133.829 99.5488ZM134.322 104.636L127.383 105.304L129.475 126.866L140.338 108.203L134.322 104.636ZM136.407 147.287L139.401 140.947C125.336 134.172 120.434 123.296 119.532 112.921C119.068 107.594 119.679 102.382 120.788 98.0046C121.93 93.5024 123.464 90.4014 124.443 89.0834L118.858 84.8633L113.273 80.6432C110.831 83.9321 108.688 88.9336 107.278 94.4947C105.836 100.18 105.021 106.992 105.641 114.116C106.903 128.641 114.197 144.37 133.413 153.627L136.407 147.287ZM118.858 84.8633L124.443 89.0834C127.203 85.3672 132.378 80.6752 138.717 77.448C145.036 74.2309 151.798 72.8164 158.084 74.4075L159.768 67.5916L161.451 60.7757C150.892 58.103 140.621 60.7176 132.407 64.8988C124.214 69.0699 117.356 75.1455 113.273 80.6432L118.858 84.8633ZM159.768 67.5916L155.879 61.7494C150.071 65.6698 146.115 70.0067 144.79 75.4264C143.501 80.6961 145.163 85.4107 146.303 88.477C147.62 92.0182 148.6 94.2524 148.905 96.9698C149.165 99.2876 148.907 102.166 146.724 106.115L152.817 109.546L158.909 112.978C162.466 106.544 163.357 100.733 162.761 95.4219C162.21 90.51 160.327 86.1743 159.359 83.5699C158.213 80.4906 158.167 79.4838 158.329 78.8213C158.454 78.3087 159.11 76.5025 163.656 73.4338L159.768 67.5916ZM152.817 109.546L146.724 106.115C146.725 106.114 146.53 106.441 145.737 107.103C144.959 107.753 143.93 108.464 142.538 109.366C140.021 110.998 136.115 113.339 132.939 116.292C129.581 119.414 126.397 123.761 125.654 129.813C124.926 135.74 126.687 142.118 130.687 149.078L136.718 145.565L142.748 142.053C139.637 136.64 139.269 133.392 139.492 131.572C139.7 129.878 140.549 128.36 142.407 126.633C144.446 124.737 146.938 123.244 150.101 121.192C152.65 119.54 156.744 116.895 158.909 112.978L152.817 109.546ZM136.718 145.565L137.363 138.569C138.521 138.681 139.228 139.095 139.295 139.133C139.459 139.226 139.46 139.249 139.296 139.111C138.975 138.84 138.408 138.276 137.699 137.371C136.294 135.576 134.699 132.908 133.564 129.692C131.343 123.4 130.962 115.414 136.731 107.306L131.063 103.201L125.394 99.0966C116.398 111.738 117.035 124.76 120.427 134.375C122.099 139.113 124.46 143.125 126.761 146.063C127.906 147.525 129.13 148.842 130.363 149.882C130.976 150.399 131.694 150.935 132.496 151.388C133.199 151.786 134.461 152.407 136.072 152.561L136.718 145.565ZM131.063 103.201L135.236 97.5818L134.823 97.2692L130.649 102.889L126.475 108.508L126.889 108.821L131.063 103.201ZM130.649 102.889L128.677 96.1434C127.143 96.5959 126.149 97.4777 125.974 97.6272C125.593 97.9535 125.289 98.2742 125.083 98.5049C124.656 98.9811 124.26 99.5058 123.911 100.009C123.195 101.038 122.409 102.362 121.643 103.913C120.111 107.015 118.509 111.324 117.787 116.424C116.299 126.94 118.668 140.332 131.684 152.445L136.407 147.287L141.13 142.129C131.816 133.46 130.687 124.836 131.592 118.44C132.067 115.083 133.135 112.213 134.128 110.203C134.625 109.197 135.065 108.483 135.338 108.09C135.483 107.881 135.522 107.848 135.445 107.934C135.414 107.969 135.264 108.136 135.012 108.352C134.967 108.39 134.078 109.205 132.621 109.634L130.649 102.889ZM136.888 100.229L135.403 107.092L140.351 108.191L141.836 101.328L143.321 94.4648L138.373 93.3658L136.888 100.229ZM141.836 101.328L147.049 96.6728L143.686 92.8492L138.474 97.5042L133.261 102.159L136.624 105.983L141.836 101.328ZM138.474 97.5042L144.489 101.071L147.055 96.6634L141.039 93.0965L135.024 89.5296L132.458 93.9372L138.474 97.5042ZM141.039 93.0965L138.236 86.6551L133.592 88.6998L136.395 95.1412L139.198 101.583L143.842 99.5379L141.039 93.0965ZM136.395 95.1412L141.606 90.4852L138.243 86.6624L133.031 91.3184L127.82 95.9743L131.183 99.7972L136.395 95.1412ZM133.031 91.3184L126.092 91.9851L126.585 97.0721L133.524 96.4054L140.463 95.7387L139.97 90.6517L133.031 91.3184ZM133.524 96.4054L130.72 89.9644L126.076 92.0097L128.88 98.4506L131.684 104.892L136.328 102.846L133.524 96.4054ZM128.88 98.4506L127.396 105.314L132.345 106.412L133.829 99.5488L135.313 92.6856L130.364 91.5874L128.88 98.4506ZM133.829 99.5488L126.89 100.217L127.383 105.304L134.322 104.636L141.261 103.969L140.768 98.8812L133.829 99.5488ZM134.322 104.636L140.338 108.203L142.904 103.796L136.888 100.229L130.872 96.6619L128.307 101.07L134.322 104.636Z" fill="white" mask="url(#path-8-inside-4_465_1203)"/>
<mask id="path-10-inside-5_465_1203" fill="white">
<path d="M139.741 147.124C142.75 110.046 180.359 105.195 191.331 108.367C202.303 111.538 219.847 123.387 221.892 140.782C201.571 126.236 203.871 152.592 180.546 149.162C171.002 147.758 159.311 124.591 141.445 146.803C140.479 143.266 154.205 119.863 178.684 126.397L178.826 125.896C178.046 124.857 151.048 118.679 139.741 147.124ZM183.509 130.833L184.252 135.889L186.597 131.359L191.594 132.208L188.047 128.558L190.392 124.027L185.854 126.302L182.307 122.652L183.05 127.708L178.512 129.983L183.509 130.833Z"/>
</mask>
<path d="M139.741 147.124C142.75 110.046 180.359 105.195 191.331 108.367C202.303 111.538 219.847 123.387 221.892 140.782C201.571 126.236 203.871 152.592 180.546 149.162C171.002 147.758 159.311 124.591 141.445 146.803C140.479 143.266 154.205 119.863 178.684 126.397L178.826 125.896C178.046 124.857 151.048 118.679 139.741 147.124ZM183.509 130.833L184.252 135.889L186.597 131.359L191.594 132.208L188.047 128.558L190.392 124.027L185.854 126.302L182.307 122.652L183.05 127.708L178.512 129.983L183.509 130.833Z" fill="white"/>
<path d="M139.741 147.124L132.772 146.528L146.237 149.74L139.741 147.124ZM191.331 108.367L193.244 101.633L193.244 101.633L191.331 108.367ZM221.892 140.782L217.843 146.481L230.678 155.668L228.835 139.989L221.892 140.782ZM180.546 149.162L179.558 156.096L179.558 156.096L180.546 149.162ZM141.445 146.803L134.702 148.629L138.319 161.876L146.894 151.215L141.445 146.803ZM178.684 126.397L176.909 133.169L183.534 134.937L185.408 128.34L178.684 126.397ZM178.826 125.896L185.551 127.84L186.503 124.488L184.406 121.695L178.826 125.896ZM183.509 130.833L190.426 129.838L189.683 124.779L184.653 123.923L183.509 130.833ZM184.252 135.889L177.336 136.884L180.495 158.39L190.461 139.136L184.252 135.889ZM186.597 131.359L187.741 124.449L182.726 123.596L180.389 128.112L186.597 131.359ZM191.594 132.208L190.451 139.118L211.537 142.704L196.593 127.328L191.594 132.208ZM188.047 128.558L181.838 125.312L179.514 129.802L183.048 133.439L188.047 128.558ZM190.392 124.027L196.601 127.274L206.531 108.089L187.246 117.757L190.392 124.027ZM185.854 126.302L180.856 131.183L184.433 134.863L189.001 132.573L185.854 126.302ZM182.307 122.652L187.306 117.771L172.251 102.281L175.39 123.647L182.307 122.652ZM183.05 127.708L186.196 133.979L190.702 131.72L189.967 126.714L183.05 127.708ZM178.512 129.983L175.366 123.712L156.241 133.3L177.369 136.893L178.512 129.983ZM139.741 147.124L146.709 147.719C147.985 132.002 156.347 123.494 165.634 118.953C170.403 116.622 175.444 115.344 179.888 114.833C184.46 114.308 187.866 114.652 189.418 115.1L191.331 108.367L193.244 101.633C189.31 100.496 183.9 100.257 178.241 100.908C172.453 101.573 165.847 103.23 159.466 106.35C146.453 112.712 134.506 125.168 132.772 146.528L139.741 147.124ZM191.331 108.367L189.418 115.1C193.827 116.375 200.003 119.575 205.242 124.395C210.46 129.196 214.183 135.066 214.948 141.576L221.892 140.782L228.835 139.989C227.556 129.103 221.484 120.351 214.676 114.086C207.889 107.84 199.807 103.53 193.244 101.633L191.331 108.367ZM221.892 140.782L225.94 135.084C220.233 130.999 214.782 128.798 209.257 129.481C203.9 130.144 200.121 133.394 197.694 135.553C194.882 138.055 193.158 139.776 190.747 141.032C188.694 142.101 185.949 142.876 181.535 142.227L180.546 149.162L179.558 156.096C186.807 157.162 192.52 155.929 197.231 153.476C201.585 151.209 204.929 147.894 206.998 146.053C209.451 143.871 210.365 143.474 211.021 143.393C211.508 143.333 213.39 143.292 217.843 146.481L221.892 140.782ZM180.546 149.162L181.535 142.227C181.554 142.23 181.194 142.17 180.303 141.66C179.429 141.161 178.407 140.446 177.076 139.456C174.672 137.667 171.106 134.811 167.23 132.864C163.127 130.802 157.943 129.341 152.049 130.799C146.289 132.224 141.011 136.156 135.996 142.391L141.445 146.803L146.894 151.215C150.812 146.344 153.695 144.842 155.45 144.408C157.072 144.007 158.757 144.261 161.003 145.389C163.476 146.632 165.739 148.444 168.769 150.699C171.202 152.509 175.128 155.444 179.558 156.096L180.546 149.162ZM141.445 146.803L148.188 144.977C148.494 146.097 148.362 146.898 148.352 146.966C148.326 147.146 148.306 147.149 148.377 146.941C148.517 146.533 148.841 145.792 149.429 144.799C150.597 142.826 152.506 140.368 155.086 138.151C160.139 133.808 167.387 130.627 176.909 133.169L178.684 126.397L180.458 119.624C165.502 115.632 153.648 120.886 145.96 127.496C142.169 130.754 139.297 134.402 137.398 137.609C136.453 139.204 135.672 140.821 135.15 142.344C134.891 143.102 134.651 143.964 134.518 144.872C134.401 145.669 134.276 147.067 134.702 148.629L141.445 146.803ZM178.684 126.397L185.408 128.34L185.551 127.84L178.826 125.896L172.101 123.952L171.959 124.453L178.684 126.397ZM178.826 125.896L184.406 121.695C183.435 120.401 182.253 119.772 182.049 119.658C181.606 119.412 181.196 119.238 180.906 119.124C180.308 118.89 179.677 118.702 179.084 118.551C177.87 118.242 176.359 117.971 174.645 117.8C171.218 117.459 166.646 117.483 161.657 118.619C151.365 120.963 139.821 127.965 133.245 144.507L139.741 147.124L146.237 149.74C150.969 137.837 158.577 133.707 164.805 132.288C168.077 131.543 171.108 131.529 173.315 131.749C174.419 131.859 175.233 132.019 175.688 132.135C175.931 132.197 175.97 132.22 175.859 132.177C175.813 132.159 175.6 132.075 175.306 131.911C175.25 131.88 174.168 131.325 173.246 130.097L178.826 125.896ZM183.509 130.833L176.593 131.828L177.336 136.884L184.252 135.889L191.169 134.895L190.426 129.838L183.509 130.833ZM184.252 135.889L190.461 139.136L192.806 134.605L186.597 131.359L180.389 128.112L178.044 132.643L184.252 135.889ZM186.597 131.359L185.454 138.268L190.451 139.118L191.594 132.208L192.738 125.299L187.741 124.449L186.597 131.359ZM191.594 132.208L196.593 127.328L193.046 123.678L188.047 128.558L183.048 133.439L186.596 137.089L191.594 132.208ZM188.047 128.558L194.255 131.805L196.601 127.274L190.392 124.027L184.183 120.781L181.838 125.312L188.047 128.558ZM190.392 124.027L187.246 117.757L182.708 120.031L185.854 126.302L189.001 132.573L193.539 130.298L190.392 124.027ZM185.854 126.302L190.853 121.421L187.306 117.771L182.307 122.652L177.308 127.533L180.856 131.183L185.854 126.302ZM182.307 122.652L175.39 123.647L176.133 128.703L183.05 127.708L189.967 126.714L189.224 121.657L182.307 122.652ZM183.05 127.708L179.903 121.438L175.366 123.712L178.512 129.983L181.659 136.254L186.196 133.979L183.05 127.708ZM178.512 129.983L177.369 136.893L182.366 137.743L183.509 130.833L184.653 123.923L179.656 123.074L178.512 129.983Z" fill="white" mask="url(#path-10-inside-5_465_1203)"/>
<defs>
<radialGradient id="paint0_radial_465_1203" cx="0" cy="0" r="1" gradientUnits="userSpaceOnUse" gradientTransform="translate(139.5 139.5) rotate(90) scale(139.5)">
<stop stop-color="#FF5C75"/>
<stop offset="1" stop-color="#0A0C3C"/>
</radialGradient>
</defs>
</svg>
