<svg width="358" height="311" viewBox="0 0 358 311" fill="none" xmlns="http://www.w3.org/2000/svg">
<path d="M231.274 24.5V50C231.274 59.1127 223.887 66.5 214.774 66.5H141.774C132.661 66.5 125.274 59.1127 125.274 50V24.5H231.274Z" stroke="#924D90" stroke-width="7"/>
<path d="M118.101 127.98L177.271 70.3164L236.442 127.98" stroke="#924D90" stroke-width="7"/>
<path d="M103.63 122.432C109.399 116.393 119.214 116.996 124.201 123.696C128.106 128.943 127.683 136.237 123.197 140.997L80.6313 186.16L83.3647 220.781C83.6518 224.417 85.1359 227.856 87.5845 230.559L134.878 282.774C142.223 290.883 136.935 303.888 126.015 304.571C122.276 304.804 118.617 303.421 115.968 300.772L66.4302 251.234L27.6519 301.491C23.2086 307.249 14.9982 308.443 9.09814 304.19C2.916 299.733 1.65549 291.042 6.31689 285.012L29.5308 254.985C32.2465 251.472 33.432 247.013 32.8188 242.615L23.0513 172.559L22.5649 169.072L26.0552 168.606L64.4087 163.492L103.63 122.432Z" fill="#AEB1E7" stroke="#090B3B" stroke-width="7"/>
<circle cx="33.3015" cy="151.347" r="26.49" fill="#AEB1E7" stroke="#090B3B" stroke-width="7"/>
<path d="M254.304 122.432C248.535 116.393 238.72 116.996 233.734 123.696C229.829 128.943 230.252 136.237 234.738 140.997L277.303 186.16L274.57 220.781C274.283 224.417 272.799 227.856 270.35 230.559L223.056 282.774C215.711 290.883 220.999 303.888 231.919 304.571C235.658 304.804 239.317 303.421 241.966 300.772L291.504 251.234L330.283 301.491C334.726 307.249 342.936 308.443 348.836 304.19C355.019 299.733 356.279 291.042 351.618 285.012L328.404 254.985C325.688 251.472 324.503 247.013 325.116 242.615L334.883 172.559L335.37 169.072L331.879 168.606L293.526 163.492L254.304 122.432Z" fill="#AEB1E7" stroke="#090B3B" stroke-width="7"/>
<circle cx="22.99" cy="22.99" r="26.49" transform="matrix(-1 0 0 1 347.623 128.357)" fill="#AEB1E7" stroke="#090B3B" stroke-width="7"/>
<path d="M214.291 3.5L214.75 6.46387C217.634 25.0873 219.527 39.8799 218.103 53.1924C216.656 66.7069 211.818 78.5452 201.639 91.4307C197.679 96.4428 195.241 100.566 193.698 105.046C192.426 108.743 191.712 112.83 191.37 118.073H197.731V133.902H206.776V156.731H147.767V133.902H157.565V118.073H164.433C164.09 112.83 163.377 108.743 162.104 105.046C160.562 100.566 158.124 96.4427 154.164 91.4307C143.985 78.5452 139.147 66.7069 137.7 53.1924C136.275 39.8799 138.169 25.0874 141.053 6.46387L141.512 3.5H214.291Z" fill="#AEB1E7" stroke="#090B3B" stroke-width="7"/>
<path d="M174.795 38.3939C175.693 35.63 179.603 35.63 180.501 38.3939L181.544 41.6026C181.945 42.8386 183.097 43.6755 184.397 43.6755H187.771C190.677 43.6755 191.885 47.3944 189.534 49.1026L186.805 51.0856C185.753 51.8495 185.313 53.2036 185.715 54.4397L186.757 57.6483C187.656 60.4123 184.492 62.7106 182.141 61.0024L179.412 59.0194C178.36 58.2555 176.936 58.2555 175.885 59.0194L173.155 61.0024C170.804 62.7106 167.641 60.4123 168.539 57.6483L169.581 54.4397C169.983 53.2036 169.543 51.8495 168.492 51.0856L165.762 49.1026C163.411 47.3944 164.619 43.6755 167.526 43.6755H170.899C172.199 43.6755 173.351 42.8386 173.752 41.6026L174.795 38.3939Z" fill="#090B3B"/>
</svg>
