<svg width="173" height="57" viewBox="0 0 173 57" fill="none" xmlns="http://www.w3.org/2000/svg">
<path d="M0 17.25C0 7.72312 7.72312 4.37224e-05 17.25 9.76565e-05L155.25 0.000878907C164.777 0.000932841 172.5 7.72397 172.5 17.2508C172.5 26.7778 164.777 34.5009 155.25 34.5007L105.5 34.5H72.3125H59.125L45.9375 56.5L32.75 34.5H17.25C7.72307 34.5 0 26.7769 0 17.25Z" fill="#AEB1E7"/>
<path d="M13.1126 23.5039L16.2376 11.0039H18.946C19.696 11.0039 20.3626 11.1567 20.946 11.4622C21.5293 11.7585 21.9876 12.1752 22.321 12.7122C22.6543 13.24 22.821 13.8558 22.821 14.5595C22.821 15.1798 22.6913 15.7632 22.4321 16.3095C22.1728 16.8558 21.8163 17.3419 21.3626 17.7678C20.9182 18.1845 20.4043 18.5132 19.821 18.7539C19.2376 18.9946 18.6173 19.115 17.9599 19.115H15.7932L14.696 23.5039H13.1126ZM16.1543 17.6984H17.9876C18.5987 17.6984 19.1497 17.5641 19.6404 17.2956C20.1311 17.0178 20.52 16.6521 20.8071 16.1984C21.0941 15.7354 21.2376 15.2354 21.2376 14.6984C21.2376 14.0224 21.0015 13.4761 20.5293 13.0595C20.0663 12.6335 19.4413 12.4206 18.6543 12.4206H17.4737L16.1543 17.6984ZM22.696 23.5039L26.0293 10.1706H27.5293L26.0015 16.2122C26.3904 15.8048 26.821 15.5039 27.2932 15.3095C27.7747 15.1058 28.2561 15.0039 28.7376 15.0039C29.4876 15.0039 30.0849 15.1891 30.5293 15.5595C30.9737 15.9206 31.2608 16.4021 31.3904 17.0039C31.5293 17.5965 31.5108 18.2446 31.3349 18.9484L30.196 23.5039H28.696L29.821 18.9761C30.0061 18.2354 29.9691 17.5965 29.7099 17.0595C29.4599 16.5224 28.9645 16.2539 28.2237 16.2539C27.6404 16.2539 27.0756 16.4669 26.5293 16.8928C25.983 17.3095 25.608 17.9159 25.4043 18.7122L24.196 23.5039H22.696ZM30.7997 27.6706L34.9525 22.1428L33.2025 15.1706H34.758L35.6469 18.7817C35.7303 19.1058 35.8043 19.4252 35.8691 19.74C35.9432 20.0548 35.9988 20.4345 36.0358 20.8789C36.3043 20.4345 36.5497 20.0548 36.7719 19.74C37.0034 19.4159 37.2349 19.0965 37.4664 18.7817L40.1608 15.1706H41.8969L32.5636 27.6706H30.7997ZM43.837 23.615C43.2907 23.615 42.7676 23.49 42.2676 23.24C41.7768 22.9808 41.4065 22.6474 41.1565 22.24L41.962 20.6706C42.1194 21.1706 42.3879 21.578 42.7676 21.8928C43.1565 22.2076 43.5824 22.365 44.0454 22.365C44.4342 22.365 44.7629 22.2493 45.0315 22.0178C45.3 21.7771 45.4342 21.4854 45.4342 21.1428C45.4342 20.9298 45.3741 20.7493 45.2537 20.6011C45.1333 20.4437 44.9528 20.2909 44.712 20.1428L43.7954 19.6011C43.3694 19.3511 43.0454 19.0687 42.8231 18.7539C42.6102 18.4391 42.5037 18.078 42.5037 17.6706C42.5037 17.1984 42.6287 16.7632 42.8787 16.365C43.1379 15.9669 43.4805 15.6474 43.9065 15.4067C44.3417 15.1659 44.8231 15.0456 45.3509 15.0456C45.8694 15.0456 46.3555 15.1659 46.8092 15.4067C47.2722 15.6382 47.6148 15.9437 47.837 16.3234L47.0315 17.8928C46.9018 17.4113 46.6657 17.0271 46.3231 16.74C45.9805 16.453 45.6009 16.3095 45.1842 16.3095C44.8139 16.3095 44.5037 16.4206 44.2537 16.6428C44.0037 16.8558 43.8787 17.115 43.8787 17.4206C43.8787 17.6243 43.9342 17.8048 44.0454 17.9622C44.1565 18.1104 44.2954 18.2354 44.462 18.3372L45.4481 18.9067C45.8926 19.1659 46.2305 19.453 46.462 19.7678C46.6935 20.0826 46.8092 20.4576 46.8092 20.8928C46.8092 21.3743 46.675 21.8234 46.4065 22.24C46.1379 22.6567 45.7768 22.99 45.3231 23.24C44.8787 23.49 44.3833 23.615 43.837 23.615ZM48.3991 23.5039L50.4824 15.1706H51.9824L49.8991 23.5039H48.3991ZM51.7463 13.6706C51.4963 13.6706 51.2833 13.5872 51.1074 13.4206C50.9408 13.2539 50.8574 13.0456 50.8574 12.7956C50.8574 12.4993 50.9685 12.24 51.1908 12.0178C51.4222 11.7863 51.6815 11.6706 51.9685 11.6706C52.2185 11.6706 52.4269 11.7539 52.5935 11.9206C52.7695 12.0872 52.8574 12.2956 52.8574 12.5456C52.8574 12.8419 52.7463 13.1058 52.5241 13.3372C52.3019 13.5595 52.0426 13.6706 51.7463 13.6706ZM56.9759 23.6706C56.2352 23.6706 55.5639 23.5039 54.962 23.1706C54.3602 22.8372 53.8833 22.3835 53.5315 21.8095C53.1889 21.2261 53.0176 20.5734 53.0176 19.8511C53.0176 19.2122 53.1518 18.6011 53.4204 18.0178C53.6981 17.4345 54.0731 16.9206 54.5454 16.4761C55.0268 16.0224 55.5685 15.6659 56.1704 15.4067C56.7815 15.1382 57.4204 15.0039 58.087 15.0039C58.6704 15.0039 59.212 15.1196 59.712 15.3511C60.2213 15.5734 60.6518 15.8789 61.0037 16.2678L60.212 17.8928C60.0268 17.4576 59.7305 17.1058 59.3231 16.8372C58.9157 16.5595 58.425 16.4206 57.8509 16.4206C57.2676 16.4206 56.7213 16.5734 56.212 16.8789C55.712 17.1845 55.3092 17.5872 55.0037 18.0872C54.6981 18.5872 54.5454 19.1243 54.5454 19.6984C54.5454 20.4021 54.7815 21.0039 55.2537 21.5039C55.7259 22.0039 56.3509 22.2539 57.1287 22.2539C57.712 22.2539 58.2491 22.1058 58.7398 21.8095C59.2398 21.5132 59.6333 21.1335 59.9204 20.6706V22.6845C59.5129 22.99 59.0592 23.2308 58.5592 23.4067C58.0685 23.5826 57.5407 23.6706 56.9759 23.6706ZM65.337 23.615C64.6981 23.615 64.1055 23.453 63.5592 23.1289C63.0222 22.7956 62.587 22.3465 62.2537 21.7817C61.9296 21.2076 61.7676 20.5641 61.7676 19.8511C61.7676 19.2215 61.8972 18.6196 62.1565 18.0456C62.4157 17.4715 62.7676 16.9622 63.212 16.5178C63.6565 16.0641 64.1611 15.7076 64.7259 15.4484C65.3 15.1891 65.8972 15.0595 66.5176 15.0595C67.1472 15.0595 67.7213 15.1937 68.2398 15.4622C68.7676 15.7308 69.2028 16.0965 69.5454 16.5595L69.8926 15.1706H71.2815L69.1981 23.5039H67.8092L68.1009 22.3928C67.7305 22.7632 67.3092 23.0595 66.837 23.2817C66.3648 23.5039 65.8648 23.615 65.337 23.615ZM65.7537 22.2539C66.3092 22.2539 66.8278 22.1011 67.3092 21.7956C67.8 21.4808 68.1981 21.0734 68.5037 20.5734C68.8092 20.0734 68.962 19.5409 68.962 18.9761C68.962 18.5132 68.8555 18.0919 68.6426 17.7122C68.4389 17.3234 68.1518 17.0132 67.7815 16.7817C67.4204 16.5409 66.9944 16.4206 66.5037 16.4206C65.9481 16.4206 65.425 16.578 64.9342 16.8928C64.4528 17.1984 64.0592 17.6011 63.7537 18.1011C63.4481 18.5919 63.2954 19.1243 63.2954 19.6984C63.2954 20.1521 63.3972 20.5734 63.6009 20.9622C63.8139 21.3511 64.1055 21.6659 64.4759 21.9067C64.8463 22.1382 65.2722 22.2539 65.7537 22.2539ZM71.8561 23.5039L75.1895 10.1706H76.6895L73.3561 23.5039H71.8561ZM83.732 23.9206L82.1348 11.0039H83.6348L84.5931 18.5039C84.6301 18.7632 84.6533 19.0132 84.6625 19.2539C84.6718 19.4854 84.6764 19.7632 84.6764 20.0872C84.8246 19.7632 84.9588 19.4854 85.0792 19.2539C85.2088 19.0132 85.3524 18.7632 85.5098 18.5039L90.3431 10.5872L91.2181 18.5039C91.2459 18.7354 91.269 18.9715 91.2875 19.2122C91.3153 19.4437 91.32 19.7354 91.3014 20.0872C91.4588 19.7354 91.6024 19.4437 91.732 19.2122C91.8616 18.9715 92.0005 18.7354 92.1487 18.5039L96.857 11.0039H98.4681L90.4403 23.9206L89.5931 15.8095C89.5653 15.5687 89.5422 15.3372 89.5237 15.115C89.5051 14.8835 89.5005 14.5919 89.5098 14.24C89.3524 14.5919 89.2088 14.8835 89.0792 15.115C88.9588 15.3372 88.8246 15.5687 88.6764 15.8095L83.732 23.9206ZM100.031 23.6706C99.2718 23.6706 98.5912 23.5039 97.9894 23.1706C97.3875 22.8372 96.9107 22.3835 96.5588 21.8095C96.2162 21.2261 96.0449 20.5734 96.0449 19.8511C96.0449 19.2122 96.1792 18.6011 96.4477 18.0178C96.7162 17.4345 97.082 16.9206 97.5449 16.4761C98.0171 16.0224 98.5588 15.6659 99.1699 15.4067C99.781 15.1382 100.429 15.0039 101.114 15.0039C101.966 15.0039 102.679 15.203 103.253 15.6011C103.827 15.99 104.23 16.4993 104.462 17.1289C104.693 17.7585 104.721 18.4298 104.545 19.1428L104.392 19.7539H98.9477C98.7162 19.7539 98.4847 19.7446 98.2533 19.7261C98.031 19.7076 97.8042 19.6845 97.5727 19.6567C97.582 20.3882 97.8227 21.0039 98.2949 21.5039C98.7671 22.0039 99.3875 22.2539 100.156 22.2539C100.739 22.2539 101.276 22.1058 101.767 21.8095C102.267 21.5132 102.661 21.1335 102.948 20.6706V22.6845C102.54 22.99 102.087 23.2308 101.587 23.4067C101.096 23.5826 100.577 23.6706 100.031 23.6706ZM97.656 18.6289C98.2023 18.5456 98.7347 18.5039 99.2533 18.5039H102.017C102.221 18.5039 102.42 18.5132 102.614 18.5317C102.809 18.5409 103.003 18.5548 103.198 18.5734C103.225 17.9437 103.022 17.4159 102.587 16.99C102.161 16.5548 101.582 16.3372 100.85 16.3372C100.11 16.3372 99.4477 16.5595 98.8644 17.0039C98.281 17.4391 97.8783 17.9808 97.656 18.6289ZM105.45 23.5039L108.783 10.1706H110.283L106.95 23.5039H105.45ZM109.61 23.5039L112.943 10.1706H114.443L111.11 23.5039H109.61ZM118.534 23.615C117.914 23.615 117.34 23.4808 116.812 23.2122C116.284 22.9437 115.849 22.578 115.506 22.115L115.159 23.5039H113.77L117.104 10.1706H118.604L117.09 16.1428C117.441 15.8187 117.84 15.5595 118.284 15.365C118.738 15.1613 119.215 15.0595 119.715 15.0595C120.354 15.0595 120.941 15.2261 121.479 15.5595C122.025 15.8835 122.46 16.328 122.784 16.8928C123.117 17.4576 123.284 18.1011 123.284 18.8234C123.284 19.453 123.154 20.0548 122.895 20.6289C122.645 21.203 122.298 21.7169 121.854 22.1706C121.409 22.615 120.9 22.9669 120.326 23.2261C119.761 23.4854 119.164 23.615 118.534 23.615ZM118.548 22.2539C119.104 22.2539 119.622 22.1011 120.104 21.7956C120.594 21.4808 120.992 21.0734 121.298 20.5734C121.604 20.0734 121.756 19.5409 121.756 18.9761C121.756 18.5132 121.65 18.0919 121.437 17.7122C121.233 17.3234 120.946 17.0132 120.576 16.7817C120.215 16.5409 119.789 16.4206 119.298 16.4206C118.742 16.4206 118.219 16.578 117.729 16.8928C117.247 17.1984 116.854 17.6011 116.548 18.1011C116.242 18.5919 116.09 19.1243 116.09 19.6984C116.09 20.1521 116.191 20.5734 116.395 20.9622C116.608 21.3511 116.9 21.6659 117.27 21.9067C117.641 22.1382 118.066 22.2539 118.548 22.2539ZM128.762 23.6706C128.002 23.6706 127.322 23.5039 126.72 23.1706C126.118 22.8372 125.641 22.3835 125.289 21.8095C124.947 21.2261 124.775 20.5734 124.775 19.8511C124.775 19.2122 124.91 18.6011 125.178 18.0178C125.447 17.4345 125.812 16.9206 126.275 16.4761C126.748 16.0224 127.289 15.6659 127.9 15.4067C128.512 15.1382 129.16 15.0039 129.845 15.0039C130.697 15.0039 131.41 15.203 131.984 15.6011C132.558 15.99 132.961 16.4993 133.192 17.1289C133.424 17.7585 133.451 18.4298 133.275 19.1428L133.123 19.7539H127.678C127.447 19.7539 127.215 19.7446 126.984 19.7261C126.762 19.7076 126.535 19.6845 126.303 19.6567C126.312 20.3882 126.553 21.0039 127.025 21.5039C127.498 22.0039 128.118 22.2539 128.887 22.2539C129.47 22.2539 130.007 22.1058 130.498 21.8095C130.998 21.5132 131.391 21.1335 131.678 20.6706V22.6845C131.271 22.99 130.817 23.2308 130.317 23.4067C129.826 23.5826 129.308 23.6706 128.762 23.6706ZM126.387 18.6289C126.933 18.5456 127.465 18.5039 127.984 18.5039H130.748C130.951 18.5039 131.15 18.5132 131.345 18.5317C131.539 18.5409 131.734 18.5548 131.928 18.5734C131.956 17.9437 131.752 17.4159 131.317 16.99C130.891 16.5548 130.312 16.3372 129.581 16.3372C128.84 16.3372 128.178 16.5595 127.595 17.0039C127.012 17.4391 126.609 17.9808 126.387 18.6289ZM134.18 23.5039L136.264 15.1706H137.764L135.68 23.5039H134.18ZM137.528 13.6706C137.278 13.6706 137.065 13.5872 136.889 13.4206C136.722 13.2539 136.639 13.0456 136.639 12.7956C136.639 12.4993 136.75 12.24 136.972 12.0178C137.203 11.7863 137.463 11.6706 137.75 11.6706C138 11.6706 138.208 11.7539 138.375 11.9206C138.551 12.0872 138.639 12.2956 138.639 12.5456C138.639 12.8419 138.528 13.1058 138.305 13.3372C138.083 13.5595 137.824 13.6706 137.528 13.6706ZM138.34 23.5039L140.424 15.1706H141.813L141.521 16.3511C141.919 15.8974 142.368 15.5595 142.868 15.3372C143.368 15.115 143.873 15.0039 144.382 15.0039C145.132 15.0039 145.729 15.1891 146.174 15.5595C146.618 15.9206 146.905 16.4021 147.035 17.0039C147.174 17.5965 147.155 18.2446 146.979 18.9484L145.84 23.5039H144.34L145.465 18.9761C145.651 18.2354 145.614 17.5965 145.354 17.0595C145.104 16.5224 144.609 16.2539 143.868 16.2539C143.285 16.2539 142.72 16.4669 142.174 16.8928C141.637 17.3095 141.266 17.9159 141.063 18.7122L139.84 23.5039H138.34ZM151.229 27.8372C150.803 27.8372 150.378 27.7817 149.952 27.6706C149.535 27.5595 149.137 27.3928 148.757 27.1706C148.378 26.9484 148.044 26.6706 147.757 26.3372L148.577 24.7261C148.817 25.2909 149.192 25.7169 149.702 26.0039C150.22 26.3002 150.785 26.4484 151.396 26.4484C152.202 26.4484 152.915 26.1937 153.535 25.6845C154.155 25.1752 154.577 24.4946 154.799 23.6428L155.132 22.3928C154.762 22.7632 154.34 23.0595 153.868 23.2817C153.396 23.5039 152.896 23.615 152.368 23.615C151.729 23.615 151.137 23.453 150.59 23.1289C150.053 22.7956 149.618 22.3465 149.285 21.7817C148.961 21.2076 148.799 20.5641 148.799 19.8511C148.799 19.2215 148.928 18.6196 149.188 18.0456C149.447 17.4715 149.799 16.9622 150.243 16.5178C150.688 16.0641 151.192 15.7076 151.757 15.4484C152.331 15.1891 152.928 15.0595 153.549 15.0595C154.178 15.0595 154.753 15.1937 155.271 15.4622C155.799 15.7308 156.234 16.0965 156.577 16.5595L156.924 15.1706H158.313L156.132 23.8928C155.928 24.7261 155.577 25.4345 155.077 26.0178C154.577 26.6104 153.993 27.0595 153.327 27.365C152.66 27.6798 151.961 27.8372 151.229 27.8372ZM152.785 22.2539C153.34 22.2539 153.859 22.1011 154.34 21.7956C154.831 21.4808 155.229 21.0734 155.535 20.5734C155.84 20.0734 155.993 19.5409 155.993 18.9761C155.993 18.5132 155.887 18.0919 155.674 17.7122C155.47 17.3234 155.183 17.0132 154.813 16.7817C154.452 16.5409 154.026 16.4206 153.535 16.4206C152.979 16.4206 152.456 16.578 151.965 16.8928C151.484 17.1984 151.09 17.6011 150.785 18.1011C150.479 18.5919 150.327 19.1243 150.327 19.6984C150.327 20.1521 150.428 20.5734 150.632 20.9622C150.845 21.3511 151.137 21.6659 151.507 21.9067C151.878 22.1382 152.303 22.2539 152.785 22.2539Z" fill="#090B3B"/>
</svg>
