<svg width="99" height="103" viewBox="0 0 99 103" fill="none" xmlns="http://www.w3.org/2000/svg">
<path d="M7.30664 20.25C6.20479 20.25 5.20942 19.9954 4.32053 19.4861C3.4409 18.9769 2.74183 18.287 2.22331 17.4167C1.71405 16.5463 1.45942 15.5741 1.45942 14.5C1.45942 13.5463 1.65849 12.6389 2.05664 11.7778C2.45479 10.9074 2.99646 10.1343 3.68164 9.45833C4.36683 8.77315 5.14923 8.23611 6.02886 7.84722C6.90849 7.44907 7.83442 7.25 8.80664 7.25C9.63072 7.25 10.3946 7.39352 11.0983 7.68056C11.802 7.96759 12.4131 8.36574 12.9316 8.875L11.64 11.5556C11.3529 10.9815 10.9363 10.5231 10.39 10.1806C9.85294 9.83796 9.2372 9.66667 8.54275 9.66667C7.95942 9.66667 7.39923 9.79167 6.8622 10.0417C6.32516 10.2917 5.84831 10.6343 5.43164 11.0694C5.02423 11.4954 4.70016 11.9861 4.45942 12.5417C4.21868 13.088 4.09831 13.662 4.09831 14.2639C4.09831 14.9306 4.25109 15.537 4.55664 16.0833C4.8622 16.6204 5.27886 17.0463 5.80664 17.3611C6.33442 17.6759 6.92701 17.8333 7.58442 17.8333C8.37146 17.8333 9.10294 17.6111 9.77886 17.1667C10.464 16.713 11.0057 16.1435 11.4039 15.4583V18.9167C10.8113 19.3333 10.1631 19.662 9.45942 19.9028C8.76497 20.1343 8.04738 20.25 7.30664 20.25ZM16.7576 20.2778C16.0354 20.2778 15.3687 20.1111 14.7576 19.7778C14.1557 19.4352 13.6743 18.9676 13.3132 18.375C12.952 17.7731 12.7715 17.0926 12.7715 16.3333C12.7715 15.6852 12.9057 15.0648 13.1743 14.4722C13.4428 13.8796 13.8132 13.3519 14.2854 12.8889C14.7576 12.4259 15.2946 12.0602 15.8965 11.7917C16.4983 11.5231 17.1326 11.3889 17.7993 11.3889C18.5585 11.3889 19.2344 11.5648 19.827 11.9167C20.4289 12.2593 20.9011 12.7269 21.2437 13.3194C21.5956 13.912 21.7715 14.5741 21.7715 15.3056C21.7715 15.9537 21.6326 16.5787 21.3548 17.1806C21.0863 17.7731 20.7159 18.3056 20.2437 18.7778C19.7807 19.2407 19.2483 19.6065 18.6465 19.875C18.0446 20.1435 17.415 20.2778 16.7576 20.2778ZM17.0076 18.1111C17.4613 18.1111 17.8733 17.9907 18.2437 17.75C18.6141 17.5093 18.9104 17.1944 19.1326 16.8056C19.3641 16.4074 19.4798 15.9907 19.4798 15.5556C19.4798 15 19.2993 14.5278 18.9382 14.1389C18.577 13.75 18.1094 13.5556 17.5354 13.5556C17.0909 13.5556 16.6789 13.6759 16.2993 13.9167C15.9289 14.1574 15.628 14.4722 15.3965 14.8611C15.1743 15.25 15.0632 15.6667 15.0632 16.1111C15.0632 16.6759 15.2437 17.1528 15.6048 17.5417C15.9752 17.9213 16.4428 18.1111 17.0076 18.1111ZM25.2854 20.2778C24.6372 20.2778 24.0169 20.1389 23.4243 19.8611C22.8409 19.5833 22.4011 19.2361 22.1048 18.8194L23.2576 16.6389C23.4706 17.1204 23.8039 17.5278 24.2576 17.8611C24.7206 18.1944 25.1789 18.3611 25.6326 18.3611C25.9104 18.3611 26.128 18.3009 26.2854 18.1806C26.452 18.0509 26.5354 17.8843 26.5354 17.6806C26.5354 17.5231 26.4937 17.3935 26.4104 17.2917C26.327 17.1806 26.1835 17.0694 25.9798 16.9583L24.9243 16.375C24.452 16.1065 24.0909 15.8102 23.8409 15.4861C23.5909 15.1528 23.4659 14.7593 23.4659 14.3056C23.4659 13.7963 23.6141 13.3241 23.9104 12.8889C24.2159 12.4444 24.6233 12.0833 25.1326 11.8056C25.6419 11.5278 26.202 11.3889 26.8132 11.3889C27.415 11.3889 27.9752 11.5231 28.4937 11.7917C29.0215 12.0509 29.415 12.3796 29.6743 12.7778L28.5909 14.875C28.3594 14.412 28.04 14.037 27.6326 13.75C27.2252 13.4537 26.8224 13.3056 26.4243 13.3056C26.165 13.3056 25.9567 13.3657 25.7993 13.4861C25.6511 13.6065 25.577 13.7593 25.577 13.9444C25.577 14.0833 25.6141 14.2037 25.6882 14.3056C25.7715 14.4074 25.8965 14.5046 26.0632 14.5972L27.0215 15.125C27.6511 15.4676 28.0956 15.8056 28.3548 16.1389C28.6141 16.4722 28.7437 16.8611 28.7437 17.3056C28.7437 17.8241 28.5863 18.3102 28.2715 18.7639C27.9659 19.2176 27.5493 19.5833 27.0215 19.8611C26.503 20.1389 25.9243 20.2778 25.2854 20.2778ZM29.5098 20L31.5931 11.6667H33.7598L33.5653 12.4861C33.9172 12.1157 34.3061 11.8426 34.732 11.6667C35.1672 11.4815 35.6116 11.3889 36.0653 11.3889C36.6672 11.3889 37.1625 11.5185 37.5514 11.7778C37.9496 12.0278 38.2412 12.3565 38.4264 12.7639C38.8246 12.3009 39.2783 11.9583 39.7875 11.7361C40.3061 11.5046 40.8338 11.3889 41.3709 11.3889C42.1579 11.3889 42.7737 11.5741 43.2181 11.9444C43.6718 12.3056 43.9681 12.7731 44.107 13.3472C44.2459 13.9213 44.232 14.5278 44.0653 15.1667L42.8431 20H40.4264L41.6487 15.1944C41.7783 14.713 41.7412 14.2917 41.5375 13.9306C41.3431 13.5694 40.9912 13.3889 40.482 13.3889C40.0838 13.3889 39.7088 13.5231 39.357 13.7917C39.0144 14.0602 38.769 14.4815 38.6209 15.0556L37.3848 20H34.9681L36.1903 15.1944C36.32 14.713 36.2829 14.2917 36.0792 13.9306C35.8848 13.5694 35.5329 13.3889 35.0237 13.3889C34.6255 13.3889 34.2505 13.5231 33.8987 13.7917C33.5468 14.0602 33.3014 14.4815 33.1625 15.0556L31.9264 20H29.5098ZM44.5375 20L46.6209 11.6667H49.0375L46.9542 20H44.5375ZM48.3014 10.4583C47.9866 10.4583 47.7181 10.3519 47.4959 10.1389C47.2737 9.92593 47.1625 9.65278 47.1625 9.31944C47.1625 8.93981 47.3061 8.60648 47.5931 8.31944C47.8894 8.02315 48.2274 7.875 48.607 7.875C48.9311 7.875 49.1996 7.98611 49.4125 8.20833C49.6348 8.4213 49.7459 8.68981 49.7459 9.01389C49.7459 9.39352 49.5977 9.73148 49.3014 10.0278C49.0144 10.3148 48.6811 10.4583 48.3014 10.4583ZM53.5011 20.25C52.7511 20.25 52.0659 20.0833 51.4455 19.75C50.8344 19.4167 50.3437 18.9537 49.9733 18.3611C49.6122 17.7685 49.4316 17.0926 49.4316 16.3333C49.4316 15.6852 49.5659 15.0648 49.8344 14.4722C50.1122 13.8796 50.4872 13.3565 50.9594 12.9028C51.4316 12.4398 51.9733 12.0787 52.5844 11.8194C53.2048 11.5509 53.8576 11.4167 54.5428 11.4167C55.1168 11.4167 55.6353 11.5046 56.0983 11.6806C56.5705 11.8565 56.9826 12.1019 57.3344 12.4167L56.1539 14.8194C56.0242 14.4491 55.7974 14.1481 55.4733 13.9167C55.1492 13.6852 54.7511 13.5694 54.2789 13.5694C53.8066 13.5694 53.3761 13.6898 52.9872 13.9306C52.5983 14.1713 52.2881 14.4861 52.0566 14.875C51.8344 15.2546 51.7233 15.6667 51.7233 16.1111C51.7233 16.6759 51.9085 17.1481 52.2789 17.5278C52.6492 17.8981 53.14 18.0833 53.7511 18.0833C54.3715 18.0833 54.8992 17.9213 55.3344 17.5972C55.7696 17.2731 56.0752 16.9537 56.2511 16.6389V19.3889C55.8992 19.6759 55.4826 19.8889 55.0011 20.0278C54.5289 20.1759 54.0289 20.25 53.5011 20.25ZM61.7233 20L64.8483 7.5H68.39C69.4918 7.5 70.4826 7.74537 71.3622 8.23611C72.2511 8.72685 72.9502 9.38889 73.4594 10.2222C73.9779 11.0556 74.2372 11.9954 74.2372 13.0417C74.2372 13.9583 74.0381 14.8333 73.64 15.6667C73.2418 16.5 72.7002 17.2454 72.015 17.9028C71.3298 18.5509 70.5474 19.0648 69.6678 19.4444C68.7881 19.8148 67.8622 20 66.89 20H61.7233ZM64.6955 17.75H67.0011C67.6122 17.75 68.1909 17.6296 68.7372 17.3889C69.2928 17.1389 69.7835 16.8056 70.2094 16.3889C70.6446 15.963 70.9826 15.4769 71.2233 14.9306C71.4733 14.3843 71.5983 13.8102 71.5983 13.2083C71.5983 12.5324 71.4409 11.9352 71.1261 11.4167C70.8205 10.8981 70.3946 10.4907 69.8483 10.1944C69.302 9.89815 68.6724 9.75 67.9594 9.75H66.7094L64.6955 17.75ZM77.6868 20.2778C76.9368 20.2778 76.3396 20.0926 75.8952 19.7222C75.46 19.3426 75.173 18.8611 75.0341 18.2778C74.9044 17.6852 74.9183 17.0648 75.0757 16.4167L76.2702 11.6667H78.6868L77.4924 16.3889C77.372 16.8889 77.4137 17.3287 77.6174 17.7083C77.8211 18.088 78.1915 18.2778 78.7285 18.2778C79.1452 18.2778 79.5341 18.1389 79.8952 17.8611C80.2656 17.5741 80.5248 17.1296 80.673 16.5278L81.9091 11.6667H84.3257L82.2424 20H80.0757L80.2841 19.1111C79.923 19.5093 79.5156 19.8056 79.0618 20C78.6174 20.1852 78.1591 20.2778 77.6868 20.2778ZM87.219 20.2778C86.5708 20.2778 85.9504 20.1389 85.3579 19.8611C84.7745 19.5833 84.3347 19.2361 84.0384 18.8194L85.1912 16.6389C85.4042 17.1204 85.7375 17.5278 86.1912 17.8611C86.6542 18.1944 87.1125 18.3611 87.5662 18.3611C87.844 18.3611 88.0616 18.3009 88.219 18.1806C88.3856 18.0509 88.469 17.8843 88.469 17.6806C88.469 17.5231 88.4273 17.3935 88.344 17.2917C88.2606 17.1806 88.1171 17.0694 87.9134 16.9583L86.8579 16.375C86.3856 16.1065 86.0245 15.8102 85.7745 15.4861C85.5245 15.1528 85.3995 14.7593 85.3995 14.3056C85.3995 13.7963 85.5477 13.3241 85.844 12.8889C86.1495 12.4444 86.5569 12.0833 87.0662 11.8056C87.5754 11.5278 88.1356 11.3889 88.7467 11.3889C89.3486 11.3889 89.9088 11.5231 90.4273 11.7917C90.9551 12.0509 91.3486 12.3796 91.6079 12.7778L90.5245 14.875C90.293 14.412 89.9736 14.037 89.5662 13.75C89.1588 13.4537 88.756 13.3056 88.3579 13.3056C88.0986 13.3056 87.8903 13.3657 87.7329 13.4861C87.5847 13.6065 87.5106 13.7593 87.5106 13.9444C87.5106 14.0833 87.5477 14.2037 87.6217 14.3056C87.7051 14.4074 87.8301 14.5046 87.9967 14.5972L88.9551 15.125C89.5847 15.4676 90.0292 15.8056 90.2884 16.1389C90.5477 16.4722 90.6773 16.8611 90.6773 17.3056C90.6773 17.8241 90.5199 18.3102 90.2051 18.7639C89.8995 19.2176 89.4829 19.5833 88.9551 19.8611C88.4366 20.1389 87.8579 20.2778 87.219 20.2778ZM92.4156 20L94.0267 13.5833H92.4711L92.9434 11.6667H94.5406L95.235 8.88889H97.5684L96.8878 11.6667H98.5267L98.0545 13.5833H96.4434L94.8322 20H92.4156Z" fill="#AEB1E7"/>
<path d="M78.2514 35.5814C77.234 34.4045 75.4556 33.9871 73.0176 34.3531C70.5795 34.7191 67.5297 35.8612 64.0423 37.7143C60.5548 39.5674 56.6979 42.0951 52.6919 45.1532C48.6859 48.2113 44.6092 51.7398 40.6945 55.5374C36.7798 59.3349 33.1039 63.327 29.8765 67.2859C26.6492 71.2447 23.9336 75.0927 21.8849 78.6101C19.8362 82.1275 18.4945 85.2455 17.9364 87.7861C17.3782 90.3266 17.6146 92.2399 18.6319 93.4168L21.6129 90.525C20.6973 89.4658 20.4846 87.7438 20.9869 85.4574C21.4892 83.1709 22.6968 80.3647 24.5406 77.199C26.3844 74.0333 28.8284 70.5701 31.733 67.0072C34.6377 63.4442 37.946 59.8513 41.4692 56.4335C44.9924 53.0158 48.6615 49.8401 52.2669 47.0878C55.8723 44.3355 59.3435 42.0605 62.4822 40.3928C65.6209 38.725 68.3658 37.6971 70.56 37.3677C72.7542 37.0383 74.3548 37.4139 75.2704 38.4731L78.2514 35.5814Z" fill="#FF5C75"/>
<path d="M84.7206 44.2821C84.0425 42.882 82.4327 42.0185 79.983 41.741C77.5334 41.4635 74.2919 41.7774 70.4436 42.6647C66.5953 43.552 62.2157 44.9954 57.5547 46.9125C52.8937 48.8295 48.0426 51.1827 43.2784 53.8377C38.5143 56.4926 33.9303 59.3973 29.7883 62.3859C25.6463 65.3746 22.0274 68.3886 19.1381 71.2559C16.2489 74.1233 14.1459 76.7877 12.9492 79.0972C11.7525 81.4068 11.4856 83.3161 12.1637 84.7161L15.7916 82.6944C15.1813 81.4344 15.4215 79.716 16.4985 77.6374C17.5755 75.5589 19.4682 73.1608 22.0685 70.5802C24.6689 67.9996 27.9259 65.287 31.6537 62.5972C35.3815 59.9075 39.5071 57.2932 43.7948 54.9038C48.0826 52.5144 52.4485 50.3965 56.6434 48.6711C60.8383 46.9458 64.78 45.6467 68.2435 44.8482C71.7069 44.0496 74.6242 43.7671 76.8289 44.0168C79.0336 44.2666 80.4825 45.0437 81.0928 46.3038L84.7206 44.2821Z" fill="#924E8F"/>
<path d="M32.8003 40.1221C37.8872 40.1222 42.3584 42.7564 44.9263 46.7344C47.2524 45.1272 50.0734 44.1855 53.1147 44.1855C56.1113 44.1855 58.8944 45.0989 61.2007 46.6631C62.8663 45.1251 65.0927 44.1855 67.5386 44.1855C72.6994 44.1857 76.8833 48.3694 76.8833 53.5303C76.8833 53.9748 76.8496 54.4118 76.7896 54.8398C82.9288 56.4962 87.4467 62.1029 87.4468 68.7656C87.4468 76.7315 80.9888 83.1895 73.0229 83.1895C70.0519 83.1894 67.2912 82.2899 64.9966 80.75C62.7323 83.7133 59.1633 85.627 55.146 85.627C52.6801 85.6269 50.3841 84.9038 48.4536 83.6621C46.088 85.6486 43.0373 86.8457 39.7065 86.8457C34.4767 86.8456 29.9368 83.8958 27.6577 79.5693C25.8972 81.3045 23.4811 82.377 20.814 82.377C15.4289 82.3768 11.0632 78.0111 11.063 72.626C11.063 67.2407 15.4287 62.8742 20.814 62.874C20.8847 62.874 20.9555 62.8774 21.0259 62.8789C19.3573 60.5256 18.3765 57.6503 18.3765 54.5459C18.3765 46.58 24.8344 40.1221 32.8003 40.1221Z" fill="#AEB1E7"/>
<circle cx="28.5336" cy="55.56" r="3.65666" fill="#F5FDA1"/>
<path d="M84.7206 44.2821C85.3987 45.6821 85.1318 47.5914 83.9352 49.9009C82.7385 52.2105 80.6355 54.8749 77.7462 57.7423C74.857 60.6096 71.238 63.6236 67.096 66.6123C62.954 69.6009 58.3701 72.5056 53.6059 75.1605C48.8418 77.8155 43.9907 80.1687 39.3297 82.0857C34.6687 84.0028 30.289 85.4462 26.4408 86.3335C22.5925 87.2208 19.351 87.5347 16.9013 87.2572C14.4517 86.9797 12.8418 86.1162 12.1637 84.7161L15.7916 82.6944C16.4019 83.9545 17.8507 84.7316 20.0554 84.9814C22.2601 85.2311 25.1775 84.9486 28.6409 84.15C32.1043 83.3515 36.046 82.0524 40.2409 80.3271C44.4358 78.6017 48.8018 76.4838 53.0895 74.0944C57.3773 71.705 61.5028 69.0907 65.2306 66.4009C68.9584 63.7112 72.2155 60.9986 74.8158 58.418C77.4162 55.8374 79.3089 53.4393 80.3859 51.3608C81.4629 49.2822 81.7031 47.5638 81.0928 46.3038L84.7206 44.2821Z" fill="#924E8F"/>
<path d="M78.2514 35.5814C79.2688 36.7582 79.5051 38.6715 78.947 41.2121C78.3888 43.7526 77.0471 46.8706 74.9984 50.388C72.9497 53.9055 70.2342 57.7534 67.0068 61.7123C63.7795 65.6711 60.1035 69.6632 56.1888 73.4608C52.2742 77.2583 48.1974 80.7868 44.1914 83.8449C40.1854 86.903 36.3286 89.4308 32.8411 91.2838C29.3536 93.1369 26.3038 94.2791 23.8658 94.645C21.4278 95.011 19.6493 94.5936 18.6319 93.4168L21.6129 90.525C22.5285 91.5842 24.1292 91.9598 26.3234 91.6304C28.5176 91.3011 31.2624 90.2731 34.4011 88.6054C37.5399 86.9376 41.011 84.6626 44.6165 81.9103C48.2219 79.1581 51.8909 75.9824 55.4141 72.5646C58.9373 69.1468 62.2457 65.5539 65.1503 61.9909C68.0549 58.428 70.4989 54.9648 72.3427 51.7991C74.1866 48.6335 75.3941 45.8273 75.8964 43.5408C76.3988 41.2543 76.1861 39.5323 75.2704 38.4731L78.2514 35.5814Z" fill="#FF5C75"/>
<path d="M52.9116 75.9235C58.836 75.7292 63.4209 70.8726 63.6785 59.2168C63.8845 70.8726 68.4694 75.6321 74.4453 75.8264C68.4694 76.1178 63.8845 80.7801 63.6785 92.5331C63.4209 80.7801 58.836 76.2149 52.9116 75.9235Z" fill="#F5FDA1"/>
</svg>
