<svg width="368" height="217" viewBox="0 0 368 217" fill="none" xmlns="http://www.w3.org/2000/svg">
<path d="M108.498 98.235C122.319 98.235 135.999 101.139 148.754 106.775C161.508 112.41 173.083 120.663 182.821 131.051C192.559 141.439 200.273 153.758 205.532 167.301C210.791 180.844 213.496 195.353 213.496 210V213.5H3.5V210C3.50003 195.353 6.20485 180.844 11.4639 167.301C16.723 153.758 24.4367 141.439 34.1748 131.051C43.9135 120.663 55.4876 112.41 68.2422 106.775C80.9974 101.139 94.6771 98.235 108.498 98.235Z" fill="#A5B1E5" stroke="#090B3B" stroke-width="7"/>
<path d="M109.803 3.5C135.794 3.5 157.361 22.9803 157.361 47.5996C157.361 72.2188 135.794 91.6982 109.803 91.6982C83.8119 91.6982 62.2443 72.2188 62.2441 47.5996C62.2441 22.9803 83.8118 3.50002 109.803 3.5Z" fill="#A5B1E5" stroke="#090B3B" stroke-width="7"/>
<path d="M258.684 98.235C272.505 98.235 286.184 101.139 298.939 106.775C311.694 112.41 323.268 120.663 333.007 131.051C342.745 141.439 350.459 153.758 355.718 167.301C360.977 180.844 363.682 195.353 363.682 210V213.5H153.686V210C153.686 195.353 156.39 180.844 161.649 167.301C166.909 153.758 174.622 141.439 184.36 131.051C194.099 120.663 205.673 112.41 218.428 106.775C231.183 101.139 244.863 98.235 258.684 98.235Z" fill="#A5B1E5" stroke="#090B3B" stroke-width="7"/>
<path d="M259.988 3.5C285.979 3.5 307.547 22.9803 307.547 47.5996C307.547 72.2188 285.979 91.6982 259.988 91.6982C233.997 91.6982 212.43 72.2188 212.43 47.5996C212.43 22.9803 233.997 3.50002 259.988 3.5Z" fill="#A5B1E5" stroke="#090B3B" stroke-width="7"/>
<path d="M181.579 98.235C195.4 98.235 209.08 101.139 221.835 106.775C234.589 112.41 246.164 120.663 255.902 131.051C265.64 141.439 273.354 153.758 278.613 167.301C283.872 180.844 286.577 195.353 286.577 210V213.5H76.5811V210C76.5811 195.353 79.2859 180.844 84.5449 167.301C89.8041 153.758 97.5177 141.439 107.256 131.051C116.995 120.663 128.569 112.41 141.323 106.775C154.078 101.139 167.758 98.235 181.579 98.235Z" fill="#A5B1E5" stroke="#090B3B" stroke-width="7"/>
<path d="M182.883 3.5C208.874 3.5 230.441 22.9803 230.441 47.5996C230.441 72.2188 208.874 91.6982 182.883 91.6982C156.892 91.6982 135.324 72.2188 135.324 47.5996C135.324 22.9803 156.892 3.50002 182.883 3.5Z" fill="#A5B1E5" stroke="#090B3B" stroke-width="7"/>
</svg>
