<svg width="308" height="228" viewBox="0 0 308 228" fill="none" xmlns="http://www.w3.org/2000/svg">
<path d="M133.578 20.25C132.476 20.25 131.481 19.9954 130.592 19.4861C129.712 18.9769 129.013 18.287 128.495 17.4167C127.986 16.5463 127.731 15.5741 127.731 14.5C127.731 13.5463 127.93 12.6389 128.328 11.7778C128.726 10.9074 129.268 10.1343 129.953 9.45833C130.638 8.77315 131.421 8.23611 132.3 7.84722C133.18 7.44907 134.106 7.25 135.078 7.25C135.902 7.25 136.666 7.39352 137.37 7.68056C138.073 7.96759 138.685 8.36574 139.203 8.875L137.911 11.5556C137.624 10.9815 137.208 10.5231 136.661 10.1806C136.124 9.83796 135.509 9.66667 134.814 9.66667C134.231 9.66667 133.671 9.79167 133.134 10.0417C132.597 10.2917 132.12 10.6343 131.703 11.0694C131.296 11.4954 130.972 11.9861 130.731 12.5417C130.49 13.088 130.37 13.662 130.37 14.2639C130.37 14.9306 130.523 15.537 130.828 16.0833C131.134 16.6204 131.55 17.0463 132.078 17.3611C132.606 17.6759 133.198 17.8333 133.856 17.8333C134.18 17.8333 134.49 17.7963 134.786 17.7222C135.092 17.6389 135.374 17.5278 135.634 17.3889L136.189 15.0833H133.648L134.161 13H138.981L137.523 19.0139C136.939 19.412 136.314 19.7176 135.648 19.9306C134.981 20.1435 134.291 20.25 133.578 20.25ZM143.227 20.1944C142.569 20.1944 141.972 20.0324 141.435 19.7083C140.907 19.375 140.49 18.9259 140.185 18.3611C139.879 17.787 139.727 17.1481 139.727 16.4444C139.727 15.7778 139.861 15.1481 140.129 14.5556C140.398 13.9537 140.759 13.4213 141.213 12.9583C141.676 12.4954 142.199 12.1343 142.782 11.875C143.365 11.6065 143.972 11.4722 144.602 11.4722C145.139 11.4722 145.639 11.5694 146.102 11.7639C146.574 11.9491 146.977 12.2176 147.31 12.5694L147.532 11.6667H149.615L147.546 20H145.463L145.643 19.2917C145.31 19.5602 144.94 19.7778 144.532 19.9444C144.125 20.1111 143.69 20.1944 143.227 20.1944ZM143.893 18.0694C144.338 18.0694 144.745 17.9537 145.115 17.7222C145.486 17.4815 145.782 17.1713 146.004 16.7917C146.227 16.4028 146.338 15.9907 146.338 15.5556C146.338 15.1852 146.254 14.8565 146.088 14.5694C145.93 14.2731 145.708 14.0417 145.421 13.875C145.134 13.6991 144.801 13.6111 144.421 13.6111C143.977 13.6111 143.569 13.7315 143.199 13.9722C142.828 14.2037 142.532 14.5093 142.31 14.8889C142.088 15.2685 141.977 15.6759 141.977 16.1111C141.977 16.4722 142.055 16.8009 142.213 17.0972C142.379 17.3935 142.606 17.6296 142.893 17.8056C143.19 17.9815 143.523 18.0694 143.893 18.0694ZM149.403 20L152.736 6.66667H155.153L151.819 20H149.403ZM157.797 20.1944C157.139 20.1944 156.542 20.0324 156.005 19.7083C155.477 19.375 155.061 18.9259 154.755 18.3611C154.45 17.787 154.297 17.1481 154.297 16.4444C154.297 15.7778 154.431 15.1481 154.7 14.5556C154.968 13.9537 155.329 13.4213 155.783 12.9583C156.246 12.4954 156.769 12.1343 157.352 11.875C157.936 11.6065 158.542 11.4722 159.172 11.4722C159.709 11.4722 160.209 11.5694 160.672 11.7639C161.144 11.9491 161.547 12.2176 161.88 12.5694L162.102 11.6667H164.186L162.116 20H160.033L160.214 19.2917C159.88 19.5602 159.51 19.7778 159.102 19.9444C158.695 20.1111 158.26 20.1944 157.797 20.1944ZM158.464 18.0694C158.908 18.0694 159.315 17.9537 159.686 17.7222C160.056 17.4815 160.352 17.1713 160.575 16.7917C160.797 16.4028 160.908 15.9907 160.908 15.5556C160.908 15.1852 160.825 14.8565 160.658 14.5694C160.501 14.2731 160.278 14.0417 159.991 13.875C159.704 13.6991 159.371 13.6111 158.991 13.6111C158.547 13.6111 158.139 13.7315 157.769 13.9722C157.399 14.2037 157.102 14.5093 156.88 14.8889C156.658 15.2685 156.547 15.6759 156.547 16.1111C156.547 16.4722 156.626 16.8009 156.783 17.0972C156.95 17.3935 157.177 17.6296 157.464 17.8056C157.76 17.9815 158.093 18.0694 158.464 18.0694ZM163.195 20L167.32 15.4722L165.529 11.6667H168.001L168.404 12.5972C168.478 12.7731 168.552 12.963 168.626 13.1667C168.7 13.3611 168.769 13.5648 168.834 13.7778C168.982 13.5648 169.135 13.3611 169.293 13.1667C169.45 12.9722 169.607 12.787 169.765 12.6111L170.598 11.6667H173.32L169.82 15.4583L171.876 20H169.32L168.57 18.2083C168.515 18.0787 168.455 17.9398 168.39 17.7917C168.334 17.6435 168.274 17.4815 168.209 17.3056C168.107 17.4722 168.001 17.6296 167.89 17.7778C167.779 17.9167 167.668 18.0509 167.556 18.1806L165.973 20H163.195ZM171.457 24.1667L175.735 18.4167L174.082 11.6667H176.582L177.304 14.7222C177.369 15 177.42 15.2546 177.457 15.4861C177.494 15.7083 177.522 15.9213 177.54 16.125C177.67 15.9213 177.814 15.7083 177.971 15.4861C178.128 15.2546 178.309 15 178.513 14.7222L180.763 11.6667H183.499L174.221 24.1667H171.457Z" fill="#AEB1E7"/>
<ellipse cx="161.24" cy="142.477" rx="99.6801" ry="74.912" fill="#AEB1E7"/>
<path d="M81.2014 113.712C80.9313 116.27 80.86 118.849 80.997 121.441C83.1644 162.455 136.668 191.351 200.5 185.981C247.255 182.048 286.582 160.82 303.426 133.626C304.001 146.196 299.483 158.976 290.286 170.77C281.009 182.667 267.283 193.165 250.414 201.263C233.545 209.36 214.095 214.789 193.916 217.032C173.737 219.275 153.501 218.259 135.134 214.078C116.768 209.897 100.881 202.691 88.9884 193.148C77.096 183.605 69.593 172.041 67.1932 159.558C64.7934 147.074 67.5766 134.085 75.2789 121.83C77.0191 119.062 78.9989 116.352 81.2014 113.712Z" fill="#AEB1E7"/>
<path d="M236.664 162.602C236.768 160.026 236.669 157.45 236.358 154.885C231.423 114.254 175.031 91.4457 110.402 103.941C62.8903 113.127 24.1552 138.836 8.9299 167.952C7.42023 155.409 11.1677 142.063 19.8183 129.184C28.4801 116.288 41.7687 104.289 58.4185 94.3283C75.0687 84.3674 94.5265 76.7763 114.939 72.2789C135.351 67.7815 156.038 66.5273 175.031 68.6348C194.024 70.7424 210.69 76.1423 223.443 84.3199C236.195 92.4975 244.609 103.181 247.884 115.352C251.16 127.524 249.187 140.78 242.153 153.857C240.566 156.808 238.73 159.727 236.664 162.602Z" fill="#AEB1E7"/>
<path d="M298.128 117.555C296.867 120.84 291.984 124.833 283.756 129.306C275.528 133.779 264.117 138.644 250.174 143.624C236.231 148.604 220.03 153.601 202.495 158.33C184.96 163.059 166.435 167.426 147.978 171.184C129.52 174.942 111.492 178.016 94.9213 180.23C78.3511 182.445 63.5638 183.757 51.4036 184.091C39.2434 184.425 29.9485 183.775 24.0496 182.179C18.1507 180.582 15.7634 178.069 17.0238 174.784L24.0514 173.353C22.854 176.474 25.122 178.861 30.726 180.378C36.3299 181.895 45.16 182.513 56.7122 182.195C68.2644 181.877 82.3124 180.631 98.0541 178.527C113.796 176.423 130.923 173.503 148.458 169.933C165.992 166.364 183.591 162.214 200.249 157.722C216.907 153.229 232.299 148.482 245.544 143.751C258.79 139.021 269.63 134.399 277.447 130.149C285.263 125.9 289.903 122.107 291.1 118.986L298.128 117.555Z" fill="white"/>
<ellipse cx="161.246" cy="142.478" rx="99.6801" ry="74.912" fill="#924E8F"/>
<ellipse cx="161.247" cy="142.478" rx="82.3444" ry="61.7887" fill="#FF5C75"/>
<ellipse cx="160.812" cy="142.479" rx="60.2414" ry="45.3847" fill="#F5FDA1"/>
<ellipse cx="161.246" cy="141.93" rx="34.6713" ry="26.2465" fill="#A6FFD6"/>
<circle cx="240.67" cy="70.4205" r="2.22704" transform="rotate(-36.8793 240.67 70.4205)" fill="#A6FFD6"/>
<circle cx="265.911" cy="155.045" r="2.22704" transform="rotate(-36.8793 265.911 155.045)" fill="#A6FFD6"/>
<circle cx="282.242" cy="120.899" r="2.22704" transform="rotate(-36.8793 282.242 120.899)" fill="#A6FFD6"/>
<circle cx="276.304" cy="100.113" r="2.22704" transform="rotate(-36.8793 276.304 100.113)" fill="#A6FFD6"/>
<circle cx="85.3716" cy="209.088" r="2.22704" fill="#A6FFD6"/>
<circle cx="107.643" cy="216.513" r="2.22704" fill="#A6FFD6"/>
<circle cx="64.5854" cy="201.666" r="2.22704" fill="#A6FFD6"/>
<circle cx="48.2539" cy="192.758" r="2.22704" fill="#A6FFD6"/>
<circle cx="205.038" cy="65.9654" r="2.22704" transform="rotate(-36.8793 205.038 65.9654)" fill="#A6FFD6"/>
<circle cx="252.848" cy="89.1246" r="2.22704" transform="rotate(-36.8793 252.848 89.1246)" fill="#A6FFD6"/>
<circle cx="225.823" cy="76.359" r="2.22704" transform="rotate(-36.8793 225.823 76.359)" fill="#A6FFD6"/>
<circle cx="79.4331" cy="194.243" r="2.22704" fill="#A6FFD6"/>
<circle cx="49.7392" cy="210.573" r="2.22704" fill="#A6FFD6"/>
<circle cx="82.4018" cy="222.451" r="2.22704" fill="#A6FFD6"/>
<circle cx="54.1909" cy="174.941" r="2.22704" fill="#A6FFD6"/>
<path d="M261.198 113.595L262.717 114.151L263.716 112.878L263.656 114.495L265.175 115.052L263.619 115.495L263.559 117.111L262.657 115.768L261.101 116.211L262.1 114.938L261.198 113.595Z" fill="#AEB1E7"/>
<path d="M55.6004 142.11L56.4816 143.467L58.0445 143.048L57.0263 144.306L57.9075 145.663L56.3969 145.083L55.3787 146.34L55.4634 144.725L53.9528 144.145L55.5157 143.726L55.6004 142.11Z" fill="#AEB1E7"/>
<path d="M210.718 61.6308L212.237 62.1874L213.236 60.9144L213.176 62.5314L214.696 63.088L213.139 63.5307L213.079 65.1476L212.177 63.8043L210.621 64.247L211.62 62.9741L210.718 61.6308Z" fill="#AEB1E7"/>
<circle cx="278.382" cy="143.763" r="2.22704" fill="#A6FFD6"/>
<path d="M67.4793 183.683L68.3605 185.04L69.9234 184.622L68.9052 185.879L69.7864 187.236L68.2758 186.656L67.2576 187.914L67.3423 186.298L65.8317 185.718L67.3946 185.299L67.4793 183.683Z" fill="#AEB1E7"/>
<path d="M298.128 117.555C299.421 114.187 296.877 111.631 290.648 110.042C284.42 108.452 274.637 107.862 261.884 108.306C249.131 108.751 233.673 110.221 216.435 112.628C199.198 115.035 180.537 118.329 161.572 122.314C142.607 126.298 123.729 130.891 106.07 135.816C88.4107 140.741 72.3346 145.897 58.8058 150.974C45.2771 156.051 34.5746 160.946 27.3402 165.364C20.1058 169.781 16.4886 173.632 16.7057 176.683L23.7492 175.157C23.543 172.258 26.9793 168.601 33.852 164.404C40.7246 160.207 50.8921 155.557 63.7444 150.734C76.5966 145.91 91.8689 141.012 108.645 136.334C125.421 131.655 143.356 127.292 161.372 123.507C179.389 119.721 197.117 116.591 213.492 114.305C229.868 112.018 244.554 110.622 256.669 110.2C268.784 109.777 278.078 110.338 283.995 111.848C289.911 113.358 292.328 115.786 291.1 118.986L298.128 117.555Z" fill="white"/>
</svg>
