<svg width="388" height="209" viewBox="0 0 388 209" fill="none" xmlns="http://www.w3.org/2000/svg">
<circle cx="64.1214" cy="47.083" r="32.0935" fill="#AEB1E7" stroke="#090B3B" stroke-width="7"/>
<path d="M3.5 111.464C3.5 105.941 7.97715 101.464 13.5 101.464H374.165C379.688 101.464 384.165 105.941 384.165 111.464V155.651C384.165 161.174 379.688 165.651 374.165 165.651H13.5C7.97715 165.651 3.5 161.174 3.5 155.651V111.464Z" fill="#AEB1E7" stroke="#090B3B" stroke-width="7"/>
<rect x="23.2666" y="143.364" width="17" height="62" rx="8.5" fill="#AEB1E7" stroke="#090B3B" stroke-width="7"/>
<rect x="340.267" y="143.364" width="17" height="62" rx="8.5" fill="#AEB1E7" stroke="#090B3B" stroke-width="7"/>
<rect x="10.6318" y="101.464" width="22.2872" height="81.1254" rx="10" transform="rotate(-90 10.6318 101.464)" fill="#AEB1E7" stroke="#090B3B" stroke-width="7"/>
<path d="M266.061 7.51562C279.873 -2.77154 299.364 8.04757 297.938 25.2109L293.315 80.8906C292.454 91.2588 283.788 99.2354 273.384 99.2354H257.597L262.449 49.7578L204.868 92.7314C201.613 89.1742 199.627 84.4369 199.627 79.2354V67.0352C199.627 60.7166 202.613 54.7693 207.681 50.9951L266.061 7.51562Z" fill="#AEB1E7"/>
<path d="M266.061 7.51562L268.151 10.3227V10.3227L266.061 7.51562ZM297.938 25.2109L294.45 24.9213V24.9213L297.938 25.2109ZM293.315 80.8906L296.803 81.1803L296.803 81.1802L293.315 80.8906ZM257.597 99.2354L254.113 98.8937L253.737 102.735H257.597V99.2354ZM262.449 49.7578L265.933 50.0994L266.706 42.2137L260.356 46.9529L262.449 49.7578ZM204.868 92.7314L202.286 95.0941L204.424 97.4305L206.962 95.5364L204.868 92.7314ZM199.627 79.2354H196.127V79.2354L199.627 79.2354ZM199.627 67.0352L196.127 67.0351V67.0352H199.627ZM207.681 50.9951L205.59 48.1881L205.59 48.1881L207.681 50.9951ZM266.061 7.51562L268.151 10.3227C279.546 1.83575 295.626 10.7615 294.45 24.9213L297.938 25.2109L301.426 25.5006C303.101 5.3336 280.2 -7.37883 263.97 4.70859L266.061 7.51562ZM297.938 25.2109L294.45 24.9213L289.827 80.601L293.315 80.8906L296.803 81.1802L301.426 25.5005L297.938 25.2109ZM293.315 80.8906L289.827 80.6009C289.117 89.1547 281.967 95.7354 273.384 95.7354V99.2354V102.735C285.608 102.735 295.792 93.363 296.803 81.1803L293.315 80.8906ZM273.384 99.2354V95.7354H257.597V99.2354V102.735H273.384V99.2354ZM257.597 99.2354L261.08 99.577L265.933 50.0994L262.449 49.7578L258.966 49.4162L254.113 98.8937L257.597 99.2354ZM262.449 49.7578L260.356 46.9529L202.775 89.9265L204.868 92.7314L206.962 95.5364L264.543 52.5628L262.449 49.7578ZM204.868 92.7314L207.45 90.3688C204.763 87.4311 203.127 83.5281 203.127 79.2353L199.627 79.2354L196.127 79.2354C196.127 85.3456 198.464 90.9172 202.286 95.0941L204.868 92.7314ZM199.627 79.2354H203.127V67.0352H199.627H196.127V79.2354H199.627ZM199.627 67.0352L203.127 67.0352C203.127 61.8223 205.591 56.9158 209.771 53.8021L207.681 50.9951L205.59 48.1881C199.636 52.6228 196.127 59.6108 196.127 67.0351L199.627 67.0352ZM207.681 50.9951L209.771 53.8022L268.151 10.3227L266.061 7.51562L263.97 4.70859L205.59 48.1881L207.681 50.9951Z" fill="#090B3B"/>
<path d="M91.7573 74.2149C91.7573 63.1692 100.712 54.2148 111.757 54.2148H201.185C208.238 54.2148 213.99 59.8667 214.114 66.9185C214.238 73.9704 219.99 79.6222 227.042 79.6222H350.512C360.236 79.6222 368.118 87.5051 368.118 97.2291C368.118 106.953 360.236 114.836 350.512 114.836H197.399L234.071 151.508C241.632 159.069 238.315 171.969 228.045 174.946C223.158 176.363 217.887 175.028 214.264 171.456L162.676 120.594C158.934 116.904 153.89 114.836 148.635 114.836H111.757C100.712 114.836 91.7573 105.882 91.7573 94.836V74.2149Z" fill="#AEB1E7" stroke="#090B3B" stroke-width="7"/>
</svg>
