<svg width="254" height="314" viewBox="0 0 254 314" fill="none" xmlns="http://www.w3.org/2000/svg">
<path d="M7 126.601C7 60.5473 60.5473 7 126.601 7C192.655 7 246.203 60.5473 246.203 126.601V261.153H7V126.601Z" fill="#AEB1E7"/>
<path d="M126.602 3.5C194.588 3.50013 249.703 58.6147 249.703 126.602V264.652H3.5V126.602C3.5 58.6146 58.6146 3.5 126.602 3.5Z" stroke="#090B3B" stroke-opacity="0.48" stroke-width="7"/>
<path d="M126.602 225.759C159.893 225.759 190.175 230.14 212.254 237.316C223.274 240.897 232.446 245.237 238.937 250.224C245.377 255.173 249.703 261.192 249.703 268.129C249.703 275.067 245.377 281.086 238.937 286.035C232.446 291.022 223.274 295.362 212.254 298.944C190.175 306.12 159.893 310.5 126.602 310.5C93.3104 310.5 63.0274 306.12 40.9482 298.944C29.9282 295.362 20.7568 291.022 14.2666 286.035C7.82633 281.086 3.5 275.067 3.5 268.129C3.50013 261.192 7.82639 255.173 14.2666 250.224C20.7568 245.237 29.9283 240.897 40.9482 237.316C63.0274 230.14 93.3104 225.759 126.602 225.759Z" fill="#AEB1E7" stroke="#090B3B" stroke-width="7"/>
<path d="M144.265 115.128L145.27 116.908L175.588 170.636C178.684 176.123 177.068 183.067 171.866 186.622C166.084 190.574 158.167 188.826 154.586 182.808L149.434 174.148V273.276C149.434 279.523 144.37 284.586 138.124 284.586C131.878 284.586 126.813 279.523 126.813 273.276V205.801H126.376V272.904C126.376 279.356 121.146 284.586 114.694 284.586C108.243 284.586 103.013 279.356 103.013 272.904V174.148L97.0479 184.174C93.9131 189.442 87.1579 191.265 81.7988 188.288C76.3937 185.286 74.391 178.505 77.2969 173.048L107.148 116.983L108.137 115.128H144.265Z" fill="#AEB1E7" stroke="#090B3B" stroke-width="7"/>
<circle cx="127.1" cy="98.1961" r="23.9319" fill="#AEB1E7" stroke="#090B3B" stroke-width="7"/>
</svg>
