<svg width="107" height="57" viewBox="0 0 107 57" fill="none" xmlns="http://www.w3.org/2000/svg">
<path d="M0 17.25C0 7.72309 7.72309 0 17.25 0H89.75C99.2769 0 107 7.72309 107 17.25C107 26.7769 99.2769 34.5 89.75 34.5H59.125L45.9375 56.5L32.75 34.5H17.25C7.72309 34.5 0 26.7769 0 17.25Z" fill="#AEB1E7"/>
<path d="M15.0482 24L18.1732 11.5H24.3398L23.9926 12.9167H19.4093L18.7426 15.5833H22.9093L22.5621 17H18.3815L16.6315 24H15.0482ZM26.0729 24.1667C25.3229 24.1667 24.7257 23.9861 24.2812 23.625C23.8368 23.2546 23.5451 22.7731 23.4063 22.1806C23.2766 21.5787 23.2998 20.9259 23.4757 20.2222L24.6146 15.6667H26.1146L24.9896 20.1944C24.8137 20.9259 24.8507 21.5648 25.1007 22.1111C25.3507 22.6481 25.8461 22.9167 26.5868 22.9167C27.1701 22.9167 27.7303 22.7083 28.2674 22.2917C28.8137 21.8657 29.1887 21.2546 29.3924 20.4583L30.6146 15.6667H32.1146L30.0313 24H28.6424L28.934 22.8194C28.5359 23.2731 28.0868 23.6111 27.5868 23.8333C27.0868 24.0556 26.5822 24.1667 26.0729 24.1667ZM32.6979 24L36.0313 10.6667H37.5312L34.1979 24H32.6979ZM37.8303 24L39.5942 16.9167H37.7053L38.0247 15.6667H39.9414L40.4275 13.75C40.696 12.6852 41.196 11.8796 41.9275 11.3333C42.659 10.7778 43.4599 10.5 44.3303 10.5C44.8025 10.5 45.284 10.5833 45.7747 10.75C46.2655 10.9167 46.6821 11.1806 47.0247 11.5417L46.2747 13.0417C46.0896 12.6065 45.8071 12.2824 45.4275 12.0694C45.0571 11.8565 44.6544 11.75 44.2192 11.75C43.6636 11.75 43.1683 11.9306 42.7331 12.2917C42.3071 12.6435 42.0016 13.1852 41.8164 13.9167L41.3859 15.6667H46.8303L44.747 24H43.247L45.0247 16.9167H41.0942L39.3303 24H37.8303ZM47.4049 24L50.7383 10.6667H52.2383L48.9049 24H47.4049ZM51.5651 24L53.6484 15.6667H55.0373L54.7734 16.75C55.1531 16.3333 55.579 16.0231 56.0512 15.8194C56.5327 15.6065 57.0142 15.5 57.4957 15.5C58.1345 15.5 58.6577 15.6389 59.0651 15.9167C59.4818 16.1944 59.7781 16.5648 59.954 17.0278C60.3799 16.5093 60.8707 16.125 61.4262 15.875C61.991 15.625 62.5558 15.5 63.1207 15.5C63.8984 15.5 64.5142 15.6759 64.9679 16.0278C65.4216 16.3796 65.7179 16.8472 65.8568 17.4306C65.9957 18.0139 65.9771 18.6481 65.8012 19.3333L64.6207 24H63.1207L64.2873 19.3611C64.4725 18.6481 64.4401 18.037 64.1901 17.5278C63.9494 17.0093 63.4725 16.75 62.7595 16.75C62.1947 16.75 61.6531 16.9537 61.1345 17.3611C60.616 17.7593 60.2595 18.3426 60.0651 19.1111L58.8429 24H57.3429L58.5095 19.3611C58.6947 18.6481 58.6623 18.037 58.4123 17.5278C58.1716 17.0093 57.6947 16.75 56.9818 16.75C56.417 16.75 55.8707 16.9537 55.3429 17.3611C54.8244 17.7593 54.4725 18.3426 54.2873 19.1111L53.0651 24H51.5651ZM71.5564 24.1667C70.7972 24.1667 70.1166 24 69.5148 23.6667C68.9129 23.3333 68.4361 22.8796 68.0842 22.3056C67.7416 21.7222 67.5703 21.0694 67.5703 20.3472C67.5703 19.7083 67.7046 19.0972 67.9731 18.5139C68.2416 17.9306 68.6073 17.4167 69.0703 16.9722C69.5425 16.5185 70.0842 16.162 70.6953 15.9028C71.3064 15.6343 71.9546 15.5 72.6398 15.5C73.4916 15.5 74.2046 15.6991 74.7786 16.0972C75.3527 16.4861 75.7555 16.9954 75.987 17.625C76.2185 18.2546 76.2462 18.9259 76.0703 19.6389L75.9175 20.25H70.4731C70.2416 20.25 70.0101 20.2407 69.7786 20.2222C69.5564 20.2037 69.3296 20.1806 69.0981 20.1528C69.1073 20.8843 69.3481 21.5 69.8203 22C70.2925 22.5 70.9129 22.75 71.6814 22.75C72.2648 22.75 72.8018 22.6019 73.2925 22.3056C73.7925 22.0093 74.1861 21.6296 74.4731 21.1667V23.1806C74.0657 23.4861 73.612 23.7269 73.112 23.9028C72.6212 24.0787 72.1027 24.1667 71.5564 24.1667ZM69.1814 19.125C69.7277 19.0417 70.2601 19 70.7786 19H73.5425C73.7462 19 73.9453 19.0093 74.1398 19.0278C74.3342 19.037 74.5286 19.0509 74.7231 19.0694C74.7509 18.4398 74.5472 17.912 74.112 17.4861C73.6861 17.0509 73.1073 16.8333 72.3759 16.8333C71.6351 16.8333 70.9731 17.0556 70.3898 17.5C69.8064 17.9352 69.4036 18.4769 69.1814 19.125ZM76.9753 24L79.0586 15.6667H80.4475L80.1558 16.8472C80.554 16.3935 81.003 16.0556 81.503 15.8333C82.003 15.6111 82.5077 15.5 83.0169 15.5C83.7669 15.5 84.3641 15.6852 84.8086 16.0556C85.253 16.4167 85.5401 16.8981 85.6697 17.5C85.8086 18.0926 85.7901 18.7407 85.6141 19.4444L84.4753 24H82.9753L84.1003 19.4722C84.2854 18.7315 84.2484 18.0926 83.9891 17.5556C83.7391 17.0185 83.2438 16.75 82.503 16.75C81.9197 16.75 81.3549 16.963 80.8086 17.3889C80.2716 17.8056 79.9012 18.412 79.6975 19.2083L78.4753 24H76.9753ZM87.674 24L89.4379 16.9167H87.549L87.8685 15.6667H89.7852L90.4657 12.8889H91.8824L91.2018 15.6667H93.2852L92.9657 16.9167H90.9379L89.174 24H87.674Z" fill="#090B3B"/>
</svg>
